<?xml version="1.0" encoding="utf-8"?>
<!-- Generator: Adobe Illustrator 27.4.1, SVG Export Plug-In . SVG Version: 6.00 Build 0)  -->
<svg version="1.1" id="Layer_1" xmlns="http://www.w3.org/2000/svg" xmlns:xlink="http://www.w3.org/1999/xlink" x="0px" y="0px"
	 viewBox="0 0 347.3 53.3" style="enable-background:new 0 0 347.3 53.3;" xml:space="preserve">
<style type="text/css">
	.st0{fill:url(#SVGID_1_);}
	.st1{fill:url(#SVGID_00000124859922650692161600000014580797524937237169_);}
	.st2{fill:#FFFFFF;}
	.st3{fill:url(#SVGID_00000080192500631214871420000001969956822930641041_);}
	.st4{fill:url(#SVGID_00000017476321670876712040000017627435101515061388_);}
</style>
<g>
	<linearGradient id="SVGID_1_" gradientUnits="userSpaceOnUse" x1="272.3894" y1="747.7084" x2="312.3729" y2="730.6457">
		<stop  offset="1.409063e-02" style="stop-color:#D0D2D3"/>
		<stop  offset="0.4456" style="stop-color:#E6E7E8"/>
		<stop  offset="0.664" style="stop-color:#FFFFFF"/>
	</linearGradient>
	<path class="st0" d="M312.4,737.4c-1.2-10.8-10.4-19.3-21.6-19.3c-0.9,0-1.8,0.1-2.6,0.2c-1.7,0.2-3.4,0.6-5,1.2
		c-1,0.4-2,0.9-3,1.4c-0.8,0.4-1.6,0.9-2.3,1.5c-0.3,0.2-0.6,0.4-0.9,0.7c-0.8,0.6-1.5,1.3-2.2,2.1c-3.3,3.6-5.3,8.2-5.7,13
		c0,0,0,0.1,0,0.1c0,0.5-0.1,1.1-0.1,1.6c0,0.2,0,0.4,0,0.5l0,0.1c0,0,0,0.1,0,0.1c0,0,0,0,0,0c0.1,4.1,1.4,8,3.7,11.4l0.4,0.6
		c1.8,2.5,4.1,4.6,6.8,6.1h0c0.4,0.2,0.8,0.5,1.3,0.7c0,0,0,0,0,0c0,0,0.1,0,0.1,0c2.9,1.4,6.2,2.2,9.5,2.2c5.9,0,11.7-2.5,15.8-6.8
		l0,0c3.7-3.9,5.8-9.1,5.9-14.5c0-0.1,0-0.2,0-0.4C312.5,739,312.5,738.2,312.4,737.4z M290.8,749.1c-3.2,0-6-1.6-7.6-4
		c-1-1.5-1.6-3.2-1.6-5.2c0-2.3,0.9-4.5,2.3-6.1c0.4-0.5,0.9-0.9,1.4-1.3c1.5-1.2,3.5-1.8,5.5-1.8c5.1,0,9.2,4.1,9.2,9.2
		c0,2.4-0.9,4.7-2.6,6.4c-1.7,1.7-3.9,2.7-6.3,2.7C291,749.1,290.9,749.1,290.8,749.1z"/>
	
		<linearGradient id="SVGID_00000054950521144438224230000012489567238926327727_" gradientUnits="userSpaceOnUse" x1="228.1646" y1="735.2786" x2="312.0561" y2="735.2786">
		<stop  offset="0" style="stop-color:#FFFFFF"/>
		<stop  offset="0.7542" style="stop-color:#FFFFFF"/>
	</linearGradient>
	<path style="fill:url(#SVGID_00000054950521144438224230000012489567238926327727_);" d="M312.1,740.4c-0.6,0.9-0.4,3.8-0.8,5
		c-0.5,1.8-1.2,3.6-2.2,5.2c-1.8,3.1-4.3,5.8-7.4,7.7c-6.2,3.8-14.3,4.2-20.8,1c0,0,0,0,0,0v0l-0.1-0.1c0,0,0,0,0,0
		c0,0-1.3-0.7-1.3-0.7c-2.6-1.5-5-3.6-6.8-6.1l-0.4-0.7c-0.2-0.4-0.4-0.7-0.6-1.1c-0.1-0.1-0.2-0.3-0.3-0.5l-0.1-0.2
		c-0.1-0.2-0.2-0.4-0.3-0.6c-0.1-0.2-0.2-0.4-0.3-0.7c-0.1-0.2-0.2-0.4-0.2-0.5c0-0.1-0.1-0.1-0.1-0.2c-0.1-0.2-0.2-0.4-0.2-0.6
		c-0.1-0.2-0.1-0.3-0.2-0.5c-0.1-0.2-0.1-0.4-0.2-0.6c0-0.1-0.1-0.2-0.1-0.4l-0.1-0.1l0-0.1c-0.1-0.2-0.1-0.4-0.2-0.6
		c-0.1-0.2-0.1-0.4-0.2-0.7c-0.1-0.3-0.1-0.5-0.2-0.8c0-0.1,0-0.2-0.1-0.3c0,0,0,0,0,0c0-0.2-0.1-0.4-0.1-0.6c0-0.1,0-0.1,0-0.2
		c0,0,0-0.1,0-0.1c0-0.1,0-0.3-0.1-0.4c0-0.2,0-0.3-0.1-0.5c0-0.2-0.1-0.4-0.1-0.7c0,0,0,0,0-0.1c0-0.2,0-0.3-0.1-0.5l0-0.1v0
		c0-0.6-0.1-1.2-0.1-1.9v-5.2c-0.4-3-1.8-5.8-4-8c-1.6-1.6-3.5-2.8-5.6-3.5c-1.6-0.5-3.3-0.8-5-0.7c-3.2,0.1-6.2,1.3-8.6,3.4
		c-3.2,2.8-5,6.8-4.9,11c0.2,7.6,6.7,13.7,14.4,13.7h1.3c2.1,0,4.2-0.5,6.2-1.4c2.6-1.1,3,2.4,3,4.1c0,3.3-1.1,5.8-4.2,7.2
		c-5.8,2.7-13.9,1.9-19.3-1.2c-6.2-3.6-11-9.5-12.8-16.5c-0.5-1.9-0.8-3.9-0.8-5.8c-0.1-5.9,1.7-11.6,5.3-16.3
		c0.3-0.4,0.7-0.9,1-1.3c0.4-0.4,0.8-0.9,1.2-1.3c5-5.1,11.7-7.9,18.8-7.9c5,0,9.8,1.4,14,4.1c0.5,0.3,1,0.6,1.5,1
		c0.5,0.3,0.9,0.7,1.2,0.9c0.2,0.2,0.4,0.3,0.6,0.5c0.2,0.2,0.4,0.4,0.6,0.5c0.2,0.2,0.3,0.3,0.5,0.5c0.2,0.2,0.4,0.4,0.5,0.5l0,0
		c0.2,0.2,0.3,0.3,0.5,0.5c0.5,0.5,1,1.1,1.4,1.7c0.1,0.1,0.2,0.2,0.3,0.3c0.1,0.1,0.2,0.3,0.3,0.4c0.5,0.7,1,1.4,1.4,2.2
		c0,0.1,0.1,0.1,0.1,0.2c0.1,0.2,0.3,0.5,0.4,0.8c0,0.1,0.1,0.1,0.1,0.2c0.1,0.2,0.2,0.4,0.3,0.6c0.1,0.2,0.2,0.4,0.3,0.6
		c0.2,0.5,0.4,0.9,0.6,1.3c0.1,0.2,0.2,0.4,0.2,0.6c0.1,0.2,0.2,0.4,0.2,0.7c0.1,0.4,0.3,0.8,0.4,1.3c0.1,0.5,0.2,0.9,0.3,1.2
		c0,0.2,0.1,0.4,0.1,0.6c0,0.1,0.1,0.2,0.1,0.4c0,0.2,0.1,0.4,0.1,0.6c0,0.2,0.1,0.5,0.1,0.8c0,0.2,0.1,0.5,0.1,0.7c0,0,0,0,0,0.1
		c0.1,0.9,0.1,1.7,0.1,2.6c0,4.3,0,8.1,2.7,11.6c2.3,3,5.9,5.2,9.7,5.5c3.9,0.4,7.8-1.1,11-3.4C307.4,746.8,309.9,743.7,312.1,740.4
		z"/>
	<g>
		<g>
			<path class="st2" d="M394.9,718.3c-11.7,0-21.3,9.5-21.3,21.3c0,11.7,9.5,21.3,21.3,21.3s21.3-9.5,21.3-21.3
				C416.1,727.8,406.6,718.3,394.9,718.3z M403.8,748.4c-2.4,2.4-5.6,3.7-9,3.7c-6.9,0-12.6-5.6-12.6-12.6c0-6.9,5.6-12.6,12.6-12.6
				c6.9,0,12.6,5.6,12.6,12.6C407.5,742.8,406.2,746,403.8,748.4z"/>
			<path class="st2" d="M362.1,760.2c-0.3,0-0.5-0.2-0.5-0.5v-20.6c0-3.3-1.3-6.5-3.7-8.8c-2.4-2.4-5.6-3.7-9-3.7
				c-3.5,0-6.7,1.3-9.1,3.8c-2.4,2.4-3.7,5.7-3.6,9.1c0.2,6.7,6,12.2,13,12.2h8c0.8,0,1.4,0.6,1.4,1.4c0,0,0,0,0,0.1
				c0.3,7.8-9.3,7.2-9.3,7.2c-11.8,0-21.6-9.3-21.9-20.7c-0.1-5.7,2.1-11.1,6.2-15.2c4.1-4.1,9.5-6.3,15.3-6.3
				c11.8,0,21.5,9.5,21.6,21.1v20.6c0,0.3-0.2,0.5-0.5,0.5L362.1,760.2z"/>
			<path class="st2" d="M434.4,759.6c-2.7,0-4.9-0.3-6.8-0.8c-1.8-0.5-3.3-1.3-4.5-2.4c-1.1-1.1-2-2.4-2.5-4.1
				c-0.5-1.7-0.8-3.7-0.8-6v-27.2c0-0.3,0.2-0.5,0.5-0.5h7.4c0.3,0,0.5,0.2,0.5,0.5v23c0,1.8,0.1,3.3,0.4,4.4
				c0.3,1.2,0.8,2.2,1.4,2.9c0.7,0.7,1.5,1.2,2.6,1.5c1,0.3,2.2,0.4,3.7,0.4h9.3c0.3,0,0.5,0.2,0.5,0.5v7.4c0,0.3-0.2,0.5-0.5,0.5
				H434.4z"/>
			<path class="st2" d="M467.7,761.4c-1.4,0-3-0.1-4.5-0.2c-1.6-0.2-3.2-0.4-4.7-0.7c-1.5-0.3-2.9-0.6-4.3-1l0,0
				c-1.8-0.5-3-2.1-3-3.9v-6.2c0.8,0.4,1.7,0.8,2.6,1.2c1.2,0.5,2.6,1,4,1.4c1.4,0.4,3,0.7,4.7,0.9c1.7,0.2,3.4,0.3,5.3,0.3
				c1.8,0,3.3-0.1,4.7-0.4c1.3-0.3,2.5-0.7,3.5-1.1c1-0.5,1.9-1,2.5-1.7c0.7-0.6,1.2-1.3,1.6-2c0.4-0.7,0.7-1.4,0.9-2
				c0.2-0.7,0.3-1.3,0.3-1.9v-5.1l-0.9,0.9c-1.5,1.5-3.4,2.8-5.5,3.8c-2.1,1-4.6,1.5-7.3,1.5c-3.2,0-5.8-0.4-7.9-1.2
				c-2.1-0.8-3.8-2-5-3.5c-1.2-1.5-2.2-3.5-2.7-5.7c-0.5-2.3-0.8-4.9-0.8-7.7v-8.7c0-0.3,0.2-0.5,0.5-0.5h6.7c0.3,0,0.5,0.2,0.5,0.5
				v7.5c0,1.7,0.2,3.3,0.5,4.7c0.4,1.4,0.9,2.6,1.7,3.5c0.8,1,1.8,1.7,3,2.2c1.2,0.5,2.7,0.7,4.4,0.7c1.4,0,2.8-0.2,4.1-0.7
				c1.3-0.5,2.5-1.1,3.5-1.9c1.1-0.8,2-1.7,2.9-2.7c0.9-1,1.6-2,2.2-3l0.1-0.1v-10.2c0-0.3,0.2-0.5,0.5-0.5h6.7
				c0.3,0,0.5,0.2,0.5,0.5v25.7c0,2.7-0.5,5.2-1.5,7.3c-1,2.1-2.4,4-4.2,5.4c-1.8,1.5-4.1,2.6-6.7,3.4
				C473.9,761,470.9,761.4,467.7,761.4z"/>
			<path class="st2" d="M522.1,759.1v-40c0-0.3,0.2-0.5,0.5-0.5h7.4c0.3,0,0.5,0.2,0.5,0.5v40c0,0.3-0.2,0.5-0.5,0.5h-7.4
				C522.3,759.6,522.1,759.4,522.1,759.1z"/>
			<path class="st2" d="M565.9,759.4l-10.6-13.8c-0.2-0.2-0.6-0.2-0.7,0l-10.5,13.8c-0.1,0.1-0.2,0.2-0.4,0.2H535
				c-0.4,0-0.6-0.4-0.4-0.7l15.2-20c0.1-0.2,0.1-0.4,0-0.6l-14.4-18.9c-0.2-0.3,0-0.7,0.4-0.7h8.8c0.1,0,0.3,0.1,0.4,0.2l9.7,12.8
				c0.2,0.2,0.6,0.2,0.7,0l9.7-12.8c0.1-0.1,0.2-0.2,0.4-0.2h8.8c0.4,0,0.6,0.4,0.4,0.7l-14.4,18.9c-0.1,0.2-0.1,0.4,0,0.6l15.3,20
				c0.2,0.3,0,0.7-0.4,0.7h-8.8C566.1,759.6,566,759.5,565.9,759.4z"/>
		</g>
		<path class="st2" d="M510.9,759.6c-9,0-16.3-7.3-16.3-16.3v-34.5c0-0.3,0.2-0.5,0.5-0.5h7.3c0.3,0,0.5,0.2,0.5,0.5v9
			c0,0.5,0.4,0.9,0.9,0.9h10.7c0.3,0,0.5,0.2,0.5,0.5v7.7c0,0.3-0.2,0.5-0.5,0.5h-11.6v16c0,4.5,3.6,8.1,8.1,8.1h3.4
			c0.3,0,0.5,0.2,0.5,0.5v7.3c0,0.3-0.2,0.5-0.5,0.5H510.9z"/>
	</g>
</g>
<g>
	
		<linearGradient id="SVGID_00000068666208697524543200000003894211598519688582_" gradientUnits="userSpaceOnUse" x1="44.2248" y1="39.4327" x2="84.2083" y2="22.37">
		<stop  offset="1.409063e-02" style="stop-color:#D0D2D3"/>
		<stop  offset="0.4456" style="stop-color:#E6E7E8"/>
		<stop  offset="0.664" style="stop-color:#FFFFFF"/>
	</linearGradient>
	<path style="fill:url(#SVGID_00000068666208697524543200000003894211598519688582_);" d="M84.2,29.1C83,18.3,73.8,9.8,62.6,9.8
		c-0.9,0-1.8,0.1-2.6,0.2c-1.7,0.2-3.4,0.6-5,1.2c-1,0.4-2,0.9-3,1.4c-0.8,0.4-1.6,0.9-2.3,1.5c-0.3,0.2-0.6,0.4-0.9,0.7
		c-0.8,0.6-1.5,1.3-2.2,2.1c-3.3,3.6-5.3,8.2-5.7,13c0,0,0,0.1,0,0.1c0,0.5-0.1,1.1-0.1,1.6c0,0.2,0,0.4,0,0.5l0,0.1
		c0,0,0,0.1,0,0.1c0,0,0,0,0,0c0.1,4.1,1.4,8,3.7,11.4l0.4,0.6c1.8,2.5,4.1,4.6,6.8,6.1h0c0.4,0.2,0.8,0.5,1.3,0.7c0,0,0,0,0,0
		c0,0,0.1,0,0.1,0c2.9,1.4,6.2,2.2,9.5,2.2c5.9,0,11.7-2.5,15.8-6.8l0,0c3.7-3.9,5.8-9.1,5.9-14.5c0-0.1,0-0.2,0-0.4
		C84.4,30.8,84.3,29.9,84.2,29.1z M62.6,40.8c-3.2,0-6-1.6-7.6-4c-1-1.5-1.6-3.2-1.6-5.2c0-2.3,0.9-4.5,2.3-6.1
		c0.4-0.5,0.9-0.9,1.4-1.3c1.5-1.2,3.5-1.8,5.5-1.8c5.1,0,9.2,4.1,9.2,9.2c0,2.4-0.9,4.7-2.6,6.4c-1.7,1.7-3.9,2.7-6.3,2.7
		C62.8,40.8,62.7,40.8,62.6,40.8z"/>
	
		<linearGradient id="SVGID_00000098901968008403565360000009764162457022292623_" gradientUnits="userSpaceOnUse" x1="1.818989e-12" y1="27.0028" x2="83.8915" y2="27.0028">
		<stop  offset="0" style="stop-color:#FFFFFF"/>
		<stop  offset="0.7542" style="stop-color:#FFFFFF"/>
	</linearGradient>
	<path style="fill:url(#SVGID_00000098901968008403565360000009764162457022292623_);" d="M83.9,32.2c-0.6,0.9-0.4,3.8-0.8,5
		c-0.5,1.8-1.2,3.6-2.2,5.2c-1.8,3.1-4.3,5.8-7.4,7.7c-6.2,3.8-14.3,4.2-20.8,1c0,0,0,0,0,0v0l-0.1-0.1c0,0,0,0,0,0
		c0,0-1.3-0.7-1.3-0.7c-2.6-1.5-5-3.6-6.8-6.1l-0.4-0.7c-0.2-0.4-0.4-0.7-0.6-1.1c-0.1-0.1-0.2-0.3-0.3-0.5l-0.1-0.2
		c-0.1-0.2-0.2-0.4-0.3-0.6c-0.1-0.2-0.2-0.4-0.3-0.7c-0.1-0.2-0.2-0.4-0.2-0.5c0-0.1-0.1-0.1-0.1-0.2c-0.1-0.2-0.2-0.4-0.2-0.6
		c-0.1-0.2-0.1-0.3-0.2-0.5c-0.1-0.2-0.1-0.4-0.2-0.6c0-0.1-0.1-0.2-0.1-0.4l-0.1-0.1l0-0.1c-0.1-0.2-0.1-0.4-0.2-0.6
		c-0.1-0.2-0.1-0.4-0.2-0.7c-0.1-0.3-0.1-0.5-0.2-0.8c0-0.1,0-0.2-0.1-0.3c0,0,0,0,0,0c0-0.2-0.1-0.4-0.1-0.6c0-0.1,0-0.1,0-0.2
		c0,0,0-0.1,0-0.1c0-0.1,0-0.3-0.1-0.4c0-0.2,0-0.3-0.1-0.5c0-0.2-0.1-0.4-0.1-0.7c0,0,0,0,0-0.1c0-0.2,0-0.3-0.1-0.5l0-0.1v0
		c0-0.6-0.1-1.2-0.1-1.9v-5.2c-0.4-3-1.8-5.8-4-8c-1.6-1.6-3.5-2.8-5.6-3.5c-1.6-0.5-3.3-0.8-5-0.7c-3.2,0.1-6.2,1.3-8.6,3.4
		c-3.2,2.8-5,6.8-4.9,11c0.2,7.6,6.7,13.7,14.4,13.7h1.3c2.1,0,4.2-0.5,6.2-1.4c2.6-1.1,3,2.4,3,4.1c0,3.3-1.1,5.8-4.2,7.2
		c-5.8,2.7-13.9,1.9-19.3-1.2c-6.2-3.6-11-9.5-12.8-16.5C0.3,31.5,0,29.5,0,27.5c-0.1-5.9,1.7-11.6,5.3-16.3c0.3-0.4,0.7-0.9,1-1.3
		c0.4-0.4,0.8-0.9,1.2-1.3c5-5.1,11.7-7.9,18.8-7.9c5,0,9.8,1.4,14,4.1c0.5,0.3,1,0.6,1.5,1c0.5,0.3,0.9,0.7,1.2,0.9
		c0.2,0.2,0.4,0.3,0.6,0.5c0.2,0.2,0.4,0.4,0.6,0.5c0.2,0.2,0.3,0.3,0.5,0.5c0.2,0.2,0.4,0.4,0.5,0.5l0,0c0.2,0.2,0.3,0.3,0.5,0.5
		c0.5,0.5,1,1.1,1.4,1.7c0.1,0.1,0.2,0.2,0.3,0.3c0.1,0.1,0.2,0.3,0.3,0.4c0.5,0.7,1,1.4,1.4,2.2c0,0.1,0.1,0.1,0.1,0.2
		c0.1,0.2,0.3,0.5,0.4,0.8c0,0.1,0.1,0.1,0.1,0.2c0.1,0.2,0.2,0.4,0.3,0.6c0.1,0.2,0.2,0.4,0.3,0.6c0.2,0.5,0.4,0.9,0.6,1.3
		c0.1,0.2,0.2,0.4,0.2,0.6c0.1,0.2,0.2,0.4,0.2,0.7c0.1,0.4,0.3,0.8,0.4,1.3c0.1,0.5,0.2,0.9,0.3,1.2c0,0.2,0.1,0.4,0.1,0.6
		c0,0.1,0.1,0.2,0.1,0.4c0,0.2,0.1,0.4,0.1,0.6c0,0.2,0.1,0.5,0.1,0.8c0,0.2,0.1,0.5,0.1,0.7c0,0,0,0,0,0.1c0.1,0.9,0.1,1.7,0.1,2.6
		c0,4.3,0,8.1,2.7,11.6c2.3,3,5.9,5.2,9.7,5.5c3.9,0.4,7.8-1.1,11-3.4S81.7,35.4,83.9,32.2z"/>
	<g>
		<g>
			<path class="st2" d="M166.7,10c-11.7,0-21.3,9.5-21.3,21.3s9.5,21.3,21.3,21.3c11.7,0,21.3-9.5,21.3-21.3S178.4,10,166.7,10z
				 M175.7,40.1c-2.4,2.4-5.6,3.7-9,3.7c-6.9,0-12.6-5.6-12.6-12.6s5.6-12.6,12.6-12.6c6.9,0,12.6,5.6,12.6,12.6
				C179.3,34.6,178,37.7,175.7,40.1z"/>
			<path class="st2" d="M133.9,51.9c-0.3,0-0.5-0.2-0.5-0.5V30.9c0-3.3-1.3-6.5-3.7-8.8c-2.4-2.4-5.6-3.7-9-3.7
				c-3.5,0-6.7,1.3-9.1,3.8c-2.4,2.4-3.7,5.7-3.6,9.1c0.2,6.7,6,12.2,13,12.2h8c0.8,0,1.4,0.6,1.4,1.4c0,0,0,0,0,0.1
				c0.3,7.8-9.3,7.2-9.3,7.2c-11.8,0-21.6-9.3-21.9-20.7c-0.1-5.7,2.1-11.1,6.2-15.2c4.1-4.1,9.5-6.3,15.3-6.3
				c11.8,0,21.5,9.5,21.6,21.1v20.6c0,0.3-0.2,0.5-0.5,0.5L133.9,51.9z"/>
			<path class="st2" d="M206.3,51.3c-2.7,0-4.9-0.3-6.8-0.8c-1.8-0.5-3.3-1.3-4.5-2.4c-1.1-1.1-2-2.4-2.5-4.1
				c-0.5-1.7-0.8-3.7-0.8-6V10.8c0-0.3,0.2-0.5,0.5-0.5h7.4c0.3,0,0.5,0.2,0.5,0.5v23c0,1.8,0.1,3.3,0.4,4.4
				c0.3,1.2,0.8,2.2,1.4,2.9c0.7,0.7,1.5,1.2,2.6,1.5c1,0.3,2.2,0.4,3.7,0.4h9.3c0.3,0,0.5,0.2,0.5,0.5v7.4c0,0.3-0.2,0.5-0.5,0.5
				H206.3z"/>
			<path class="st2" d="M239.5,53.2c-1.4,0-3-0.1-4.5-0.2c-1.6-0.2-3.2-0.4-4.7-0.7c-1.5-0.3-2.9-0.6-4.3-1l0,0
				c-1.8-0.5-3-2.1-3-3.9v-6.2c0.8,0.4,1.7,0.8,2.6,1.2c1.2,0.5,2.6,1,4,1.4c1.4,0.4,3,0.7,4.7,0.9c1.7,0.2,3.4,0.3,5.3,0.3
				c1.8,0,3.3-0.1,4.7-0.4c1.3-0.3,2.5-0.7,3.5-1.1c1-0.5,1.9-1,2.5-1.7c0.7-0.6,1.2-1.3,1.6-2c0.4-0.7,0.7-1.4,0.9-2
				c0.2-0.7,0.3-1.3,0.3-1.9v-5.1l-0.9,0.9c-1.5,1.5-3.4,2.8-5.5,3.8c-2.1,1-4.6,1.5-7.3,1.5c-3.2,0-5.8-0.4-7.9-1.2
				c-2.1-0.8-3.8-2-5-3.5c-1.2-1.5-2.2-3.5-2.7-5.7c-0.5-2.3-0.8-4.9-0.8-7.7v-8.7c0-0.3,0.2-0.5,0.5-0.5h6.7c0.3,0,0.5,0.2,0.5,0.5
				v7.5c0,1.7,0.2,3.3,0.5,4.7c0.4,1.4,0.9,2.6,1.7,3.5c0.8,1,1.8,1.7,3,2.2c1.2,0.5,2.7,0.7,4.4,0.7c1.4,0,2.8-0.2,4.1-0.7
				c1.3-0.5,2.5-1.1,3.5-1.9c1.1-0.8,2-1.7,2.9-2.7c0.9-1,1.6-2,2.2-3l0.1-0.1V10.1c0-0.3,0.2-0.5,0.5-0.5h6.7
				c0.3,0,0.5,0.2,0.5,0.5v25.7c0,2.7-0.5,5.2-1.5,7.3c-1,2.1-2.4,4-4.2,5.4c-1.8,1.5-4.1,2.6-6.7,3.4
				C245.7,52.8,242.7,53.2,239.5,53.2z"/>
			<path class="st2" d="M293.9,50.8v-40c0-0.3,0.2-0.5,0.5-0.5h7.4c0.3,0,0.5,0.2,0.5,0.5v40c0,0.3-0.2,0.5-0.5,0.5h-7.4
				C294.1,51.3,293.9,51.1,293.9,50.8z"/>
			<path class="st2" d="M337.7,51.1l-10.6-13.8c-0.2-0.2-0.6-0.2-0.7,0l-10.5,13.8c-0.1,0.1-0.2,0.2-0.4,0.2h-8.7
				c-0.4,0-0.6-0.4-0.4-0.7l15.2-20c0.1-0.2,0.1-0.4,0-0.6l-14.4-18.9c-0.2-0.3,0-0.7,0.4-0.7h8.8c0.1,0,0.3,0.1,0.4,0.2l9.7,12.8
				c0.2,0.2,0.6,0.2,0.7,0l9.7-12.8c0.1-0.1,0.2-0.2,0.4-0.2h8.8c0.4,0,0.6,0.4,0.4,0.7L332,30c-0.1,0.2-0.1,0.4,0,0.6l15.3,20
				c0.2,0.3,0,0.7-0.4,0.7h-8.8C338,51.3,337.8,51.2,337.7,51.1z"/>
		</g>
		<path class="st2" d="M282.7,51.3c-9,0-16.3-7.3-16.3-16.3V0.5c0-0.3,0.2-0.5,0.5-0.5h7.3c0.3,0,0.5,0.2,0.5,0.5v9
			c0,0.5,0.4,0.9,0.9,0.9h10.7c0.3,0,0.5,0.2,0.5,0.5v7.7c0,0.3-0.2,0.5-0.5,0.5h-11.6v16c0,4.5,3.6,8.1,8.1,8.1h3.4
			c0.3,0,0.5,0.2,0.5,0.5v7.3c0,0.3-0.2,0.5-0.5,0.5H282.7z"/>
	</g>
</g>
</svg>
