<svg width="1300" height="400" viewBox="0 0 1300 400" fill="none" xmlns="http://www.w3.org/2000/svg">
<g clip-path="url(#clip0_33_2)">
<rect width="1300" height="400" fill="#008AD5"/>
<path d="M1444.74 -71.8272C1248.22 95.3515 1090.09 78.1614 993.655 55.8296C897.223 33.4977 789.393 -26.9156 789.393 -26.9156" stroke="white" stroke-opacity="0.14" stroke-width="5"/>
<path d="M1113 -31.5775C1204.05 66.522 1274.86 62.8084 1317.85 54.0885C1360.84 45.3686 1408.33 16.3098 1408.33 16.3098" stroke="white" stroke-opacity="0.14" stroke-width="5"/>
<path d="M220 -5C157.107 115.599 150.002 244.559 149.067 325.691C148.133 406.823 157.251 505 157.251 505" stroke="white" stroke-opacity="0.1" stroke-width="5"/>
<path d="M474.284 413.345C355.682 346.763 227.002 335.687 145.937 332.251C64.8724 328.816 -33.5388 334.903 -33.5388 334.903" stroke="white" stroke-opacity="0.1" stroke-width="5"/>
<path d="M277.224 499.996C360.371 276.994 298.249 169.046 250.29 108.804C202.331 48.5621 118.562 -2.09703 118.562 -2.09703" stroke="white" stroke-opacity="0.1" stroke-width="5"/>
<path d="M605.292 -19.0923C493.666 58.62 427.599 169.599 389.167 241.058C350.735 312.516 313.311 403.737 313.311 403.737" stroke="white" stroke-opacity="0.1" stroke-width="5"/>
<path d="M1363.29 96.9077C1251.67 174.62 1185.6 285.599 1147.17 357.058C1108.74 428.516 1071.31 519.737 1071.31 519.737" stroke="white" stroke-opacity="0.1" stroke-width="5"/>
<path d="M523.159 -35.9999C452.926 191.4 521.131 295.611 572.463 353.006C623.794 410.401 710.329 456.178 710.329 456.178" stroke="white" stroke-opacity="0.1" stroke-width="5"/>
<path d="M-95 -56.5775C-3.95108 41.522 66.8604 37.8084 109.849 29.0885C152.838 20.3686 200.334 -8.69017 200.334 -8.69017" stroke="white" stroke-opacity="0.1" stroke-width="5"/>
<path d="M53.7428 -8.99988C43.2507 116.582 -13.7357 223.261 -52.277 288.752C-90.8183 354.243 -145.255 428.788 -145.255 428.788" stroke="white" stroke-opacity="0.1" stroke-width="5"/>
</g>
<defs>
<clipPath id="clip0_33_2">
<rect width="1300" height="400" fill="white"/>
</clipPath>
</defs>
</svg>
