<svg width="200" height="50" viewBox="0 0 200 50" fill="none" xmlns="http://www.w3.org/2000/svg">
<path d="M44.4311 45.7215C37.4479 42.4582 33.5304 38.2039 33.7494 33.2727C34.3821 19.4219 67.4489 5.18433 107.377 1.60681C119.397 0.519055 130.687 0.543226 140.59 1.46178C129.203 -0.181947 115.455 -0.496187 100.613 0.809123C60.709 4.38664 27.6178 18.6 27.0095 32.475C26.6932 39.2916 34.2604 44.7546 46.7669 48.1629L44.4311 45.7215Z" fill="#8E8E8E"/>
<path d="M42.1194 41.0803C40.0269 38.9773 39.0293 36.7051 39.151 34.2637C39.7349 21.4765 70.3442 8.37505 107.401 5.06343C113.071 4.55581 118.691 4.28992 124.117 4.28992C134.239 4.28992 143.729 5.20847 151.564 6.92471L151.685 6.39291C143.364 4.24157 132.974 3.10547 121.611 3.10547C116.234 3.10547 110.662 3.37136 105.041 3.85481C68.1787 7.1906 37.7154 20.3646 37.1314 33.2485C36.9611 36.7776 39.005 39.9684 43.1414 42.7482L42.1194 41.0803Z" fill="#8E8E8E"/>
<path d="M74.4077 42.3616C63.9207 42.3616 55.502 37.5271 55.502 30.2996C55.502 23.0479 63.9207 18.2617 74.4077 18.2617C79.3957 18.2617 83.9701 19.5187 87.3035 21.525L83.1428 24.474C81.3179 23.3621 78.5198 22.081 75.1377 22.081C70.2957 22.081 67.1812 24.5465 67.1812 30.2754C67.1812 35.9559 70.2957 38.4215 75.1377 38.4215C78.5198 38.4215 81.3179 37.2371 83.1428 36.101L87.3035 39.05C83.9701 41.1047 79.3957 42.3616 74.4077 42.3616Z" fill="#8E8E8E"/>
<path d="M121.684 41.6122V27.4713L113.582 41.6122H106.501L97.3038 27.4713V41.6122H90.272V18.9868H103.898L112.706 32.5959L120.565 18.9868H132.585V41.6122H121.684Z" fill="#8E8E8E"/>
<path d="M151.418 42.3616C143.51 42.3616 138.522 39.7026 136.6 37.9139L140.858 35.1824C142.95 36.8261 147.452 38.7599 151.418 38.7599C154.946 38.7599 156.674 38.1314 156.674 37.0437C156.674 35.0374 152.513 34.5539 148.255 33.6354C141.953 32.2575 137.232 30.5896 137.232 26.2628C137.232 20.9207 143.68 18.3101 151.832 18.3101C157.744 18.3101 161.71 19.4703 165.092 21.8634L160.98 24.4499C158.547 22.7578 154.313 21.8634 151.978 21.8634C148.23 21.8634 146.771 22.6611 146.771 23.7247C146.771 25.3684 150.055 25.5376 155.335 26.6979C161.881 28.1241 166.771 30.1787 166.771 34.5539C166.747 39.3159 160.932 42.3616 151.418 42.3616Z" fill="#8E8E8E"/>
<path d="M54.2612 49.2747C54.2125 49.4198 54.1639 49.589 54.1395 49.734C53.8475 49.8791 53.4582 49.9757 53.0203 49.9757C51.755 49.9757 51.0007 49.1781 51.0007 48.1628C51.0007 46.6641 52.0227 46.084 53.1906 46.084C53.5799 46.084 54.0665 46.2048 54.3099 46.3499C54.2369 46.5191 54.2125 46.7125 54.1882 46.9058H54.1152C53.8475 46.5674 53.5556 46.4224 53.1663 46.4224C52.5823 46.4224 51.901 46.93 51.901 48.0903C51.901 49.2022 52.5823 49.6615 53.2149 49.6615C53.5556 49.6615 53.9692 49.4923 54.2125 49.2506L54.2612 49.2747Z" fill="#8E8E8E"/>
<path d="M54.9181 47.6552C54.9181 47.0509 54.8937 46.6158 54.8694 46.1323C55.1857 46.1323 55.5263 46.1565 55.8427 46.1565C56.378 46.1565 56.8403 46.1565 56.9862 46.1323C56.9862 46.2048 56.9619 46.2532 56.9619 46.374C56.9619 46.4949 56.9862 46.5433 56.9862 46.6158C56.5726 46.5916 55.9157 46.5433 55.7453 46.5433C55.721 46.9542 55.721 47.3409 55.721 47.7277C56.2076 47.7035 56.5483 47.7035 56.9619 47.6794C56.9376 47.8002 56.9376 47.8486 56.9376 47.9211C56.9376 47.9694 56.9619 48.0419 56.9619 48.1386C56.5483 48.1145 56.1346 48.0903 55.721 48.0903C55.721 48.3078 55.721 48.5496 55.721 48.7913C55.721 49.033 55.721 49.2506 55.7453 49.4681C56.159 49.4681 56.5726 49.4439 57.0106 49.3956C57.0106 49.4681 56.9862 49.5165 56.9862 49.6373C56.9862 49.7582 57.0106 49.8065 57.0106 49.879C56.8159 49.879 56.5483 49.8549 56.0616 49.8549C55.1614 49.8549 55.0154 49.879 54.8937 49.879C54.918 49.3956 54.9424 48.9847 54.9424 48.3562V47.6552H54.9181Z" fill="#8E8E8E"/>
<path d="M57.7406 46.1323C57.8136 46.1565 57.9109 46.1565 57.9839 46.1565C58.0569 46.1565 58.1542 46.1323 58.2272 46.1323C59.0058 47.0025 59.8088 47.8727 60.6117 48.7429C60.6117 47.8727 60.6117 46.3982 60.563 46.1323C60.636 46.1565 60.7334 46.1565 60.8064 46.1565C60.8794 46.1565 60.9767 46.1323 61.0497 46.1323C60.9523 47.7277 60.9523 48.4529 60.9523 49.9032C60.8793 49.879 60.8064 49.879 60.7334 49.879C60.6604 49.879 60.5874 49.879 60.5144 49.9032C59.7601 49.0088 58.9571 48.1386 58.1055 47.2443C58.1055 47.6552 58.1055 48.1145 58.1055 48.5254C58.1055 49.3956 58.1299 49.7098 58.1299 49.9032C58.0325 49.879 57.9595 49.879 57.8622 49.879C57.7892 49.879 57.6919 49.879 57.6189 49.9032C57.6432 49.7582 57.7406 48.332 57.7406 47.2201C57.7649 46.7366 57.7406 46.3982 57.7406 46.1323Z" fill="#8E8E8E"/>
<path d="M62.6313 47.0267C62.6313 46.8092 62.6313 46.6158 62.607 46.5433C62.388 46.5433 61.9257 46.5674 61.6094 46.6158C61.6337 46.5433 61.6337 46.4466 61.6337 46.374C61.6337 46.3015 61.6094 46.2048 61.6094 46.1323C62.1203 46.1565 62.3637 46.1565 63.0449 46.1565C63.7262 46.1565 63.9696 46.1565 64.4319 46.1323C64.4075 46.2048 64.4075 46.3015 64.4075 46.374C64.4075 46.4466 64.4319 46.5433 64.4319 46.6158C64.1399 46.5674 63.6776 46.5433 63.4586 46.5433C63.4586 46.6158 63.4586 46.8092 63.4586 47.0267V48.3804C63.4586 48.9847 63.4586 49.4198 63.5072 49.9032C63.3856 49.9032 63.2396 49.879 63.0449 49.879C62.8746 49.879 62.7043 49.9032 62.5826 49.9032C62.607 49.4198 62.6313 49.0088 62.6313 48.3804V47.0267Z" fill="#8E8E8E"/>
<path d="M64.9913 47.6552C64.9913 47.0509 64.967 46.6158 64.9426 46.1323C65.2589 46.1323 65.5996 46.1565 65.9159 46.1565C66.4512 46.1565 66.9135 46.1565 67.0595 46.1323C67.0595 46.2048 67.0352 46.2532 67.0352 46.374C67.0352 46.4949 67.0595 46.5433 67.0595 46.6158C66.6458 46.5916 65.9889 46.5433 65.8186 46.5433C65.7942 46.9542 65.7942 47.3409 65.7942 47.7277C66.2809 47.7035 66.6215 47.7035 67.0352 47.6794C67.0108 47.8002 67.0108 47.8486 67.0108 47.9211C67.0108 47.9694 67.0352 48.0419 67.0352 48.1386C66.6215 48.1145 66.2079 48.0903 65.7942 48.0903C65.7942 48.3078 65.7942 48.5496 65.7942 48.7913C65.7942 49.033 65.7942 49.2506 65.8186 49.4681C66.2322 49.4681 66.6458 49.4439 67.0838 49.3956C67.0838 49.4681 67.0595 49.5165 67.0595 49.6373C67.0595 49.7582 67.0838 49.8065 67.0838 49.879C66.8892 49.879 66.6215 49.8549 66.1349 49.8549C65.2346 49.8549 65.0886 49.879 64.967 49.879C64.9913 49.3956 65.0156 48.9847 65.0156 48.3562V47.6552H64.9913Z" fill="#8E8E8E"/>
<path d="M68.6169 46.4468C68.5926 46.9303 68.5926 47.4379 68.5926 47.9213C68.6412 47.9213 68.6656 47.9213 68.7142 47.9213C69.2009 47.9213 69.4685 47.6554 69.4685 47.1478C69.4685 46.5193 69.2252 46.4468 68.6169 46.4468ZM68.6412 48.1631H68.5926V48.3806C68.5926 48.9849 68.5926 49.42 68.6412 49.8793C68.5196 49.8793 68.3736 49.8551 68.1789 49.8551C68.0086 49.8551 67.8383 49.8793 67.741 49.8793C67.7653 49.3958 67.7896 48.9849 67.7896 48.3806V47.6313C67.7896 47.0269 67.7653 46.5918 67.741 46.1084C67.8626 46.1326 68.0086 46.1326 68.1789 46.1326C68.3736 46.1326 68.6169 46.1084 68.9819 46.1084C69.5415 46.1084 69.7362 46.1567 69.9308 46.3018C70.1498 46.471 70.2958 46.6885 70.2958 47.0269C70.2958 47.5587 69.9795 47.8972 69.4442 48.0422C69.7848 48.6707 70.2228 49.275 70.6121 49.9035C70.4418 49.9035 70.2715 49.8793 70.1255 49.8793C69.9552 49.8793 69.7848 49.9035 69.6145 49.9035L68.6412 48.1631Z" fill="#8E8E8E"/>
<path d="M72.7534 46.8819C72.6318 46.5677 72.4128 46.4226 72.0965 46.4226C71.7558 46.4226 71.5368 46.6402 71.5368 46.9061C71.5368 47.7038 73.2157 47.5104 73.2157 48.7432C73.2157 49.4684 72.6318 49.976 71.7558 49.976C71.3665 49.976 71.0259 49.8551 70.8799 49.7343C70.9529 49.4925 71.0015 49.275 71.0502 49.0333H71.1475C71.1962 49.3475 71.4638 49.6134 71.9018 49.6134C72.3398 49.6134 72.5344 49.3717 72.5344 49.0574C72.5344 48.2356 70.9042 48.4531 70.9042 47.2203C70.9042 46.471 71.4882 46.0601 72.1451 46.0601C72.5344 46.0601 72.8264 46.1567 73.0454 46.326C72.9724 46.4952 72.9481 46.616 72.8751 46.8577H72.7534V46.8819Z" fill="#8E8E8E"/>
<path d="M75.3811 47.6557C75.3811 47.0514 75.3568 46.6163 75.3324 46.1328C75.6488 46.1328 75.9894 46.157 76.3057 46.157C76.841 46.157 77.3033 46.157 77.4493 46.1328C77.425 46.2053 77.425 46.2537 77.425 46.3745C77.425 46.4954 77.4493 46.5437 77.4493 46.6163C77.0357 46.5921 76.3787 46.5437 76.2084 46.5437C76.1841 46.9547 76.184 47.3414 76.184 47.7282C76.6707 47.704 77.0113 47.704 77.425 47.6799C77.4006 47.8007 77.4006 47.8491 77.4006 47.9216C77.4006 47.9699 77.425 48.0424 77.425 48.1391C77.0113 48.115 76.5977 48.0908 76.184 48.0908V48.3809C76.184 48.9852 76.184 49.4203 76.2327 49.9037C76.1111 49.8795 75.9651 49.8795 75.7704 49.8795C75.6001 49.8795 75.4298 49.9037 75.3081 49.9037C75.3324 49.4203 75.3568 49.0093 75.3568 48.3809V47.6557H75.3811Z" fill="#8E8E8E"/>
<path d="M79.9554 46.3745C79.2011 46.3745 78.7632 47.1239 78.7632 48.0666C78.7632 49.2269 79.2985 49.6378 79.9068 49.6378C80.5637 49.6378 81.1477 49.0819 81.1477 47.8974C81.172 46.9547 80.661 46.3745 79.9554 46.3745ZM79.9798 46.0845C81.1477 46.0845 82.0723 46.713 82.0723 48.0424C82.0723 49.1302 81.1963 50.0004 79.9798 50.0004C78.8118 50.0004 77.8872 49.4203 77.8872 48.0424C77.8629 46.9547 78.7145 46.0845 79.9798 46.0845Z" fill="#8E8E8E"/>
<path d="M83.5808 46.4468C83.5564 46.9303 83.5564 47.4379 83.5564 47.9213C83.6051 47.9213 83.6294 47.9213 83.6781 47.9213C84.1647 47.9213 84.4324 47.6554 84.4324 47.1478C84.4324 46.5193 84.1647 46.4468 83.5808 46.4468ZM83.6051 48.1631H83.5564V48.3806C83.5564 48.9849 83.5564 49.42 83.6051 49.8793C83.4834 49.8793 83.3375 49.8551 83.1428 49.8551C82.9725 49.8551 82.8265 49.8793 82.7048 49.8793C82.7292 49.3958 82.7535 48.9849 82.7535 48.3806V47.6313C82.7535 47.0269 82.7535 46.5918 82.7048 46.1084C82.8265 46.1326 82.9725 46.1326 83.1428 46.1326C83.3375 46.1326 83.5808 46.1084 83.9458 46.1084C84.5054 46.1084 84.7 46.1567 84.8947 46.3018C85.1137 46.471 85.2597 46.6885 85.2597 47.0269C85.2597 47.5587 84.9434 47.8972 84.4081 48.0422C84.7487 48.6707 85.1867 49.275 85.576 49.9035C85.4057 49.9035 85.2597 49.8793 85.0893 49.8793C84.919 49.8793 84.7487 49.9035 84.5784 49.9035L83.6051 48.1631Z" fill="#8E8E8E"/>
<path d="M88.0577 47.4379C87.9361 48.2597 87.8874 49.0816 87.8388 49.9276C87.7414 49.9035 87.6684 49.9035 87.5711 49.9035C87.4738 49.9035 87.4008 49.9035 87.3035 49.9276C87.5225 48.6707 87.7171 47.4137 87.8631 46.1567C87.9361 46.1809 88.0091 46.1809 88.0821 46.1809C88.1551 46.1809 88.2281 46.1567 88.3011 46.1567C88.6904 47.0269 89.177 47.9938 89.5663 48.7674C90.0043 47.9455 90.4423 47.0269 90.8559 46.1567C90.9289 46.1809 91.0262 46.1809 91.0992 46.1809C91.1722 46.1809 91.2452 46.1567 91.3182 46.1567C91.4642 47.4137 91.6588 49.1541 91.7805 49.9276C91.6345 49.9035 91.4885 49.9035 91.3425 49.9035C91.1965 49.9035 91.0506 49.9035 90.8802 49.9276C90.8316 49.1783 90.7586 48.2356 90.6612 47.3895H90.6369C90.2233 48.2356 89.8096 49.0816 89.4203 49.9276C89.396 49.9276 89.3473 49.9276 89.323 49.9276C89.2987 49.9276 89.25 49.9276 89.2257 49.9276C88.885 49.0816 88.4957 48.2597 88.0577 47.4379Z" fill="#8E8E8E"/>
<path d="M92.4617 47.6552C92.4617 47.0509 92.4374 46.6158 92.4131 46.1323C92.7294 46.1323 93.07 46.1565 93.3864 46.1565C93.9217 46.1565 94.384 46.1565 94.5299 46.1323C94.5299 46.2048 94.5056 46.2532 94.5056 46.374C94.5056 46.4949 94.5299 46.5433 94.5299 46.6158C94.1163 46.5916 93.4593 46.5433 93.289 46.5433C93.2647 46.9542 93.2647 47.3409 93.2647 47.7277C93.7513 47.7035 94.092 47.7035 94.5056 47.6794C94.4813 47.8002 94.4813 47.8486 94.4813 47.9211C94.4813 47.9694 94.5056 48.0419 94.5056 48.1386C94.092 48.1145 93.6783 48.0903 93.2647 48.0903C93.2647 48.3078 93.2647 48.5496 93.2647 48.7913C93.2647 49.033 93.2647 49.2506 93.289 49.4681C93.7027 49.4681 94.1163 49.4439 94.5543 49.3956C94.5543 49.4681 94.5299 49.5165 94.5299 49.6373C94.5299 49.7582 94.5543 49.8065 94.5543 49.879C94.3596 49.879 94.092 49.8549 93.6053 49.8549C92.7051 49.8549 92.5591 49.879 92.4374 49.879C92.4617 49.3956 92.4861 48.9847 92.4861 48.3562V47.6552H92.4617Z" fill="#8E8E8E"/>
<path d="M96.0874 48.5254C96.0874 48.8155 96.0874 49.4923 96.0874 49.589C96.209 49.589 96.355 49.6132 96.574 49.6132C97.4013 49.6132 97.9122 49.0572 97.9122 47.9211C97.9122 47.0267 97.4013 46.4707 96.647 46.4707C96.3793 46.4707 96.2334 46.4949 96.063 46.4949C96.063 46.5916 96.063 47.2684 96.063 47.5585V48.5254H96.0874ZM95.2601 47.6552C95.2601 47.0509 95.2358 46.6158 95.2114 46.1323C95.3331 46.1323 95.4791 46.1565 95.6737 46.1565C95.917 46.1565 96.1847 46.1323 96.6713 46.1323C97.9366 46.1323 98.7882 46.5191 98.7882 47.8969C98.7882 49.1055 97.9122 49.879 96.8903 49.879C96.3307 49.879 95.9657 49.8549 95.6737 49.8549C95.5034 49.8549 95.3331 49.879 95.2114 49.879C95.2358 49.3956 95.2601 48.9847 95.2601 48.3562V47.6552Z" fill="#8E8E8E"/>
<path d="M99.5667 47.6552C99.5667 47.0509 99.5667 46.6158 99.5181 46.1323C99.6397 46.1565 99.7857 46.1565 99.956 46.1565C100.151 46.1565 100.297 46.1323 100.418 46.1323C100.394 46.6158 100.37 47.0267 100.37 47.6552V48.4045C100.37 49.0088 100.394 49.4439 100.418 49.9274C100.297 49.9032 100.151 49.9032 99.956 49.9032C99.7857 49.9032 99.6397 49.9274 99.5181 49.9274C99.5424 49.4439 99.5667 49.033 99.5667 48.4045V47.6552Z" fill="#8E8E8E"/>
<path d="M104.336 49.2747C104.287 49.4198 104.238 49.589 104.214 49.734C103.922 49.8791 103.533 49.9757 103.095 49.9757C101.829 49.9757 101.075 49.1781 101.075 48.1628C101.075 46.6641 102.097 46.084 103.265 46.084C103.654 46.084 104.141 46.2048 104.384 46.3499C104.311 46.5191 104.263 46.7125 104.263 46.9058H104.165C103.898 46.5674 103.606 46.4224 103.216 46.4224C102.632 46.4224 101.951 46.93 101.951 48.0903C101.951 49.2022 102.632 49.6615 103.265 49.6615C103.606 49.6615 104.019 49.4923 104.263 49.2506L104.336 49.2747Z" fill="#8E8E8E"/>
<path d="M106.55 48.4773C106.404 48.0422 106.234 47.6071 106.063 47.172C105.869 47.6071 105.698 48.018 105.552 48.4773H106.55ZM108.01 49.9035C107.84 49.8793 107.669 49.8793 107.523 49.8793C107.377 49.8793 107.207 49.9035 107.061 49.9035C106.939 49.5409 106.818 49.1541 106.672 48.7915C106.428 48.7915 106.209 48.7915 105.966 48.7915C105.771 48.7915 105.577 48.7915 105.406 48.7915C105.26 49.1541 105.139 49.5409 105.041 49.9035C104.944 49.8793 104.871 49.8793 104.774 49.8793C104.676 49.8793 104.603 49.9035 104.506 49.9035C104.774 49.2992 105.601 47.3654 106.063 46.1084C106.136 46.1084 106.209 46.1326 106.282 46.1326C106.355 46.1326 106.428 46.1084 106.501 46.1084C106.939 47.3654 107.572 49.0091 108.01 49.9035Z" fill="#8E8E8E"/>
<path d="M109.397 46.4468C109.373 46.9303 109.373 47.4379 109.373 47.9213C109.421 47.9213 109.446 47.9213 109.494 47.9213C109.981 47.9213 110.248 47.6554 110.248 47.1478C110.248 46.5193 110.005 46.4468 109.397 46.4468ZM109.421 48.1631H109.373V48.3806C109.373 48.9849 109.373 49.42 109.421 49.8793C109.3 49.8793 109.154 49.8551 108.959 49.8551C108.789 49.8551 108.643 49.8793 108.497 49.8793C108.521 49.3958 108.545 48.9849 108.545 48.3806V47.6313C108.545 47.0269 108.545 46.5918 108.497 46.1084C108.618 46.1326 108.764 46.1326 108.959 46.1326C109.154 46.1326 109.397 46.1084 109.762 46.1084C110.321 46.1084 110.516 46.1567 110.711 46.3018C110.93 46.471 111.076 46.6885 111.076 47.0269C111.076 47.5587 110.759 47.8972 110.224 48.0422C110.589 48.6707 111.003 49.275 111.392 49.9035C111.222 49.9035 111.051 49.8793 110.905 49.8793C110.735 49.8793 110.565 49.9035 110.419 49.9035L109.421 48.1631Z" fill="#8E8E8E"/>
<path d="M111.879 47.6552C111.879 47.0509 111.854 46.6158 111.83 46.1323C112.146 46.1323 112.487 46.1565 112.803 46.1565C113.339 46.1565 113.801 46.1565 113.947 46.1323C113.947 46.2048 113.923 46.2532 113.923 46.374C113.923 46.4949 113.947 46.5433 113.947 46.6158C113.533 46.5916 112.876 46.5433 112.706 46.5433C112.682 46.9542 112.682 47.3409 112.682 47.7277C113.168 47.7035 113.509 47.7035 113.923 47.6794C113.898 47.8002 113.898 47.8486 113.898 47.9211C113.898 47.9694 113.923 48.0419 113.923 48.1386C113.509 48.1145 113.095 48.0903 112.682 48.0903C112.682 48.3078 112.682 48.5496 112.682 48.7913C112.682 49.033 112.682 49.2506 112.706 49.4681C113.12 49.4681 113.533 49.4439 113.971 49.3956C113.971 49.4681 113.947 49.5165 113.947 49.6373C113.947 49.7582 113.971 49.8065 113.971 49.879C113.777 49.879 113.509 49.8549 113.022 49.8549C112.122 49.8549 111.976 49.879 111.854 49.879C111.879 49.3956 111.903 48.9847 111.903 48.3562V47.6552H111.879Z" fill="#8E8E8E"/>
<path d="M117.572 47.5585C117.743 47.4135 118.01 47.1476 118.01 46.8091C118.01 46.5674 117.816 46.4224 117.621 46.4224C117.402 46.4224 117.232 46.5674 117.232 46.8091C117.232 47.0267 117.378 47.3168 117.572 47.5585ZM117.451 49.5648C117.67 49.5648 117.889 49.4923 118.035 49.3473C117.694 48.9605 117.378 48.5496 117.061 48.1386C116.818 48.332 116.648 48.5254 116.648 48.7913C116.672 49.178 116.964 49.5648 117.451 49.5648ZM118.205 49.5406C117.889 49.8065 117.402 49.9757 116.964 49.9757C116.283 49.9757 115.918 49.5165 115.918 49.1055C115.918 48.5254 116.307 48.2353 116.915 47.9452C116.672 47.631 116.502 47.3409 116.502 47.0509C116.502 46.4224 117.037 46.1807 117.524 46.1807C118.035 46.1807 118.424 46.3982 118.424 46.8575C118.424 47.2201 118.205 47.486 117.718 47.776C118.01 48.1386 118.278 48.477 118.594 48.8155C118.789 48.5979 119.032 48.2353 119.251 47.7519C119.349 47.8727 119.446 47.9694 119.543 48.0661C119.3 48.4287 119.057 48.7188 118.789 49.0088C119.032 49.2747 119.349 49.6373 119.616 49.879C119.349 49.879 119.154 49.8549 118.935 49.8549C118.789 49.8549 118.643 49.879 118.473 49.879L118.205 49.5406Z" fill="#8E8E8E"/>
<path d="M122.147 47.4379C122.025 48.2597 121.976 49.0816 121.928 49.9276C121.83 49.9035 121.757 49.9035 121.66 49.9035C121.563 49.9035 121.49 49.9035 121.392 49.9276C121.611 48.6707 121.806 47.4137 121.952 46.1567C122.025 46.1809 122.098 46.1809 122.171 46.1809C122.244 46.1809 122.317 46.1567 122.39 46.1567C122.779 47.0269 123.266 47.9938 123.655 48.7674C124.093 47.9455 124.531 47.0269 124.945 46.1567C125.018 46.1809 125.115 46.1809 125.188 46.1809C125.261 46.1809 125.334 46.1567 125.431 46.1567C125.577 47.4137 125.772 49.1541 125.894 49.9276C125.748 49.9035 125.602 49.9035 125.456 49.9035C125.31 49.9035 125.164 49.9035 124.993 49.9276C124.945 49.1783 124.872 48.2356 124.774 47.3895C124.361 48.2356 123.947 49.0816 123.558 49.9276C123.534 49.9276 123.485 49.9276 123.461 49.9276C123.436 49.9276 123.388 49.9276 123.363 49.9276C122.95 49.0816 122.56 48.2597 122.147 47.4379Z" fill="#8E8E8E"/>
<path d="M126.526 47.6552C126.526 47.0509 126.502 46.6158 126.478 46.1323C126.794 46.1323 127.135 46.1565 127.451 46.1565C127.986 46.1565 128.449 46.1565 128.595 46.1323C128.595 46.2048 128.57 46.2532 128.57 46.374C128.57 46.4949 128.595 46.5433 128.595 46.6158C128.181 46.5916 127.524 46.5433 127.354 46.5433C127.329 46.9542 127.329 47.3409 127.329 47.7277C127.816 47.7035 128.157 47.7035 128.57 47.6794C128.546 47.8002 128.546 47.8486 128.546 47.9211C128.546 47.9694 128.57 48.0419 128.57 48.1386C128.157 48.1145 127.743 48.0903 127.329 48.0903C127.329 48.3078 127.329 48.5496 127.329 48.7913C127.329 49.033 127.329 49.2506 127.354 49.4681C127.767 49.4681 128.181 49.4439 128.619 49.3956C128.619 49.4681 128.595 49.5165 128.595 49.6373C128.595 49.7582 128.619 49.8065 128.619 49.879C128.424 49.879 128.157 49.8549 127.67 49.8549C126.77 49.8549 126.624 49.879 126.502 49.879C126.526 49.3956 126.551 48.9847 126.551 48.3562V47.6552H126.526Z" fill="#8E8E8E"/>
<path d="M130.152 48.5254C130.152 48.8155 130.152 49.4923 130.152 49.589C130.273 49.589 130.419 49.6132 130.638 49.6132C131.466 49.6132 131.977 49.0572 131.977 47.9211C131.977 47.0267 131.466 46.4707 130.711 46.4707C130.444 46.4707 130.298 46.4949 130.127 46.4949C130.127 46.5916 130.127 47.2684 130.127 47.5585V48.5254H130.152ZM129.325 47.6552C129.325 47.0509 129.3 46.6158 129.276 46.1323C129.398 46.1323 129.544 46.1565 129.738 46.1565C129.981 46.1565 130.249 46.1323 130.736 46.1323C132.001 46.1323 132.853 46.5191 132.853 47.8969C132.853 49.1055 131.977 49.879 130.955 49.879C130.395 49.879 130.03 49.8549 129.738 49.8549C129.568 49.8549 129.398 49.879 129.276 49.879C129.3 49.3956 129.325 48.9847 129.325 48.3562V47.6552Z" fill="#8E8E8E"/>
<path d="M133.631 47.6552C133.631 47.0509 133.631 46.6158 133.583 46.1323C133.704 46.1565 133.85 46.1565 134.02 46.1565C134.215 46.1565 134.361 46.1323 134.483 46.1323C134.458 46.6158 134.434 47.0267 134.434 47.6552V48.4045C134.434 49.0088 134.434 49.4439 134.483 49.9274C134.361 49.9032 134.215 49.9032 134.02 49.9032C133.85 49.9032 133.704 49.9274 133.583 49.9274C133.607 49.4439 133.631 49.033 133.631 48.4045V47.6552Z" fill="#8E8E8E"/>
<path d="M138.4 49.2747C138.351 49.4198 138.303 49.589 138.278 49.734C137.986 49.8791 137.597 49.9757 137.159 49.9757C135.894 49.9757 135.14 49.1781 135.14 48.1628C135.14 46.6641 136.162 46.084 137.33 46.084C137.719 46.084 138.205 46.2048 138.449 46.3499C138.376 46.5191 138.327 46.7125 138.327 46.9058H138.23C137.962 46.5674 137.67 46.4224 137.281 46.4224C136.697 46.4224 136.016 46.93 136.016 48.0903C136.016 49.2022 136.697 49.6615 137.33 49.6615C137.67 49.6615 138.084 49.4923 138.327 49.2506L138.4 49.2747Z" fill="#8E8E8E"/>
<path d="M140.614 48.4773C140.444 48.0422 140.298 47.6071 140.128 47.172C139.933 47.6071 139.763 48.018 139.617 48.4773H140.614ZM142.074 49.9035C141.904 49.8793 141.734 49.8793 141.588 49.8793C141.442 49.8793 141.271 49.9035 141.125 49.9035C141.004 49.5409 140.882 49.1541 140.736 48.7915C140.493 48.7915 140.274 48.7915 140.03 48.7915C139.836 48.7915 139.641 48.7915 139.471 48.7915C139.325 49.1541 139.203 49.5409 139.106 49.9035C139.009 49.8793 138.936 49.8793 138.838 49.8793C138.741 49.8793 138.668 49.9035 138.571 49.9035C138.838 49.2992 139.665 47.3654 140.128 46.1084C140.201 46.1084 140.274 46.1326 140.322 46.1326C140.395 46.1326 140.468 46.1084 140.541 46.1084C141.004 47.3654 141.661 49.0091 142.074 49.9035Z" fill="#8E8E8E"/>
<path d="M142.658 47.6552C142.658 47.0509 142.634 46.6158 142.61 46.1323C142.731 46.1565 142.877 46.1565 143.072 46.1565C143.267 46.1565 143.413 46.1323 143.534 46.1323C143.51 46.6158 143.486 47.0267 143.486 47.6552V48.4045C143.486 49.0088 143.486 49.4439 143.534 49.9274C143.413 49.9032 143.267 49.9032 143.072 49.9032C142.902 49.9032 142.731 49.9274 142.61 49.9274C142.634 49.4439 142.658 49.033 142.658 48.4045V47.6552Z" fill="#8E8E8E"/>
<path d="M145.286 48.5259C145.286 48.816 145.286 49.4928 145.286 49.5895C145.383 49.5895 145.554 49.6136 145.773 49.6136C146.6 49.6136 147.111 49.0577 147.111 47.9216C147.111 47.0272 146.6 46.4712 145.846 46.4712C145.578 46.4712 145.456 46.4954 145.286 46.4954C145.286 46.5921 145.286 47.2689 145.286 47.559V48.5259ZM144.459 47.6557C144.459 47.0514 144.459 46.6163 144.41 46.1328C144.532 46.1328 144.678 46.157 144.872 46.157C145.116 46.157 145.383 46.1328 145.87 46.1328C147.135 46.1328 147.987 46.5196 147.987 47.8974C147.987 49.106 147.111 49.8795 146.089 49.8795C145.529 49.8795 145.164 49.8554 144.872 49.8554C144.678 49.8554 144.532 49.8795 144.41 49.8795C144.434 49.3961 144.459 48.9852 144.459 48.3567V47.6557Z" fill="#8E8E8E"/>
<path d="M151.88 46.8819C151.758 46.5677 151.539 46.4226 151.223 46.4226C150.882 46.4226 150.639 46.6402 150.639 46.9061C150.639 47.7038 152.318 47.5104 152.318 48.7432C152.318 49.4684 151.734 49.976 150.858 49.976C150.469 49.976 150.128 49.8551 149.982 49.7343C150.055 49.4925 150.104 49.275 150.153 49.0333H150.25C150.298 49.3475 150.566 49.6134 151.004 49.6134C151.418 49.6134 151.637 49.3717 151.637 49.0574C151.637 48.2356 150.007 48.4531 150.007 47.2203C150.007 46.471 150.59 46.0601 151.247 46.0601C151.637 46.0601 151.929 46.1567 152.148 46.326C152.075 46.4952 152.05 46.616 151.977 46.8577H151.88V46.8819Z" fill="#8E8E8E"/>
<path d="M152.975 47.6552C152.975 47.0509 152.951 46.6158 152.926 46.1323C153.243 46.1323 153.583 46.1565 153.9 46.1565C154.435 46.1565 154.897 46.1565 155.043 46.1323C155.043 46.2048 155.019 46.2532 155.019 46.374C155.019 46.4949 155.043 46.5433 155.043 46.6158C154.629 46.5916 153.973 46.5433 153.802 46.5433C153.778 46.9542 153.778 47.3409 153.778 47.7277C154.265 47.7035 154.605 47.7035 155.019 47.6794C154.994 47.8002 154.994 47.8486 154.994 47.9211C154.994 47.9694 155.019 48.0419 155.019 48.1386C154.605 48.1145 154.192 48.0903 153.778 48.0903C153.778 48.3078 153.778 48.5496 153.778 48.7913C153.778 49.033 153.778 49.2506 153.802 49.4681C154.216 49.4681 154.629 49.4439 155.067 49.3956C155.067 49.4681 155.043 49.5165 155.043 49.6373C155.043 49.7582 155.067 49.8065 155.067 49.879C154.873 49.879 154.605 49.8549 154.119 49.8549C153.218 49.8549 153.072 49.879 152.951 49.879C152.975 49.3956 152.999 48.9847 152.999 48.3562V47.6552H152.975Z" fill="#8E8E8E"/>
<path d="M156.6 46.4468C156.576 46.9303 156.576 47.4379 156.576 47.9213C156.625 47.9213 156.649 47.9213 156.698 47.9213C157.184 47.9213 157.452 47.6554 157.452 47.1478C157.452 46.5193 157.184 46.4468 156.6 46.4468ZM156.625 48.1631H156.576V48.3806C156.576 48.9849 156.576 49.42 156.625 49.8793C156.503 49.8793 156.357 49.8551 156.163 49.8551C155.992 49.8551 155.846 49.8793 155.7 49.8793C155.725 49.3958 155.749 48.9849 155.749 48.3806V47.6313C155.749 47.0269 155.725 46.5918 155.7 46.1084C155.822 46.1326 155.968 46.1326 156.163 46.1326C156.357 46.1326 156.6 46.1084 156.965 46.1084C157.525 46.1084 157.72 46.1567 157.914 46.3018C158.133 46.471 158.279 46.6885 158.279 47.0269C158.279 47.5587 157.963 47.8972 157.428 48.0422C157.793 48.6707 158.206 49.275 158.596 49.9035C158.425 49.9035 158.279 49.8793 158.109 49.8793C157.939 49.8793 157.768 49.9035 157.622 49.9035L156.625 48.1631Z" fill="#8E8E8E"/>
<path d="M161.637 46.1323C161.71 46.1565 161.807 46.1565 161.88 46.1565C161.953 46.1565 162.051 46.1323 162.124 46.1323C161.759 46.9784 161.053 48.6463 160.615 49.9032C160.542 49.9032 160.445 49.879 160.372 49.879C160.299 49.879 160.202 49.9032 160.129 49.9032C159.788 48.9605 159.009 46.9784 158.644 46.1323C158.815 46.1565 158.985 46.1565 159.131 46.1565C159.277 46.1565 159.447 46.1323 159.618 46.1323C159.861 46.9542 160.25 47.9694 160.591 48.8638C160.98 47.9694 161.345 46.9784 161.637 46.1323Z" fill="#8E8E8E"/>
<path d="M162.708 47.6557C162.708 47.0514 162.683 46.6163 162.659 46.1328C162.781 46.157 162.927 46.157 163.121 46.157C163.316 46.157 163.438 46.1328 163.584 46.1328C163.559 46.6163 163.535 47.0272 163.535 47.6557V48.405C163.535 49.0093 163.535 49.4444 163.584 49.9279C163.462 49.9037 163.316 49.9037 163.121 49.9037C162.951 49.9037 162.781 49.9279 162.659 49.9279C162.683 49.4444 162.708 49.0335 162.708 48.405V47.6557Z" fill="#8E8E8E"/>
<path d="M167.477 49.2752C167.428 49.4203 167.379 49.5895 167.355 49.7345C167.063 49.8795 166.674 49.9762 166.236 49.9762C164.97 49.9762 164.216 49.1785 164.216 48.1633C164.216 46.6646 165.238 46.0845 166.406 46.0845C166.795 46.0845 167.282 46.2053 167.525 46.3504C167.452 46.5196 167.428 46.713 167.404 46.9063H167.331C167.063 46.5679 166.771 46.4229 166.382 46.4229C165.798 46.4229 165.141 46.9305 165.141 48.0908C165.141 49.2027 165.798 49.662 166.43 49.662C166.771 49.662 167.185 49.4928 167.428 49.2511L167.477 49.2752Z" fill="#8E8E8E"/>
<path d="M168.134 47.6557C168.134 47.0514 168.109 46.6163 168.085 46.1328C168.401 46.1328 168.742 46.157 169.058 46.157C169.594 46.157 170.056 46.157 170.202 46.1328C170.177 46.2053 170.177 46.2537 170.177 46.3745C170.177 46.4954 170.202 46.5437 170.202 46.6163C169.788 46.5921 169.131 46.5437 168.961 46.5437C168.937 46.9547 168.937 47.3414 168.937 47.7282C169.423 47.704 169.764 47.704 170.177 47.6799C170.153 47.8007 170.153 47.8491 170.153 47.9216C170.153 47.9699 170.153 48.0424 170.177 48.1391C169.764 48.115 169.35 48.0908 168.937 48.0908C168.937 48.3083 168.937 48.5501 168.937 48.7918C168.937 49.0335 168.937 49.2511 168.961 49.4686C169.375 49.4686 169.788 49.4444 170.226 49.3961C170.202 49.4686 170.202 49.517 170.202 49.6378C170.202 49.7587 170.226 49.807 170.226 49.8795C170.031 49.8795 169.764 49.8554 169.253 49.8554C168.353 49.8554 168.207 49.8795 168.085 49.8795C168.109 49.3961 168.134 48.9852 168.134 48.3567V47.6557Z" fill="#8E8E8E"/>
<path d="M172.538 46.8819C172.416 46.5677 172.197 46.4226 171.881 46.4226C171.54 46.4226 171.321 46.6402 171.321 46.9061C171.321 47.7038 173 47.5104 173 48.7432C173 49.4684 172.416 49.976 171.54 49.976C171.151 49.976 170.81 49.8551 170.664 49.7343C170.737 49.4925 170.786 49.275 170.834 49.0333H170.932C170.98 49.3475 171.248 49.6134 171.686 49.6134C172.124 49.6134 172.319 49.3717 172.319 49.0574C172.319 48.2356 170.688 48.4531 170.688 47.2203C170.688 46.471 171.272 46.0601 171.929 46.0601C172.319 46.0601 172.611 46.1567 172.83 46.326C172.757 46.4952 172.732 46.616 172.659 46.8577H172.538V46.8819Z" fill="#8E8E8E"/>
</svg>
