<svg width="200" height="42" viewBox="0 0 200 42" fill="none" xmlns="http://www.w3.org/2000/svg">
<path d="M200 36.148C200 39.2259 197.503 41.7221 194.425 41.7221C191.348 41.7221 188.851 39.2259 188.851 36.148C188.851 33.0688 191.348 30.5729 194.425 30.5729C197.503 30.5729 200 33.0688 200 36.148ZM191.328 20.6389C191.328 23.143 189.299 25.1693 186.796 25.1693C184.293 25.1693 182.266 23.143 182.266 20.6389C182.266 18.1366 184.293 16.1071 186.796 16.1071C189.299 16.1071 191.328 18.1369 191.328 20.6389ZM178.257 9.07914C178.257 11.2684 176.481 13.0429 174.292 13.0429C172.102 13.0429 170.328 11.2684 170.328 9.07914C170.328 6.88865 172.102 5.11286 174.292 5.11286C176.481 5.11286 178.257 6.88833 178.257 9.07914ZM162.695 3.96629C162.695 6.15678 160.92 7.93098 158.732 7.93098C156.539 7.93098 154.765 6.15678 154.765 3.96629C154.765 1.77547 156.539 0 158.732 0C160.92 0 162.695 1.77547 162.695 3.96629ZM146.506 5.70447C146.506 7.7375 144.857 9.38515 142.824 9.38515C140.79 9.38515 139.14 7.7375 139.14 5.70447C139.14 3.67144 140.79 2.02187 142.824 2.02187C144.857 2.02187 146.506 3.67144 146.506 5.70447ZM116.302 27.5208V29.6845H111.265V40.7508H108.295V29.6845H103.257V27.5208H116.302ZM123.377 35.1254C123.212 33.4589 121.966 32.8539 120.445 32.8539C119.071 32.8539 117.697 33.5501 117.532 35.1254H123.377ZM117.532 36.7765C117.532 38.6993 119.126 39.4503 120.703 39.4503C121.527 39.4503 122.755 39.157 123.047 38.2772H126.018C125.741 40.5669 122.518 41.1002 120.63 41.1002C115.956 41.1002 114.638 38.6811 114.638 36.1521C114.638 33.6244 115.956 31.2034 120.63 31.2034C123.287 31.2034 126.273 32.3774 126.273 36.2072V36.7762L117.532 36.7765ZM131.058 40.7511H128.271V27.5214H131.058V40.7511ZM140.754 34.7773C140.662 33.5504 139.783 32.8546 138.536 32.8546C137.071 32.8546 135.843 33.8982 135.843 36.1888C135.843 37.9665 136.538 39.4496 138.5 39.4496C139.802 39.4496 140.681 38.8459 140.826 37.5447H143.723C143.686 39.9635 141.247 41.1005 138.518 41.1005C135.017 41.1005 132.948 39.3228 132.948 36.1527C132.948 32.9266 135.163 31.2037 138.427 31.2037C142.073 31.2037 143.52 32.7981 143.65 34.7773H140.754ZM148.09 36.1524C148.09 37.9492 149.079 39.34 151.186 39.34C153.293 39.34 154.283 37.9492 154.283 36.1524C154.283 34.3565 153.293 32.9633 151.186 32.9633C149.079 32.9633 148.09 34.3562 148.09 36.1524ZM157.177 36.1524C157.177 38.6814 155.858 41.1002 151.186 41.1002C146.514 41.1002 145.195 38.6814 145.195 36.1524C145.195 33.6247 146.514 31.2034 151.186 31.2034C155.858 31.2034 157.177 33.6244 157.177 36.1524ZM158.867 33.8067C158.867 33.1287 158.829 32.2301 158.792 31.5531H161.469C161.506 32.0481 161.542 32.5237 161.542 33.0184C162.659 31.7555 163.776 31.2034 165.37 31.2034C167.131 31.2034 168.541 31.92 169.292 33.239C170.299 31.6994 171.84 31.2034 173.342 31.2034C175.082 31.2034 177.703 31.92 177.703 35.3641V40.7505H174.917V35.8761C174.917 33.6046 173.873 33.0751 172.534 33.0751C171.089 33.0751 169.678 34.0815 169.678 36.3169V40.7508H166.893V35.8761C166.893 33.6046 165.848 33.0751 164.512 33.0751C163.062 33.0751 161.652 34.0815 161.652 36.3169V40.7508H158.866L158.867 33.8067ZM0 27.5208H2.96858V32.9084H10.1699V27.5208H13.1388V40.7508H10.1699V35.0706H2.96858V40.7508H0V27.5208ZM21.2866 36.556C19.177 36.556 17.9862 36.9958 17.9862 38.0943C17.9862 38.7171 18.4987 39.5596 20.0931 39.5596C21.4686 39.5596 23.5376 38.7554 23.5759 36.556H21.2866ZM26.3612 39.0104C26.3612 39.6144 26.3771 40.1286 26.4323 40.7502H23.8685C23.8172 40.3313 23.7927 39.9096 23.7952 39.4876C22.6413 40.6415 21.2123 41.1011 19.4355 41.1011C16.2094 41.1011 15.0906 39.5966 15.0906 38.2776C15.0906 35.4011 17.8399 34.9051 21.3586 34.9051H23.5759C23.5759 33.2756 22.421 32.8539 21.029 32.8539C19.6727 32.8539 18.9035 33.4219 18.7913 34.136H15.898C16.1734 31.7733 18.719 31.2034 21.101 31.2034C23.6849 31.2034 26.3615 31.9375 26.3615 35.1614L26.3612 39.0104ZM39.6406 31.5534L42.7016 38.406L45.615 31.5534H48.5097L44.186 40.7505H40.9411L37.8463 33.7146L34.7483 40.7505H31.5085L27.2005 31.5537H30.3345L33.2648 38.4063L36.2515 31.5537L39.6406 31.5534ZM54.9336 36.556C52.8266 36.556 51.6331 36.9958 51.6331 38.0943C51.6331 38.7171 52.147 39.5596 53.7404 39.5596C55.1159 39.5596 57.1849 38.7554 57.2232 36.556H54.9336ZM60.0085 39.0104C60.0085 39.6144 60.0241 40.1286 60.0792 40.7502H57.5155C57.4642 40.3313 57.4397 39.9096 57.4422 39.4876C56.2899 40.6415 54.8593 41.1011 53.0816 41.1011C49.8564 41.1011 48.7376 39.5966 48.7376 38.2776C48.7376 35.4011 51.4881 34.9051 55.0056 34.9051H57.2232C57.2232 33.2756 56.0683 32.8539 54.6763 32.8539C53.32 32.8539 52.5518 33.4219 52.4418 34.136H49.545C49.8204 31.7733 52.3676 31.2034 54.7503 31.2034C57.3332 31.2034 60.0085 31.9375 60.0085 35.1614V39.0104ZM65.2463 40.7511H62.461V31.5537H65.2463V40.7511ZM62.316 27.5214H65.3926V29.7578H62.316V27.5214ZM70.8386 40.7511H68.0542V31.5537H70.8386V40.7511ZM67.9079 27.5214H70.9858V29.7578H67.9079V27.5214ZM78.9943 36.556C76.8866 36.556 75.6958 36.9958 75.6958 38.0943C75.6958 38.7171 76.2086 39.5596 77.8021 39.5596C79.1759 39.5596 81.2475 38.7554 81.2845 36.556H78.9943ZM84.0701 39.0104C84.0701 39.6144 84.087 40.1286 84.1431 40.7502H81.5781C81.522 40.3297 81.5038 39.908 81.5038 39.4876C80.349 40.6415 78.9219 41.1011 77.1442 41.1011C73.9168 41.1011 72.8002 39.5966 72.8002 38.2776C72.8002 35.4011 75.5498 34.9051 79.0669 34.9051H81.2845C81.2845 33.2756 80.1297 32.8539 78.7367 32.8539C77.3817 32.8539 76.6112 33.4219 76.5009 34.136H73.6066C73.8808 31.7733 76.4279 31.2034 78.8119 31.2034C81.3961 31.2034 84.0701 31.9375 84.0701 35.1614V39.0104ZM86.3362 33.7331C86.3362 32.9266 86.3002 32.1396 86.2619 31.5537H88.9372C88.9755 32.0656 89.0115 32.5604 89.0115 33.0742H89.0475C89.9818 31.773 91.2447 31.2031 92.9316 31.2031C94.5811 31.2031 97.1462 32.1039 97.1462 35.0881V40.7511H94.3618V35.8764C94.3618 33.6049 93.3182 33.0742 91.9791 33.0742C90.532 33.0742 89.1215 34.0815 89.1215 36.3159V40.7511H86.3362V33.7331Z" fill="#8E8E8E"/>
</svg>
