<svg width="200" height="50" viewBox="0 0 200 50" fill="none" xmlns="http://www.w3.org/2000/svg">
<g clip-path="url(#clip0_40_649)">
<path d="M142.461 46.3737C142.461 46.2663 142.397 46.21 142.262 46.21H142.005C141.991 46.21 141.985 46.2164 141.985 46.233V46.5209C141.985 46.5336 141.991 46.5439 142.007 46.5439H142.262C142.398 46.5439 142.461 46.4812 142.461 46.3737ZM141.809 47.2155C141.786 47.2155 141.769 47.2052 141.769 47.1771V46.0578C141.769 46.0296 141.786 46.0194 141.807 46.0194H142.262C142.524 46.0194 142.677 46.1486 142.677 46.3737C142.68 46.4476 142.658 46.5203 142.615 46.5806C142.572 46.6409 142.51 46.6855 142.439 46.7076L142.684 47.1771C142.694 47.1988 142.684 47.2155 142.66 47.2155H142.501C142.478 47.2155 142.461 47.2052 142.45 47.1771L142.222 46.7358H142.007C141.991 46.7358 141.985 46.7409 141.985 46.7588V47.1771C141.985 47.2052 141.968 47.2155 141.945 47.2155H141.809ZM143.08 46.6232C143.084 46.5053 143.064 46.3878 143.021 46.278C142.977 46.1682 142.912 46.0683 142.828 45.9846C142.745 45.9009 142.645 45.835 142.535 45.791C142.425 45.7471 142.307 45.726 142.189 45.729C142.07 45.726 141.952 45.7471 141.842 45.7912C141.732 45.8352 141.632 45.9012 141.549 45.985C141.465 46.0689 141.4 46.1689 141.357 46.2789C141.314 46.3888 141.293 46.5064 141.297 46.6245C141.294 46.7425 141.314 46.86 141.358 46.9698C141.401 47.0797 141.466 47.1796 141.55 47.2635C141.633 47.3474 141.733 47.4135 141.843 47.4578C141.953 47.5021 142.07 47.5237 142.189 47.5212C142.7 47.5212 143.08 47.1374 143.08 46.6232ZM141.105 46.6232C141.102 46.4807 141.129 46.3393 141.182 46.2072C141.236 46.0751 141.316 45.9551 141.417 45.8544C141.518 45.7536 141.639 45.6742 141.771 45.6208C141.904 45.5674 142.046 45.5411 142.189 45.5435C142.332 45.5406 142.474 45.5665 142.607 45.6197C142.74 45.6729 142.861 45.7523 142.962 45.8532C143.064 45.954 143.143 46.0742 143.197 46.2065C143.25 46.3389 143.276 46.4806 143.273 46.6232C143.277 46.7662 143.251 46.9084 143.198 47.0412C143.145 47.1741 143.065 47.2948 142.964 47.3962C142.862 47.4975 142.742 47.5774 142.608 47.631C142.475 47.6846 142.333 47.7108 142.189 47.708C142.045 47.7104 141.903 47.684 141.77 47.6303C141.637 47.5766 141.516 47.4967 141.415 47.3954C141.314 47.2941 141.234 47.1735 141.181 47.0408C141.127 46.9081 141.102 46.7661 141.105 46.6232ZM25.6767 14.2909V30.8184C25.6767 31.5488 25.6767 32.5965 24.6786 32.5965H21.896V25.1169H13.7808V30.8184C13.7808 31.5501 13.8334 32.5965 12.8352 32.5965H10V16.0703C10 15.3386 10 14.2922 10.9982 14.2922H13.7808V22.1632H21.896V16.0703C21.896 15.3642 21.842 14.2922 22.8402 14.2922L25.6767 14.2909ZM39.3314 24.6206L36.7313 16.9325L33.0545 27.1048L33.2126 27.1304C33.711 26.2158 34.9212 24.6206 37.046 24.6206H39.3314ZM45.3449 32.5965H42.0356L40.3026 27.4963H33.0828L31.82 31.2623C31.6119 31.8635 31.3215 32.5965 30.3773 32.5965H27.6191L33.5286 15.8081C33.738 15.2324 34.027 14.2922 35.0239 14.2922H39.5151L45.765 31.994C45.896 32.3611 45.7136 32.5965 45.3449 32.5965ZM71.2629 14.2909L65.2237 31.261C65.0927 31.6537 64.8551 32.5952 63.9095 32.5952H61.5997L58.1594 22.8412L55.0865 31.261C54.9555 31.6537 54.7191 32.5952 53.7736 32.5952H51.2531L45.0032 14.8921C44.8722 14.5263 45.0546 14.2909 45.4233 14.2909H48.7583L53.2751 27.9402L56.5304 18.2399L55.3486 14.8921C55.2175 14.5263 55.4025 14.2909 55.7699 14.2909H59.1306L63.3058 27.5743L66.9542 15.6239C67.1405 15.0226 67.4552 14.2909 68.375 14.2909H71.2629ZM81.792 24.6206L79.1932 16.9325L75.5165 27.1048L75.6732 27.1304C76.1729 26.2158 77.3805 24.6206 79.5079 24.6206H81.792ZM87.8043 32.5965H84.4963L82.762 27.4963H75.5422L74.2819 31.2623C74.0725 31.8635 73.7834 32.5965 72.8379 32.5965H70.0798L75.9892 15.8081C76.1986 15.2324 76.4877 14.2922 77.4859 14.2922H81.9757L88.2256 31.994C88.3567 32.3611 88.1729 32.5952 87.8055 32.5952M90.3787 16.069C90.3787 15.3373 90.3787 14.2909 91.2703 14.2909H94.1608V30.8184C94.1608 31.5501 94.1608 32.5965 93.2653 32.5965H90.3774L90.3787 16.069ZM98.0456 16.069C98.0456 15.3373 98.0456 14.2909 98.9384 14.2909H101.826V30.8184C101.826 31.5501 101.826 32.5965 100.934 32.5965H98.0456V16.069ZM115.481 24.6206L112.882 16.9325L109.205 27.1048L109.362 27.1304C109.863 26.2158 111.071 24.6206 113.196 24.6206H115.481ZM121.494 32.5965H118.185L116.452 27.4963H109.232L107.971 31.2623C107.76 31.8635 107.471 32.5965 106.527 32.5965H103.769L109.678 15.8081C109.888 15.2324 110.177 14.2922 111.175 14.2922H115.665L121.915 31.994C122.047 32.3611 121.863 32.5965 121.494 32.5965ZM139.98 14.2909V30.8184C139.98 31.5488 139.979 32.5965 139.088 32.5965H136.724L127.743 20.4887V30.8184C127.743 31.5501 127.743 32.5965 126.772 32.5965H124.068V16.0703C124.068 15.3386 124.068 14.2922 124.961 14.2922H127.427L136.304 26.6341V16.0703C136.304 15.3386 136.147 14.2922 137.171 14.2922L139.98 14.2909ZM79.0966 44.4639L77.6488 40.3051H77.6231L76.1625 44.4626L79.0966 44.4639ZM77.0412 38.6767C77.0669 38.5948 77.108 38.5424 77.2031 38.5424H78.0817C78.1768 38.5424 78.2295 38.5935 78.2578 38.6767L81.4077 47.5596C81.4334 47.6402 81.3949 47.6939 81.3127 47.6939H80.3659C80.2708 47.6939 80.2169 47.6542 80.1899 47.5596L79.4872 45.5678H75.7707L75.0666 47.5596C75.0281 47.6542 74.9729 47.6939 74.892 47.6939H73.9452C73.8642 47.6939 73.8231 47.6402 73.8501 47.5596L77.0412 38.6767ZM84.2867 38.6767C84.2867 38.5961 84.3419 38.5424 84.4228 38.5424H85.3555C85.4364 38.5424 85.4904 38.5961 85.4904 38.6767V47.5596C85.4904 47.6414 85.4364 47.6952 85.3555 47.6952H84.4228C84.3419 47.6952 84.288 47.6414 84.288 47.5596L84.2867 38.6767ZM94.7913 41.1801C94.7913 40.2245 94.1567 39.6579 93.0879 39.6579H90.9387C90.8847 39.6579 90.8577 39.686 90.8577 39.7397V42.6205C90.8577 42.6742 90.8834 42.7011 90.9387 42.7011H93.0879C94.1567 42.7011 94.7913 42.137 94.7913 41.1801ZM94.9802 47.6939C94.8864 47.6939 94.8453 47.6542 94.8042 47.5609L92.9659 43.8191H90.9387C90.8847 43.8191 90.8577 43.8447 90.8577 43.8985V47.5609C90.8577 47.6402 90.8038 47.6939 90.7228 47.6939H89.7902C89.7092 47.6939 89.6553 47.6402 89.6553 47.5609V38.6767C89.6553 38.5961 89.7092 38.5424 89.7902 38.5424H93.1149C94.8312 38.5424 95.9925 39.5913 95.9925 41.1801C95.9925 42.4184 95.2924 43.3202 94.1837 43.6695L96.1428 47.5327C96.1981 47.6133 96.1557 47.6939 96.0619 47.6939H94.9802ZM99.6178 38.6767C99.6178 38.5961 99.6705 38.5424 99.7527 38.5424H100.685C100.766 38.5424 100.82 38.5961 100.82 38.6767V46.4965C100.82 46.5503 100.847 46.5784 100.901 46.5784H105.282C105.363 46.5784 105.417 46.6296 105.417 46.7127V47.5596C105.417 47.6414 105.363 47.6952 105.281 47.6952H99.7527C99.6705 47.6952 99.6178 47.6414 99.6178 47.5596V38.6767ZM108.108 38.6767C108.108 38.5961 108.162 38.5424 108.243 38.5424H109.176C109.257 38.5424 109.311 38.5961 109.311 38.6767V47.5596C109.311 47.6414 109.257 47.6952 109.176 47.6952H108.243C108.162 47.6952 108.108 47.6414 108.108 47.5596V38.6767ZM113.474 38.6767C113.474 38.5961 113.529 38.5424 113.61 38.5424H114.475C114.584 38.5424 114.651 38.5705 114.706 38.6767L118.868 45.5423H118.922V38.6767C118.922 38.5961 118.976 38.5424 119.057 38.5424H119.909C119.99 38.5424 120.045 38.5961 120.045 38.6767V47.5596C120.045 47.6414 119.99 47.6952 119.909 47.6952H119.044C118.949 47.6952 118.868 47.667 118.813 47.5596L114.638 40.7234H114.597V47.5596C114.597 47.6414 114.543 47.6952 114.462 47.6952H113.61C113.529 47.6952 113.475 47.6414 113.475 47.5596L113.474 38.6767ZM124.209 38.6767C124.209 38.5961 124.263 38.5424 124.344 38.5424H129.872C129.954 38.5424 130.008 38.5961 130.008 38.6767V39.5248C130.008 39.6054 129.954 39.6591 129.872 39.6591H125.492C125.441 39.6591 125.411 39.6847 125.411 39.7397V42.4312C125.411 42.4862 125.44 42.5118 125.492 42.5118H129.21C129.292 42.5118 129.345 42.5668 129.345 42.6474V43.4955C129.345 43.5761 129.294 43.6298 129.21 43.6298H125.492C125.441 43.6298 125.411 43.6554 125.411 43.7104V46.4965C125.411 46.5503 125.44 46.5784 125.492 46.5784H129.873C129.954 46.5784 130.008 46.6296 130.008 46.7127V47.5596C130.008 47.6414 129.954 47.6952 129.872 47.6952H124.344C124.263 47.6952 124.209 47.6414 124.209 47.5596V38.6767ZM133.065 46.6974C133.037 46.6721 133.02 46.637 133.018 46.5996C133.016 46.5621 133.028 46.5251 133.052 46.4965L133.645 45.7955C133.7 45.7303 133.767 45.7303 133.834 45.7827C134.43 46.2548 135.349 46.7255 136.403 46.7255C137.675 46.7255 138.43 46.0923 138.43 45.1649C138.43 44.3846 137.984 43.8575 136.511 43.6695L136.051 43.6017C134.266 43.3612 133.348 42.5131 133.348 41.0727C133.348 39.4429 134.523 38.3927 136.349 38.3927C137.431 38.3927 138.471 38.7445 139.147 39.2421C139.215 39.2958 139.228 39.3636 139.174 39.4314L138.714 40.1695C138.66 40.2386 138.592 40.2386 138.525 40.1977C137.781 39.7397 137.093 39.5107 136.308 39.5107C135.186 39.5107 134.564 40.1145 134.564 40.9908C134.564 41.7583 135.078 42.27 136.497 42.4593L136.942 42.5259C138.741 42.7689 139.647 43.5902 139.647 45.0843C139.647 46.6859 138.511 47.8423 136.295 47.8423C134.997 47.8423 133.74 47.3178 133.064 46.6987" fill="#8E8E8E"/>
<path d="M147.001 20.4227C147.001 30.4988 154.217 38.8705 163.709 40.5418C163.646 41.1991 163.553 41.8532 163.43 42.502C162.778 45.7269 160.57 48.6919 159.374 49.395C162.569 49.1185 165.108 48.1633 166.621 46.6655H166.617C166.511 46.6664 165.511 46.6542 165.423 46.6525C166.027 46.4204 166.623 46.136 167.202 45.8028L167.203 45.8019L167.204 45.7967L167.207 45.7993C167.427 43.9203 167.359 41.6767 166.863 38.9368C166.218 35.3629 164.87 34.18 164.678 33.9419C164.666 33.9262 164.653 33.9131 164.659 33.8974C164.663 33.8843 164.698 33.8695 164.71 33.8616C165.836 33.1568 166.82 32.3063 167.281 31.9137C167.634 31.6128 167.495 31.4776 167.142 31.6398C166.198 32.0725 164.622 32.6247 162.625 32.8724C160.87 33.0888 158.789 33.0626 156.525 32.6238C156.525 32.6238 154.94 32.39 155.174 30.7762C155.238 30.3244 155.466 29.8612 155.647 29.4119C155.705 29.2706 155.856 28.8327 155.774 28.4785C155.754 28.3896 155.642 28.2264 155.575 28.1253C155.459 27.9464 155.417 27.6996 155.538 27.4108C155.641 27.1675 156.058 26.8098 156.646 26.7531C156.935 26.7261 157.256 26.7278 157.577 26.7313C157.994 26.7348 158.413 26.7383 158.771 26.6746C159.69 26.5123 160.24 25.8886 160.132 25.6845C160.058 25.5484 159.238 25.7133 158.959 25.7691C158.549 25.8511 157.803 25.5188 157.412 25.3923C156.805 25.1943 156.489 25.0364 155.963 25.2606C155.636 25.401 155.377 26.0613 155.285 25.7543C155.243 25.6121 155.323 25.4568 155.437 25.2894C155.543 25.1315 155.757 24.834 155.787 24.6648C155.82 24.4746 155.866 24.2042 155.337 23.83C154.962 23.5639 154.704 23.3493 154.545 23.1871C154.038 22.6768 153.95 22.1473 154.923 21.3194C155.616 20.7289 157.149 19.1465 157.616 18.1799C157.689 18.0282 158.06 17.4237 157.653 16.8183C157.34 16.3524 157.283 16.2626 157.201 16.1038C156.976 15.6694 157.137 15.283 157.507 14.7046C157.687 14.422 157.829 14.0792 158.215 12.871C158.631 11.5479 159.338 10.335 160.285 9.32154H160.283C160.348 9.1244 160.46 7.56906 161.367 6.11927C161.697 5.48583 162.11 4.89938 162.596 4.3755C162.959 3.98557 163.529 3.53283 164.281 3.09667C165.033 2.66051 165.964 2.24093 167.047 1.91817C168.348 1.52999 169.866 1.27963 171.552 1.30493C172.812 1.32325 174.011 1.4227 175.437 1.80478L175.44 1.80564C175.446 1.80739 175.506 1.8231 175.61 1.85363C172.975 0.629662 170.104 -0.00301935 167.198 -4.97307e-05C156.044 -4.97307e-05 147.001 9.14272 147.001 20.4227ZM155.063 22.9384C155.037 23.0056 155.1 23.0396 155.178 23.0771C155.551 23.2507 155.724 23.3397 156.395 23.7419C157.179 24.212 157.52 23.823 157.687 23.5229C157.734 23.4418 157.804 23.1085 157.727 22.9908C157.651 22.873 157.507 22.9489 157.355 23.0972C157.184 23.2638 156.767 23.174 156.628 23.1591C156.49 23.1434 155.849 22.9821 155.432 22.8948C155.369 22.8805 155.304 22.8729 155.239 22.8721C155.132 22.8721 155.077 22.9009 155.063 22.9384Z" fill="url(#paint0_linear_40_649)"/>
<path d="M164.243 13.4998C164.142 13.4693 161.466 12.8822 160.579 12.9407C159.693 12.9974 158.929 13.5147 158.462 14.0476C158.251 14.2803 158.109 14.5669 158.051 14.8755C158.012 15.3029 158.319 15.5062 158.681 15.3901C158.945 15.3064 159.139 15.118 159.412 14.7124C159.579 14.4629 159.681 14.1454 159.939 13.9822C160.365 13.7118 161.098 13.6446 162.294 13.676C163.21 13.7005 163.949 13.7458 164.129 13.7537C164.463 13.7685 164.387 13.5443 164.243 13.4998Z" fill="#8E8E8E"/>
<path d="M162.696 15.9837C162.196 15.6879 161.523 15.7045 161.391 15.6801C161.26 15.6557 161.234 15.5231 161.432 15.4271C161.703 15.2945 162.21 15.4045 162.228 15.319C162.245 15.2448 162.129 15.0555 161.744 14.909C161.536 14.8287 161.142 14.7755 160.855 14.8052C160.033 14.8924 159.595 15.4027 159.503 15.4969C159.41 15.5903 159.271 15.7324 159.235 15.9479C159.187 16.234 159.37 16.4547 159.545 16.7382C159.634 16.8813 159.712 16.986 159.741 17.0941C159.782 17.2485 159.755 17.3122 159.627 17.4117C159.483 17.5251 159.567 17.7222 159.857 17.6419C160.184 17.5495 160.363 17.457 160.61 17.2494C160.962 16.9528 160.956 16.7627 161.203 16.5167C161.448 16.2707 162.223 16.2724 162.621 16.3282C163.09 16.3937 163.197 16.2785 162.695 15.9837" fill="#8E8E8E"/>
<path d="M187.605 19.798C187.597 18.889 187.341 17.0746 187.3 16.6768C187.189 15.5777 186.925 14.0485 186.081 11.9358C185.16 9.63373 184.415 8.00947 182.161 5.78593C179.506 3.16722 176.377 2.08206 175.621 1.857C175.51 1.82298 175.447 1.80727 175.44 1.80553L175.438 1.80466C174.011 1.42259 172.812 1.32313 171.553 1.30481C167.055 1.23764 163.754 3.12709 162.597 4.37538C162.111 4.89898 161.697 5.48548 161.367 6.11915C160.461 7.56895 160.349 9.12429 160.283 9.32231L160.286 9.31969C160.356 9.25862 161.436 8.06443 162.655 7.7059C162.955 8.19527 163.577 8.86346 164.826 9.502C166.102 10.1545 167.505 10.5165 167.505 10.5165C167.505 10.5165 169.258 11.0198 171.032 11.6549C172.448 12.1617 173.923 13.9979 173.923 14.3765C173.923 15.1599 173.154 15.8909 172.393 18.2714C171.58 20.816 171.296 23.2175 171.562 26.0324C171.562 26.0359 171.562 26.0403 171.563 26.0438C171.563 26.0508 171.563 26.0586 171.565 26.0656C171.727 27.7509 172.086 29.5854 172.647 31.6877C173.102 33.3931 173.249 35.0906 173.189 36.7175C172.796 40.8968 170.258 44.0397 167.208 45.8001L167.204 45.7966V45.8018C166.633 46.131 166.038 46.4154 165.423 46.6523C165.821 46.6587 166.219 46.6628 166.617 46.6646C169.178 46.6349 172.802 46.1403 175.908 42.8848C176.98 41.7612 177.82 40.5862 178.35 39.4784C178.567 39.0152 179.491 37.3709 180.014 34.1066C180.082 33.6705 180.313 32.2678 180.313 32.2678C180.313 32.2678 180.458 33.2666 180.476 34.1581C180.499 35.3811 180.545 36.9181 179.818 39.249C180.065 39.1949 181.275 38.2938 182.708 36.3537C183.232 35.6454 183.715 34.9057 184.156 34.1424C186.215 30.9192 187.677 27.0784 187.605 19.798Z" fill="#8E8E8E"/>
<path d="M176.492 12.6622C176.478 12.8018 176.527 12.8524 176.653 12.7503C177.212 12.3011 178.136 11.6137 179.397 11.3878C180.904 11.1182 181.758 10.382 182.151 9.54892C182.387 9.04821 182.577 8.14798 183.312 7.60888C183.545 7.43704 183.306 7.37597 183.112 7.41174C182.929 7.44489 181.933 7.71357 181.284 8.42363C180.853 7.9613 180.884 7.32712 180.945 6.95987C180.973 6.85083 180.888 6.77233 180.743 6.89097C180.249 7.28874 179.919 7.81563 179.812 8.19596C179.812 8.19596 179.419 7.91332 179.621 7.20238C179.656 7.08374 179.573 7.12824 179.53 7.15877C178.821 7.67606 178.882 8.4498 178.876 8.55448C178.876 8.55448 178.161 8.15757 177.063 8.00665C176.873 7.27652 175.703 7.08462 175.511 7.83307C175.338 8.51174 176.467 9.02815 176.946 8.46463C176.946 8.46463 178.492 8.62688 179.865 10.0008C180.005 10.1404 180.05 10.252 179.964 10.3323C179.9 10.3916 179.702 10.2712 179.46 10.1037C179.188 9.91442 177.318 8.70975 175.701 9.53758C175.619 9.57945 175.613 9.65099 175.689 9.66843C175.995 9.75654 176.675 9.99118 176.846 10.4361C176.414 10.5495 175.723 10.812 175.226 11.8344C175.097 12.0996 175.265 12.1362 175.405 12.028C175.573 11.9007 176.583 11.3485 176.96 11.3878C176.96 11.3878 176.618 11.8885 176.492 12.6622ZM189.388 4.95704C189.325 5.47432 189.485 6.93022 189.883 8.2858C190.302 9.71728 189.558 10.9813 188.272 11.7236C187.869 11.099 187.057 10.7867 186.335 10.7606C185.911 10.7449 186.027 10.9176 186.236 11.0048C189.23 12.2583 188.174 15.7502 187.788 16.4917C187.392 17.248 187.487 18.2477 187.487 18.2477C186.556 17.9755 185.702 18.1552 184.951 18.2739C183.463 18.5103 182.473 18.2459 181.699 17.8918C181.084 17.61 180.116 16.9697 179.969 15.7467C179.941 15.5234 179.797 15.369 179.709 15.7834C179.559 16.4908 179.664 17.3544 180.171 17.8979C179.617 20.6239 174.268 20.425 174.268 20.425C173.913 19.2482 171.482 18.8906 170.933 17.18C170.672 16.3687 170.885 15.5226 170.885 15.5226C172.284 15.8584 173.093 15.185 173.547 14.6206C173.811 14.2908 173.6 14.276 173.412 14.3964C171.641 15.5156 169.992 14.3973 169.648 12.8193C169.188 11.0929 167.505 10.5163 167.505 10.5163C168.731 9.74433 168.386 8.41054 169.024 7.28176C170.705 4.30715 173.096 5.1978 173.096 5.1978C173.327 5.90438 174.032 6.4138 174.725 6.62316C175.128 6.74528 175.065 6.54466 174.882 6.41381C173.183 5.18995 173.603 3.24205 174.94 2.33309C177.273 0.74547 177.672 0.0572161 177.672 0.0572161C178.1 0.381719 179.236 0.663473 180.432 0.769024C183.11 1.00717 183.741 2.40201 183.795 2.93413C183.479 3.10074 182.94 3.60232 182.689 4.40311C182.563 4.80612 182.766 4.74332 182.899 4.56187C183.941 3.13389 185.226 3.40256 186.43 3.95474C187.191 4.30454 188.294 5.19344 189.388 4.95704Z" fill="#C4C4C4"/>
</g>
<defs>
<linearGradient id="paint0_linear_40_649" x1="162.123" y1="4.81384" x2="161.004" y2="32.6627" gradientUnits="userSpaceOnUse">
<stop stop-color="#B5B5B5"/>
<stop offset="0.737" stop-color="#B8B8B8"/>
<stop offset="1" stop-color="#A0A0A0"/>
</linearGradient>
<clipPath id="clip0_40_649">
<rect width="200" height="50" fill="white"/>
</clipPath>
</defs>
</svg>
