<svg width="265" height="100" viewBox="0 0 265 100" fill="none" xmlns="http://www.w3.org/2000/svg">
<rect width="265" height="100" fill="#EBE3D2"/>
<path d="M145.5 80C148.261 80 150.5 77.7614 150.5 75C150.5 72.2386 148.261 70 145.5 70C142.739 70 140.5 72.2386 140.5 75C140.5 77.7614 142.739 80 145.5 80Z" fill="#8E8E8E"/>
<path d="M145.5 30C148.261 30 150.5 27.7614 150.5 25C150.5 22.2386 148.261 20 145.5 20C142.739 20 140.5 22.2386 140.5 25C140.5 27.7614 142.739 30 145.5 30Z" fill="#8E8E8E"/>
<path d="M103 55C105.761 55 108 52.7614 108 50C108 47.2386 105.761 45 103 45C100.239 45 98 47.2386 98 50C98 52.7614 100.239 55 103 55Z" fill="#8E8E8E"/>
<path d="M163 40C160.789 40.0066 158.643 40.7464 156.897 42.1037C155.152 43.4609 153.906 45.3588 153.355 47.5H142.645C142.291 46.0901 141.631 44.7754 140.712 43.6488C139.794 42.5223 138.639 41.6115 137.329 40.9811C136.019 40.3506 134.587 40.0159 133.133 40.0006C131.679 39.9853 130.24 40.2898 128.918 40.8925L120.975 30.9675C122.282 29.252 122.993 27.1566 123 25C123 23.0222 122.414 21.0888 121.315 19.4443C120.216 17.7998 118.654 16.5181 116.827 15.7612C115 15.0043 112.989 14.8063 111.049 15.1922C109.109 15.578 107.327 16.5304 105.929 17.9289C104.53 19.3275 103.578 21.1093 103.192 23.0491C102.806 24.9889 103.004 26.9996 103.761 28.8268C104.518 30.6541 105.8 32.2159 107.444 33.3147C109.089 34.4135 111.022 35 113 35C114.409 34.9937 115.801 34.6895 117.085 34.1075L125.025 44.0325C123.713 45.745 123.001 47.8424 123.001 50C123.001 52.1576 123.713 54.255 125.025 55.9675L117.085 65.8925C115.801 65.3105 114.409 65.0063 113 65C111.022 65 109.089 65.5865 107.444 66.6853C105.8 67.7841 104.518 69.3459 103.761 71.1732C103.004 73.0004 102.806 75.0111 103.192 76.9509C103.578 78.8907 104.53 80.6725 105.929 82.0711C107.327 83.4696 109.109 84.422 111.049 84.8079C112.989 85.1937 115 84.9957 116.827 84.2388C118.654 83.4819 120.216 82.2002 121.315 80.5557C122.414 78.9112 123 76.9778 123 75C122.993 72.8434 122.282 70.748 120.975 69.0325L128.915 59.1075C130.238 59.7107 131.677 60.0155 133.131 60.0005C134.585 59.9854 136.018 59.6507 137.328 59.0203C138.638 58.3898 139.793 57.4789 140.712 56.3521C141.631 55.2253 142.291 53.9102 142.645 52.5H153.355C153.826 54.3064 154.794 55.9446 156.149 57.2286C157.504 58.5126 159.192 59.3909 161.021 59.7638C162.85 60.1367 164.747 59.9893 166.496 59.3382C168.246 58.6872 169.778 57.5586 170.918 56.0807C172.059 54.6028 172.762 52.8347 172.948 50.9773C173.134 49.1198 172.795 47.2474 171.971 45.5727C171.146 43.898 169.868 42.4881 168.283 41.503C166.697 40.5179 164.867 39.9972 163 40ZM108 25C108 24.0111 108.293 23.0444 108.843 22.2222C109.392 21.3999 110.173 20.759 111.087 20.3806C112 20.0022 113.006 19.9032 113.975 20.0961C114.945 20.289 115.836 20.7652 116.536 21.4645C117.235 22.1637 117.711 23.0546 117.904 24.0246C118.097 24.9945 117.998 25.9998 117.619 26.9134C117.241 27.8271 116.6 28.6079 115.778 29.1574C114.956 29.7068 113.989 30 113 30C111.674 30 110.402 29.4732 109.464 28.5355C108.527 27.5979 108 26.3261 108 25ZM113 80C112.011 80 111.044 79.7068 110.222 79.1574C109.4 78.6079 108.759 77.8271 108.381 76.9134C108.002 75.9998 107.903 74.9945 108.096 74.0246C108.289 73.0546 108.765 72.1637 109.464 71.4645C110.164 70.7652 111.055 70.289 112.025 70.0961C112.994 69.9032 114 70.0022 114.913 70.3806C115.827 70.759 116.608 71.3999 117.157 72.2222C117.707 73.0444 118 74.0111 118 75C118 76.3261 117.473 77.5979 116.536 78.5355C115.598 79.4732 114.326 80 113 80ZM133 55C132.011 55 131.044 54.7068 130.222 54.1574C129.4 53.6079 128.759 52.8271 128.381 51.9134C128.002 50.9998 127.903 49.9945 128.096 49.0246C128.289 48.0546 128.765 47.1637 129.464 46.4645C130.164 45.7652 131.055 45.289 132.025 45.0961C132.994 44.9032 134 45.0022 134.913 45.3806C135.827 45.759 136.608 46.3999 137.157 47.2222C137.707 48.0444 138 49.0111 138 50C138 51.3261 137.473 52.5979 136.536 53.5355C135.598 54.4732 134.326 55 133 55ZM163 55C162.011 55 161.044 54.7068 160.222 54.1574C159.4 53.6079 158.759 52.8271 158.381 51.9134C158.002 50.9998 157.903 49.9945 158.096 49.0246C158.289 48.0546 158.765 47.1637 159.464 46.4645C160.164 45.7652 161.055 45.289 162.025 45.0961C162.994 44.9032 164 45.0022 164.913 45.3806C165.827 45.759 166.608 46.3999 167.157 47.2222C167.707 48.0444 168 49.0111 168 50C168 51.3261 167.473 52.5979 166.536 53.5355C165.598 54.4732 164.326 55 163 55Z" fill="#8E8E8E"/>
</svg>
