<svg width="80" height="13" viewBox="0 0 80 13" fill="none" xmlns="http://www.w3.org/2000/svg">
<path d="M3.15088 6.50003C3.15088 7.66152 3.78548 8.67728 4.72628 9.22192V6.50003C4.72628 5.63158 5.43162 4.92755 6.30174 4.92755C7.1718 4.92755 7.87714 5.63158 7.87714 6.50003H9.4526C9.4526 4.76583 8.03911 3.35501 6.30174 3.35501C4.56431 3.35501 3.15088 4.76583 3.15088 6.50003Z" fill="#4F6EB1"/>
<path d="M9.64331 9.83543L9.64208 9.8342C8.898 10.577 7.90747 11.0737 6.805 11.1908C6.79461 11.1918 6.78421 11.193 6.77377 11.1941C6.74518 11.1968 6.71653 11.1993 6.68776 11.2017C6.67168 11.203 6.65547 11.2042 6.63933 11.2053C6.61385 11.2072 6.58838 11.2088 6.56272 11.2102C6.54141 11.2113 6.51998 11.2123 6.49856 11.2131C6.47713 11.214 6.45576 11.215 6.43428 11.2155C6.3967 11.2165 6.35913 11.2171 6.32139 11.2172C6.31534 11.2173 6.30935 11.2175 6.30325 11.2175C5.001 11.2171 3.82009 10.688 2.96459 9.83414L2.96289 9.83578C2.10615 8.98145 1.57546 7.80145 1.57546 6.50004C1.57546 5.19857 2.10615 4.01856 2.96289 3.16424L2.96459 3.16594C3.82009 2.31202 5.001 1.78296 6.30325 1.78255C6.30665 1.78255 6.31 1.78266 6.31334 1.78266C6.35861 1.78272 6.40363 1.78366 6.4486 1.78501C6.46744 1.78559 6.48629 1.78635 6.50507 1.78717C6.53478 1.7884 6.56442 1.78999 6.59401 1.7918C6.61503 1.79309 6.63616 1.79426 6.65718 1.79579C6.6924 1.79842 6.72751 1.80159 6.76249 1.80499C6.79631 1.80827 6.82995 1.81202 6.86352 1.816C6.88225 1.81817 6.90086 1.8204 6.91953 1.8228C6.94894 1.82667 6.97823 1.83077 7.00747 1.83511C7.02056 1.8371 7.03365 1.83927 7.0468 1.84132C7.15247 1.85808 7.2572 1.87823 7.36046 1.90191L7.37285 1.90478C8.24661 2.10764 9.02815 2.55302 9.64208 3.16582L9.64337 3.16459C9.8894 3.40987 10.1089 3.68175 10.2962 3.97614H12.0768C11.1423 1.85491 9.06724 0.34308 6.63088 0.218564C6.62583 0.21833 6.62084 0.218095 6.61579 0.217861C6.571 0.215692 6.52603 0.213935 6.481 0.212704C6.47185 0.21247 6.46257 0.212177 6.45335 0.211942C6.40398 0.210771 6.35455 0.210009 6.30489 0.210009C6.3043 0.210009 6.30378 0.210009 6.30325 0.210009C6.30278 0.210009 6.30225 0.210009 6.30172 0.210009C2.82699 0.210009 0 3.03169 0 6.50004C0 9.96833 2.82699 12.79 6.30172 12.79H6.30325H6.30489C6.3073 12.79 6.3097 12.7899 6.31217 12.7899C6.37704 12.7898 6.44173 12.7884 6.50625 12.7863C6.52944 12.7856 6.55262 12.7847 6.5757 12.7837C6.6236 12.7816 6.67127 12.779 6.71893 12.7759C6.74083 12.7744 6.76279 12.7734 6.78468 12.7717C6.84392 12.7672 6.90292 12.7616 6.96174 12.7556C6.99432 12.7522 7.02678 12.7482 7.05913 12.7444C7.08995 12.7407 7.12071 12.7367 7.15135 12.7325C7.18746 12.7277 7.2235 12.7229 7.25937 12.7175C7.26483 12.7166 7.27023 12.7156 7.27575 12.7148C7.36615 12.7007 7.4558 12.6845 7.54497 12.6667C7.55871 12.6639 7.57256 12.6612 7.5863 12.6583C9.52555 12.2568 11.1416 10.9639 11.9819 9.22908H10.158C10.0036 9.44553 9.83111 9.64816 9.64331 9.83543Z" fill="#4F6EB1"/>
<path d="M14.8068 10V4.52H16.0768V6.87H16.0468C16.0468 6.09667 16.2101 5.5 16.5368 5.08C16.8701 4.66 17.3501 4.45 17.9768 4.45H18.1868V5.83H17.7868C17.3468 5.83 17.0068 5.95 16.7668 6.19C16.5268 6.42333 16.4068 6.76333 16.4068 7.21V10H14.8068ZM19.2758 10V4.52H20.8758V10H19.2758ZM18.5458 5.7V4.52H20.8758V5.7H18.5458ZM19.8958 3.98C19.5958 3.98 19.3724 3.90333 19.2258 3.75C19.0858 3.59 19.0158 3.39 19.0158 3.15C19.0158 2.90333 19.0858 2.70333 19.2258 2.55C19.3724 2.39 19.5958 2.31 19.8958 2.31C20.1958 2.31 20.4158 2.39 20.5558 2.55C20.7024 2.70333 20.7758 2.90333 20.7758 3.15C20.7758 3.39 20.7024 3.59 20.5558 3.75C20.4158 3.90333 20.1958 3.98 19.8958 3.98ZM24.4156 10.19C23.9423 10.19 23.5289 10.1133 23.1756 9.96C22.8289 9.8 22.5389 9.58667 22.3056 9.32C22.0723 9.05333 21.8989 8.75333 21.7856 8.42C21.6723 8.08 21.6156 7.73 21.6156 7.37V7.18C21.6156 6.80667 21.6756 6.45 21.7956 6.11C21.9156 5.76333 22.0923 5.45667 22.3256 5.19C22.5589 4.92333 22.8489 4.71333 23.1956 4.56C23.5489 4.40667 23.9523 4.33 24.4056 4.33C24.8989 4.33 25.3356 4.42667 25.7156 4.62C26.0956 4.80667 26.3989 5.07 26.6256 5.41C26.8523 5.75 26.9789 6.14 27.0056 6.58H25.4356C25.4089 6.33333 25.3089 6.12667 25.1356 5.96C24.9689 5.78667 24.7256 5.7 24.4056 5.7C24.1389 5.7 23.9156 5.76667 23.7356 5.9C23.5623 6.03333 23.4323 6.21667 23.3456 6.45C23.2589 6.68333 23.2156 6.96 23.2156 7.28C23.2156 7.57333 23.2556 7.84 23.3356 8.08C23.4156 8.31333 23.5423 8.49667 23.7156 8.63C23.8956 8.75667 24.1289 8.82 24.4156 8.82C24.6289 8.82 24.8089 8.78333 24.9556 8.71C25.1089 8.63 25.2289 8.52333 25.3156 8.39C25.4089 8.25 25.4656 8.09 25.4856 7.91H27.0456C27.0256 8.36333 26.8989 8.76333 26.6656 9.11C26.4323 9.45 26.1223 9.71667 25.7356 9.91C25.3489 10.0967 24.9089 10.19 24.4156 10.19ZM27.6689 10V2.7H29.2689V6.91H29.0289C29.0289 6.35667 29.0989 5.89 29.2389 5.51C29.3789 5.13 29.5856 4.84333 29.8589 4.65C30.1322 4.45 30.4756 4.35 30.8889 4.35H30.9589C31.5656 4.35 32.0289 4.56667 32.3489 5C32.6689 5.42667 32.8289 6.05333 32.8289 6.88V10H31.2289V6.78C31.2289 6.48 31.1389 6.24 30.9589 6.06C30.7856 5.87333 30.5556 5.78 30.2689 5.78C29.9689 5.78 29.7256 5.87667 29.5389 6.07C29.3589 6.26333 29.2689 6.52 29.2689 6.84V10H27.6689ZM36.2523 10.19C35.779 10.19 35.3657 10.1133 35.0123 9.96C34.6657 9.8 34.3757 9.58667 34.1423 9.32C33.909 9.05333 33.7357 8.75333 33.6223 8.42C33.509 8.08 33.4523 7.73 33.4523 7.37V7.18C33.4523 6.80667 33.5123 6.45 33.6323 6.11C33.7523 5.76333 33.929 5.45667 34.1623 5.19C34.3957 4.92333 34.6857 4.71333 35.0323 4.56C35.3857 4.40667 35.789 4.33 36.2423 4.33C36.7357 4.33 37.1723 4.42667 37.5523 4.62C37.9323 4.80667 38.2357 5.07 38.4623 5.41C38.689 5.75 38.8157 6.14 38.8423 6.58H37.2723C37.2457 6.33333 37.1457 6.12667 36.9723 5.96C36.8057 5.78667 36.5623 5.7 36.2423 5.7C35.9757 5.7 35.7523 5.76667 35.5723 5.9C35.399 6.03333 35.269 6.21667 35.1823 6.45C35.0957 6.68333 35.0523 6.96 35.0523 7.28C35.0523 7.57333 35.0923 7.84 35.1723 8.08C35.2523 8.31333 35.379 8.49667 35.5523 8.63C35.7323 8.75667 35.9657 8.82 36.2523 8.82C36.4657 8.82 36.6457 8.78333 36.7923 8.71C36.9457 8.63 37.0657 8.52333 37.1523 8.39C37.2457 8.25 37.3023 8.09 37.3223 7.91H38.8823C38.8623 8.36333 38.7357 8.76333 38.5023 9.11C38.269 9.45 37.959 9.71667 37.5723 9.91C37.1857 10.0967 36.7457 10.19 36.2523 10.19ZM42.1756 10.19C41.6956 10.19 41.2689 10.1167 40.8956 9.97C40.5223 9.81667 40.2056 9.61 39.9456 9.35C39.6923 9.09 39.4989 8.79333 39.3656 8.46C39.2323 8.12 39.1656 7.76333 39.1656 7.39V7.16C39.1656 6.78 39.2323 6.42 39.3656 6.08C39.5056 5.73333 39.7056 5.43 39.9656 5.17C40.2323 4.91 40.5523 4.70667 40.9256 4.56C41.2989 4.40667 41.7156 4.33 42.1756 4.33C42.6489 4.33 43.0689 4.40667 43.4356 4.56C43.8089 4.70667 44.1256 4.91 44.3856 5.17C44.6456 5.43 44.8456 5.73333 44.9856 6.08C45.1256 6.42 45.1956 6.78 45.1956 7.16V7.39C45.1956 7.76333 45.1289 8.12 44.9956 8.46C44.8623 8.79333 44.6656 9.09 44.4056 9.35C44.1523 9.61 43.8389 9.81667 43.4656 9.97C43.0923 10.1167 42.6623 10.19 42.1756 10.19ZM42.1756 8.84C42.4889 8.84 42.7489 8.77333 42.9556 8.64C43.1623 8.50667 43.3189 8.32 43.4256 8.08C43.5389 7.84 43.5956 7.57333 43.5956 7.28C43.5956 6.96667 43.5389 6.69333 43.4256 6.46C43.3123 6.22 43.1489 6.03 42.9356 5.89C42.7289 5.75 42.4756 5.68 42.1756 5.68C41.8823 5.68 41.6289 5.75 41.4156 5.89C41.2023 6.03 41.0389 6.22 40.9256 6.46C40.8189 6.69333 40.7656 6.96667 40.7656 7.28C40.7656 7.57333 40.8189 7.84 40.9256 8.08C41.0323 8.32 41.1923 8.50667 41.4056 8.64C41.6189 8.77333 41.8756 8.84 42.1756 8.84ZM45.9123 10V4.52H47.1823V6.87H47.0923C47.0923 6.31 47.1623 5.84333 47.3023 5.47C47.4489 5.09667 47.6689 4.81667 47.9623 4.63C48.2556 4.44333 48.6123 4.35 49.0323 4.35H49.1023C49.7423 4.35 50.2289 4.56 50.5623 4.98C50.9023 5.39333 51.0723 6.02333 51.0723 6.87V10H49.4723V6.78C49.4723 6.48667 49.3856 6.24667 49.2123 6.06C49.0389 5.87333 48.8056 5.78 48.5123 5.78C48.2123 5.78 47.9689 5.87667 47.7823 6.07C47.6023 6.25667 47.5123 6.50333 47.5123 6.81V10H45.9123ZM54.4957 10.19C54.0224 10.19 53.609 10.1133 53.2557 9.96C52.909 9.8 52.619 9.58667 52.3857 9.32C52.1524 9.05333 51.979 8.75333 51.8657 8.42C51.7524 8.08 51.6957 7.73 51.6957 7.37V7.18C51.6957 6.80667 51.7557 6.45 51.8757 6.11C51.9957 5.76333 52.1724 5.45667 52.4057 5.19C52.639 4.92333 52.929 4.71333 53.2757 4.56C53.629 4.40667 54.0324 4.33 54.4857 4.33C54.979 4.33 55.4157 4.42667 55.7957 4.62C56.1757 4.80667 56.479 5.07 56.7057 5.41C56.9324 5.75 57.059 6.14 57.0857 6.58H55.5157C55.489 6.33333 55.389 6.12667 55.2157 5.96C55.049 5.78667 54.8057 5.7 54.4857 5.7C54.219 5.7 53.9957 5.76667 53.8157 5.9C53.6424 6.03333 53.5124 6.21667 53.4257 6.45C53.339 6.68333 53.2957 6.96 53.2957 7.28C53.2957 7.57333 53.3357 7.84 53.4157 8.08C53.4957 8.31333 53.6224 8.49667 53.7957 8.63C53.9757 8.75667 54.209 8.82 54.4957 8.82C54.709 8.82 54.889 8.78333 55.0357 8.71C55.189 8.63 55.309 8.52333 55.3957 8.39C55.489 8.25 55.5457 8.09 55.5657 7.91H57.1257C57.1057 8.36333 56.979 8.76333 56.7457 9.11C56.5124 9.45 56.2024 9.71667 55.8157 9.91C55.429 10.0967 54.989 10.19 54.4957 10.19ZM60.259 10.19C59.7923 10.19 59.379 10.11 59.019 9.95C58.6656 9.79 58.369 9.57667 58.129 9.31C57.8956 9.03667 57.7156 8.73333 57.589 8.4C57.469 8.06 57.409 7.71333 57.409 7.36V7.16C57.409 6.79333 57.469 6.44333 57.589 6.11C57.7156 5.77 57.8956 5.46667 58.129 5.2C58.3623 4.93333 58.6523 4.72333 58.999 4.57C59.3523 4.41 59.7523 4.33 60.199 4.33C60.7856 4.33 61.279 4.46333 61.679 4.73C62.0856 4.99 62.3956 5.33333 62.609 5.76C62.8223 6.18 62.929 6.64 62.929 7.14V7.68H58.079V6.77H61.959L61.439 7.19C61.439 6.86333 61.3923 6.58333 61.299 6.35C61.2056 6.11667 61.0656 5.94 60.879 5.82C60.699 5.69333 60.4723 5.63 60.199 5.63C59.919 5.63 59.6823 5.69333 59.489 5.82C59.2956 5.94667 59.149 6.13333 59.049 6.38C58.949 6.62 58.899 6.91667 58.899 7.27C58.899 7.59667 58.9456 7.88333 59.039 8.13C59.1323 8.37 59.279 8.55667 59.479 8.69C59.679 8.82333 59.939 8.89 60.259 8.89C60.5523 8.89 60.7923 8.83333 60.979 8.72C61.1656 8.60667 61.2923 8.46667 61.359 8.3H62.829C62.749 8.66667 62.5923 8.99333 62.359 9.28C62.1256 9.56667 61.8323 9.79 61.479 9.95C61.1256 10.11 60.719 10.19 60.259 10.19ZM63.5892 12V4.52H64.8592V6.89L64.6892 6.88C64.7159 6.33333 64.8292 5.87333 65.0292 5.5C65.2292 5.12 65.4992 4.83667 65.8392 4.65C66.1792 4.45667 66.5625 4.36 66.9892 4.36C67.3692 4.36 67.7125 4.43 68.0192 4.57C68.3325 4.71 68.5992 4.90667 68.8192 5.16C69.0459 5.40667 69.2159 5.7 69.3292 6.04C69.4492 6.37333 69.5092 6.74 69.5092 7.14V7.37C69.5092 7.76333 69.4525 8.13333 69.3392 8.48C69.2259 8.82 69.0592 9.11667 68.8392 9.37C68.6259 9.62333 68.3625 9.82333 68.0492 9.97C67.7425 10.11 67.3892 10.18 66.9892 10.18C66.5759 10.18 66.2025 10.0967 65.8692 9.93C65.5425 9.75667 65.2792 9.49667 65.0792 9.15C64.8792 8.79667 64.7692 8.35 64.7492 7.81L65.1892 8.41V12H63.5892ZM66.5392 8.84C66.8125 8.84 67.0492 8.77333 67.2492 8.64C67.4559 8.50667 67.6159 8.32 67.7292 8.08C67.8425 7.84 67.8992 7.56333 67.8992 7.25C67.8992 6.93667 67.8425 6.66333 67.7292 6.43C67.6159 6.19667 67.4592 6.01667 67.2592 5.89C67.0592 5.75667 66.8192 5.69 66.5392 5.69C66.2992 5.69 66.0725 5.74667 65.8592 5.86C65.6459 5.97333 65.4725 6.13667 65.3392 6.35C65.2125 6.55667 65.1492 6.81 65.1492 7.11V7.48C65.1492 7.76667 65.2159 8.01333 65.3492 8.22C65.4892 8.42 65.6659 8.57333 65.8792 8.68C66.0925 8.78667 66.3125 8.84 66.5392 8.84ZM72.7105 10.07C72.1571 10.07 71.7105 10.0033 71.3705 9.87C71.0305 9.73 70.7805 9.5 70.6205 9.18C70.4671 8.85333 70.3905 8.41333 70.3905 7.86V3.04H71.8805V7.92C71.8805 8.18 71.9471 8.38 72.0805 8.52C72.2205 8.65333 72.4171 8.72 72.6705 8.72H73.4805V10.07H72.7105ZM69.5605 5.69V4.52H73.4805V5.69H69.5605ZM76.1973 10.17C75.4173 10.17 74.8073 10.01 74.3673 9.69C73.9273 9.37 73.694 8.92 73.6673 8.34H75.0873C75.114 8.51333 75.2173 8.67 75.3973 8.81C75.584 8.94333 75.8607 9.01 76.2273 9.01C76.5073 9.01 76.7373 8.96333 76.9173 8.87C77.104 8.77 77.1973 8.63 77.1973 8.45C77.1973 8.29 77.1273 8.16333 76.9873 8.07C76.8473 7.97 76.5973 7.9 76.2373 7.86L75.8073 7.82C75.1473 7.75333 74.6507 7.57 74.3173 7.27C73.9907 6.97 73.8273 6.58667 73.8273 6.12C73.8273 5.73333 73.924 5.41 74.1173 5.15C74.3107 4.89 74.5773 4.69333 74.9173 4.56C75.264 4.42667 75.6573 4.36 76.0973 4.36C76.804 4.36 77.374 4.51667 77.8073 4.83C78.2407 5.13667 78.4673 5.58333 78.4873 6.17H77.0673C77.0407 5.99 76.9473 5.84 76.7873 5.72C76.6273 5.59333 76.3907 5.53 76.0773 5.53C75.8307 5.53 75.634 5.57667 75.4873 5.67C75.3407 5.76333 75.2673 5.89 75.2673 6.05C75.2673 6.20333 75.3307 6.32 75.4573 6.4C75.584 6.48 75.7907 6.53667 76.0773 6.57L76.5073 6.61C77.1807 6.68333 77.704 6.87 78.0773 7.17C78.4507 7.47 78.6373 7.87333 78.6373 8.38C78.6373 8.74667 78.5373 9.06667 78.3373 9.34C78.1373 9.60667 77.854 9.81333 77.4873 9.96C77.1207 10.1 76.6907 10.17 76.1973 10.17Z" fill="#4F6EB1"/>
</svg>
