<svg width="265" height="100" viewBox="0 0 265 100" fill="none" xmlns="http://www.w3.org/2000/svg">
<rect width="265" height="100" fill="#EBE3D2"/>
<path d="M128.625 51.2906L122.959 45.625L119.875 48.7094L128.625 57.4594L146.125 39.9594L143.041 36.875L128.625 51.2906Z" fill="#8E8E8E"/>
<path d="M133 80.625L119.49 73.4216C115.638 71.3729 112.417 68.3139 110.173 64.5729C107.928 60.8319 106.745 56.5502 106.75 52.1875V23.75C106.75 22.5897 107.211 21.4769 108.031 20.6564C108.852 19.8359 109.965 19.375 111.125 19.375H154.875C156.035 19.375 157.148 19.8359 157.969 20.6564C158.789 21.4769 159.25 22.5897 159.25 23.75V52.1875C159.255 56.5502 158.072 60.8319 155.827 64.5729C153.583 68.3139 150.362 71.3729 146.51 73.4216L133 80.625ZM111.125 23.75V52.1875C111.123 55.7568 112.092 59.2595 113.928 62.3201C115.765 65.3806 118.4 67.8836 121.551 69.5606L133 75.6659L144.449 69.5628C147.601 67.8856 150.236 65.3823 152.072 62.3213C153.909 59.2603 154.878 55.7572 154.875 52.1875V23.75H111.125Z" fill="#8E8E8E"/>
</svg>
