<svg width="265" height="100" viewBox="0 0 265 100" fill="none" xmlns="http://www.w3.org/2000/svg">
<rect width="265" height="100" fill="#EBE3D2"/>
<path d="M126 17.5C108.08 17.5 93.5 32.08 93.5 50C93.5 67.92 108.08 82.5 126 82.5C143.92 82.5 158.5 67.92 158.5 50C158.5 32.08 143.92 17.5 126 17.5ZM126 22.5C141.217 22.5 153.5 34.7825 153.5 50C153.5 65.2175 141.217 77.5 126 77.5C110.783 77.5 98.5 65.2175 98.5 50C98.5 34.7825 110.783 22.5 126 22.5ZM123.5 35V47.5H111V52.5H123.5V65H128.5V52.5H141V47.5H128.5V35H123.5Z" fill="#8E8E8E"/>
</svg>
