<svg width="200" height="50" viewBox="0 0 200 50" fill="none" xmlns="http://www.w3.org/2000/svg">
<path d="M23.5515 40.1259C20.9163 38.4727 18.9757 32.7669 18.9757 25.9884C18.9757 25.7396 18.9768 25.494 18.9831 25.2494L18.9862 25.2526C11.6579 24.099 6.36227 20.9375 6.2271 17.1998L6.2051 17.2428C4.41126 19.4754 3.38755 22.0564 3.38755 24.8065C3.38755 32.8992 12.2551 39.5297 23.5033 40.1165L23.5515 40.1259ZM0 25.3974C0 16.3422 11.2492 9 25.1263 9C39.0035 9 50.2527 16.3422 50.2527 25.3974C50.2527 34.4526 39.0035 41.7948 25.1263 41.7948C11.2492 41.7948 0 34.4526 0 25.3974ZM25.1263 11.3659C27.8056 11.3659 30.0835 15.4364 30.928 21.117L30.9312 21.1086C36.143 20.2962 39.7925 18.4205 39.7925 16.2393C39.7925 13.3109 33.2259 10.9408 25.1263 10.9408C17.0268 10.9408 10.4602 13.3119 10.4602 16.2393C10.4602 18.4205 14.1087 20.2951 19.3215 21.1086L19.3247 21.117C20.1692 15.4374 22.4482 11.3659 25.1263 11.3659ZM26.7483 40.1165C37.9965 39.5297 46.8651 32.8992 46.8651 24.8065C46.8651 22.0564 45.8404 19.4754 44.0476 17.2428L44.0256 17.1998C43.8904 20.9375 38.5959 24.099 31.2665 25.2526L31.2696 25.2494C31.2749 25.494 31.277 25.7396 31.277 25.9884C31.277 32.7669 29.3343 38.4727 26.7012 40.1259L26.7483 40.1165ZM25.1263 21.539C26.3271 21.539 27.4933 21.4875 28.6092 21.3889L28.6082 21.3899C28.0529 17.7487 26.7033 15.1792 25.1263 15.1792C23.5494 15.1792 22.2009 17.7487 21.6445 21.3899L21.6434 21.3889C22.7594 21.4875 23.9256 21.539 25.1263 21.539ZM25.1263 35.0226C27.1434 35.0226 28.7884 30.8177 28.8764 25.5444L28.8869 25.5475C27.6715 25.6598 26.4141 25.7196 25.1263 25.7196C23.8386 25.7196 22.5812 25.6609 21.3658 25.5475L21.3773 25.5444C21.4643 30.8188 23.1093 35.0226 25.1263 35.0226ZM128.211 25.3974C128.211 18.4761 133.813 12.8658 140.721 12.8658C147.632 12.8658 153.233 18.4772 153.233 25.3974C153.233 32.3198 147.631 37.929 140.721 37.929C133.813 37.929 128.211 32.3187 128.211 25.3974ZM140.721 33.3337C144.58 33.3337 147.708 29.7796 147.708 25.3964C147.708 21.0141 144.58 17.459 140.721 17.459C136.864 17.459 133.738 21.0131 133.738 25.3964C133.738 29.7796 136.865 33.3337 140.721 33.3337ZM167.429 18.0867V37.3601H162.158V18.0867H162.176H154.805V13.7286H174.782V18.0856L167.429 18.0867ZM181.158 32.0437L181.153 32.049L179.13 37.3612H172.975L182.707 13.7297H189.267L199 37.3612H192.843L190.821 32.049L190.816 32.0437H185.988H181.158ZM185.988 28.0551H189.305L189.303 28.0561L186.01 19.4071H185.964L182.67 28.0561L182.669 28.0551H185.988ZM70.2626 18.0867V37.3601H64.9911V18.0867H65.0089H57.6366V13.7286H77.615V18.0856L70.2626 18.0867ZM78.9646 25.3974C78.9646 18.4761 84.5662 12.8658 91.4764 12.8658C98.3857 12.8658 103.987 18.4772 103.987 25.3974C103.987 32.3198 98.3857 37.929 91.4764 37.929C84.5662 37.929 78.9646 32.3187 78.9646 25.3974ZM91.4764 33.3337C95.3334 33.3337 98.4622 29.7796 98.4622 25.3964C98.4622 21.0141 95.3345 17.459 91.4764 17.459C87.6184 17.459 84.4907 21.0131 84.4907 25.3964C84.4907 29.7796 87.6184 33.3337 91.4764 33.3337ZM116.099 37.3601H118.772V28.3868L127.967 13.7286H121.812L116.099 23.6613L110.386 13.7286H104.229L113.426 28.3868V37.3591L116.099 37.3601Z" fill="#8E8E8E"/>
</svg>
