<svg width="518" height="350" viewBox="0 0 518 350" fill="none" xmlns="http://www.w3.org/2000/svg">
<g clip-path="url(#clip0_53_150)">
<rect width="518" height="32" fill="#CDCDCD"/>
<rect y="32" width="518" height="32" fill="#434343"/>
<rect x="45" y="32" width="318" height="45" transform="rotate(90 45 32)" fill="#F5F5F5"/>
<rect x="7" y="61" width="31" height="31" rx="8" fill="#D9D9D9"/>
<rect x="7" y="100" width="31" height="31" rx="8" fill="#D9D9D9"/>
<rect x="7" y="139" width="31" height="31" rx="8" fill="#D9D9D9"/>
<path d="M20.0254 21V10.9785H24.2842C25.3551 10.9785 26.1322 11.0697 26.6152 11.252C27.1029 11.4297 27.4925 11.7487 27.7842 12.209C28.0758 12.6693 28.2217 13.1956 28.2217 13.7881C28.2217 14.54 28.0007 15.1621 27.5586 15.6543C27.1165 16.1419 26.4557 16.4495 25.5762 16.5771C26.0137 16.8324 26.3737 17.1126 26.6562 17.418C26.9434 17.7233 27.3285 18.2656 27.8115 19.0449L29.0352 21H26.6152L25.1523 18.8193C24.6328 18.04 24.2773 17.5501 24.0859 17.3496C23.8945 17.1445 23.6917 17.0055 23.4775 16.9326C23.2633 16.8551 22.9238 16.8164 22.459 16.8164H22.0488V21H20.0254ZM22.0488 15.2168H23.5459C24.5166 15.2168 25.1227 15.1758 25.3643 15.0938C25.6058 15.0117 25.7949 14.8704 25.9316 14.6699C26.0684 14.4694 26.1367 14.2188 26.1367 13.918C26.1367 13.5807 26.0456 13.3096 25.8633 13.1045C25.6855 12.8949 25.4326 12.7627 25.1045 12.708C24.9404 12.6852 24.4482 12.6738 23.6279 12.6738H22.0488V15.2168ZM34.3262 18.6895L36.2402 19.0107C35.9941 19.7126 35.6045 20.248 35.0713 20.6172C34.5426 20.9818 33.8796 21.1641 33.082 21.1641C31.8197 21.1641 30.8854 20.7516 30.2793 19.9268C29.8008 19.266 29.5615 18.432 29.5615 17.4248C29.5615 16.2217 29.876 15.2806 30.5049 14.6016C31.1338 13.918 31.929 13.5762 32.8906 13.5762C33.9707 13.5762 34.8229 13.9339 35.4473 14.6494C36.0716 15.3604 36.3701 16.4518 36.3428 17.9238H31.5303C31.5439 18.4935 31.6989 18.9378 31.9951 19.2568C32.2913 19.5713 32.6605 19.7285 33.1025 19.7285C33.4033 19.7285 33.6562 19.6465 33.8613 19.4824C34.0664 19.3184 34.2214 19.054 34.3262 18.6895ZM34.4355 16.748C34.4219 16.1921 34.2783 15.7705 34.0049 15.4834C33.7314 15.1917 33.3988 15.0459 33.0068 15.0459C32.5876 15.0459 32.2412 15.1986 31.9678 15.5039C31.6943 15.8092 31.5599 16.224 31.5645 16.748H34.4355ZM37.2383 18.9287L39.166 18.6348C39.248 19.0085 39.4144 19.2933 39.665 19.4893C39.9157 19.6807 40.2666 19.7764 40.7178 19.7764C41.2145 19.7764 41.5882 19.6852 41.8389 19.5029C42.0075 19.3753 42.0918 19.2044 42.0918 18.9902C42.0918 18.8444 42.0462 18.7236 41.9551 18.6279C41.8594 18.5368 41.6452 18.4525 41.3125 18.375C39.763 18.0332 38.7809 17.721 38.3662 17.4385C37.792 17.0465 37.5049 16.502 37.5049 15.8047C37.5049 15.1758 37.7533 14.6471 38.25 14.2188C38.7467 13.7904 39.5169 13.5762 40.5605 13.5762C41.554 13.5762 42.2923 13.738 42.7754 14.0615C43.2585 14.3851 43.5911 14.8636 43.7734 15.4971L41.9619 15.832C41.8844 15.5495 41.7363 15.333 41.5176 15.1826C41.3034 15.0322 40.9958 14.957 40.5947 14.957C40.0889 14.957 39.7266 15.0277 39.5078 15.1689C39.362 15.2692 39.2891 15.3991 39.2891 15.5586C39.2891 15.6953 39.3529 15.8115 39.4805 15.9072C39.6536 16.0348 40.2507 16.2148 41.2715 16.4473C42.2969 16.6797 43.0124 16.9645 43.418 17.3018C43.819 17.6436 44.0195 18.1198 44.0195 18.7305C44.0195 19.3958 43.7415 19.9678 43.1855 20.4463C42.6296 20.9248 41.807 21.1641 40.7178 21.1641C39.7288 21.1641 38.945 20.9635 38.3662 20.5625C37.792 20.1615 37.416 19.6169 37.2383 18.9287ZM45.2637 17.2676C45.2637 16.6296 45.4209 16.012 45.7354 15.415C46.0498 14.818 46.4941 14.3623 47.0684 14.0479C47.6471 13.7334 48.292 13.5762 49.0029 13.5762C50.1012 13.5762 51.0013 13.9339 51.7031 14.6494C52.4049 15.3604 52.7559 16.2604 52.7559 17.3496C52.7559 18.4479 52.4004 19.3594 51.6895 20.084C50.9831 20.804 50.0921 21.1641 49.0166 21.1641C48.3512 21.1641 47.7155 21.0137 47.1094 20.7129C46.5078 20.4121 46.0498 19.9723 45.7354 19.3936C45.4209 18.8102 45.2637 18.1016 45.2637 17.2676ZM47.2324 17.3701C47.2324 18.0902 47.4033 18.6416 47.7451 19.0244C48.0869 19.4072 48.5085 19.5986 49.0098 19.5986C49.5111 19.5986 49.9303 19.4072 50.2676 19.0244C50.6094 18.6416 50.7803 18.0856 50.7803 17.3564C50.7803 16.6455 50.6094 16.0986 50.2676 15.7158C49.9303 15.333 49.5111 15.1416 49.0098 15.1416C48.5085 15.1416 48.0869 15.333 47.7451 15.7158C47.4033 16.0986 47.2324 16.6501 47.2324 17.3701ZM59.0449 21V19.9131C58.7806 20.3005 58.432 20.6058 57.999 20.8291C57.5706 21.0524 57.1172 21.1641 56.6387 21.1641C56.151 21.1641 55.7135 21.057 55.3262 20.8428C54.9388 20.6286 54.6585 20.3278 54.4854 19.9404C54.3122 19.5531 54.2256 19.0176 54.2256 18.334V13.7402H56.1465V17.0762C56.1465 18.097 56.1807 18.7236 56.249 18.9561C56.3219 19.1839 56.4518 19.3662 56.6387 19.5029C56.8255 19.6351 57.0625 19.7012 57.3496 19.7012C57.6777 19.7012 57.9717 19.6123 58.2314 19.4346C58.4912 19.2523 58.6689 19.029 58.7646 18.7646C58.8604 18.4958 58.9082 17.8418 58.9082 16.8027V13.7402H60.8291V21H59.0449ZM64.6641 21H62.7432V13.7402H64.5273V14.7725C64.8327 14.2848 65.1061 13.9635 65.3477 13.8086C65.5938 13.6536 65.8717 13.5762 66.1816 13.5762C66.6191 13.5762 67.0407 13.6969 67.4463 13.9385L66.8516 15.6133C66.528 15.4036 66.2272 15.2988 65.9492 15.2988C65.6803 15.2988 65.4525 15.374 65.2656 15.5244C65.0788 15.6702 64.9307 15.9368 64.8213 16.3242C64.7165 16.7116 64.6641 17.5228 64.6641 18.7578V21ZM74.6104 15.8867L72.7168 16.2285C72.653 15.8503 72.5072 15.5654 72.2793 15.374C72.056 15.1826 71.7643 15.0869 71.4043 15.0869C70.9258 15.0869 70.543 15.2533 70.2559 15.5859C69.9733 15.9141 69.832 16.4655 69.832 17.2402C69.832 18.1016 69.9756 18.71 70.2627 19.0654C70.5544 19.4209 70.944 19.5986 71.4316 19.5986C71.7962 19.5986 72.0947 19.4961 72.3271 19.291C72.5596 19.0814 72.7236 18.7236 72.8193 18.2178L74.7061 18.5391C74.5101 19.4049 74.1341 20.0589 73.5781 20.501C73.0221 20.943 72.277 21.1641 71.3428 21.1641C70.2809 21.1641 69.4333 20.8291 68.7998 20.1592C68.1709 19.4893 67.8564 18.5618 67.8564 17.377C67.8564 16.1784 68.1732 15.2464 68.8066 14.5811C69.4401 13.9111 70.2969 13.5762 71.377 13.5762C72.2611 13.5762 72.9629 13.7676 73.4824 14.1504C74.0065 14.5286 74.3825 15.1074 74.6104 15.8867ZM80.2773 18.6895L82.1914 19.0107C81.9453 19.7126 81.5557 20.248 81.0225 20.6172C80.4938 20.9818 79.8307 21.1641 79.0332 21.1641C77.7708 21.1641 76.8366 20.7516 76.2305 19.9268C75.752 19.266 75.5127 18.432 75.5127 17.4248C75.5127 16.2217 75.8271 15.2806 76.4561 14.6016C77.085 13.918 77.8802 13.5762 78.8418 13.5762C79.9219 13.5762 80.7741 13.9339 81.3984 14.6494C82.0228 15.3604 82.3213 16.4518 82.2939 17.9238H77.4814C77.4951 18.4935 77.6501 18.9378 77.9463 19.2568C78.2425 19.5713 78.6117 19.7285 79.0537 19.7285C79.3545 19.7285 79.6074 19.6465 79.8125 19.4824C80.0176 19.3184 80.1725 19.054 80.2773 18.6895ZM80.3867 16.748C80.373 16.1921 80.2295 15.7705 79.9561 15.4834C79.6826 15.1917 79.3499 15.0459 78.958 15.0459C78.5387 15.0459 78.1924 15.1986 77.9189 15.5039C77.6455 15.8092 77.5111 16.224 77.5156 16.748H80.3867ZM90.333 21L86.751 10.9785H88.9453L91.4814 18.3955L93.9355 10.9785H96.082L92.4932 21H90.333ZM96.8408 12.7559V10.9785H98.7617V12.7559H96.8408ZM96.8408 21V13.7402H98.7617V21H96.8408ZM100.061 18.9287L101.988 18.6348C102.07 19.0085 102.237 19.2933 102.487 19.4893C102.738 19.6807 103.089 19.7764 103.54 19.7764C104.037 19.7764 104.41 19.6852 104.661 19.5029C104.83 19.3753 104.914 19.2044 104.914 18.9902C104.914 18.8444 104.868 18.7236 104.777 18.6279C104.682 18.5368 104.467 18.4525 104.135 18.375C102.585 18.0332 101.603 17.721 101.188 17.4385C100.614 17.0465 100.327 16.502 100.327 15.8047C100.327 15.1758 100.576 14.6471 101.072 14.2188C101.569 13.7904 102.339 13.5762 103.383 13.5762C104.376 13.5762 105.115 13.738 105.598 14.0615C106.081 14.3851 106.413 14.8636 106.596 15.4971L104.784 15.832C104.707 15.5495 104.559 15.333 104.34 15.1826C104.126 15.0322 103.818 14.957 103.417 14.957C102.911 14.957 102.549 15.0277 102.33 15.1689C102.184 15.2692 102.111 15.3991 102.111 15.5586C102.111 15.6953 102.175 15.8115 102.303 15.9072C102.476 16.0348 103.073 16.2148 104.094 16.4473C105.119 16.6797 105.835 16.9645 106.24 17.3018C106.641 17.6436 106.842 18.1198 106.842 18.7305C106.842 19.3958 106.564 19.9678 106.008 20.4463C105.452 20.9248 104.629 21.1641 103.54 21.1641C102.551 21.1641 101.767 20.9635 101.188 20.5625C100.614 20.1615 100.238 19.6169 100.061 18.9287ZM113.309 21V19.9131C113.044 20.3005 112.696 20.6058 112.263 20.8291C111.834 21.0524 111.381 21.1641 110.902 21.1641C110.415 21.1641 109.977 21.057 109.59 20.8428C109.202 20.6286 108.922 20.3278 108.749 19.9404C108.576 19.5531 108.489 19.0176 108.489 18.334V13.7402H110.41V17.0762C110.41 18.097 110.444 18.7236 110.513 18.9561C110.586 19.1839 110.715 19.3662 110.902 19.5029C111.089 19.6351 111.326 19.7012 111.613 19.7012C111.941 19.7012 112.235 19.6123 112.495 19.4346C112.755 19.2523 112.933 19.029 113.028 18.7646C113.124 18.4958 113.172 17.8418 113.172 16.8027V13.7402H115.093V21H113.309ZM118.524 15.9551L116.781 15.6406C116.977 14.9388 117.314 14.4193 117.793 14.082C118.271 13.7448 118.982 13.5762 119.926 13.5762C120.783 13.5762 121.421 13.6787 121.84 13.8838C122.259 14.0843 122.553 14.3418 122.722 14.6562C122.895 14.9661 122.981 15.5381 122.981 16.3721L122.961 18.6143C122.961 19.2523 122.991 19.724 123.05 20.0293C123.114 20.3301 123.23 20.6536 123.398 21H121.498C121.448 20.8724 121.386 20.6833 121.313 20.4326C121.282 20.3187 121.259 20.2435 121.245 20.207C120.917 20.526 120.566 20.7653 120.192 20.9248C119.819 21.0843 119.42 21.1641 118.996 21.1641C118.249 21.1641 117.659 20.9613 117.226 20.5557C116.797 20.1501 116.583 19.6374 116.583 19.0176C116.583 18.6074 116.681 18.2428 116.877 17.9238C117.073 17.6003 117.346 17.3542 117.697 17.1855C118.053 17.0124 118.563 16.862 119.229 16.7344C120.126 16.5658 120.748 16.4085 121.095 16.2627V16.0713C121.095 15.7021 121.004 15.4401 120.821 15.2852C120.639 15.1257 120.295 15.0459 119.789 15.0459C119.447 15.0459 119.181 15.1143 118.989 15.251C118.798 15.3831 118.643 15.6178 118.524 15.9551ZM121.095 17.5137C120.849 17.5957 120.459 17.6937 119.926 17.8076C119.393 17.9215 119.044 18.0332 118.88 18.1426C118.629 18.3203 118.504 18.5459 118.504 18.8193C118.504 19.0882 118.604 19.3206 118.805 19.5166C119.005 19.7126 119.26 19.8105 119.57 19.8105C119.917 19.8105 120.247 19.6966 120.562 19.4688C120.794 19.2956 120.947 19.0837 121.02 18.833C121.07 18.6689 121.095 18.3568 121.095 17.8965V17.5137ZM124.882 21V10.9785H126.803V21H124.882ZM128.778 12.7559V10.9785H130.699V12.7559H128.778ZM128.778 21V13.7402H130.699V21H128.778ZM131.902 21V19.5029L134.623 16.3789C135.07 15.8685 135.4 15.5062 135.614 15.292C135.391 15.3057 135.097 15.3148 134.732 15.3193L132.169 15.333V13.7402H138.171V15.1006L135.396 18.2998L134.418 19.3594C134.951 19.3275 135.282 19.3115 135.409 19.3115H138.383V21H131.902ZM141.11 15.9551L139.367 15.6406C139.563 14.9388 139.9 14.4193 140.379 14.082C140.857 13.7448 141.568 13.5762 142.512 13.5762C143.368 13.5762 144.007 13.6787 144.426 13.8838C144.845 14.0843 145.139 14.3418 145.308 14.6562C145.481 14.9661 145.567 15.5381 145.567 16.3721L145.547 18.6143C145.547 19.2523 145.576 19.724 145.636 20.0293C145.7 20.3301 145.816 20.6536 145.984 21H144.084C144.034 20.8724 143.972 20.6833 143.899 20.4326C143.868 20.3187 143.845 20.2435 143.831 20.207C143.503 20.526 143.152 20.7653 142.778 20.9248C142.405 21.0843 142.006 21.1641 141.582 21.1641C140.835 21.1641 140.244 20.9613 139.812 20.5557C139.383 20.1501 139.169 19.6374 139.169 19.0176C139.169 18.6074 139.267 18.2428 139.463 17.9238C139.659 17.6003 139.932 17.3542 140.283 17.1855C140.639 17.0124 141.149 16.862 141.814 16.7344C142.712 16.5658 143.334 16.4085 143.681 16.2627V16.0713C143.681 15.7021 143.59 15.4401 143.407 15.2852C143.225 15.1257 142.881 15.0459 142.375 15.0459C142.033 15.0459 141.767 15.1143 141.575 15.251C141.384 15.3831 141.229 15.6178 141.11 15.9551ZM143.681 17.5137C143.435 17.5957 143.045 17.6937 142.512 17.8076C141.979 17.9215 141.63 18.0332 141.466 18.1426C141.215 18.3203 141.09 18.5459 141.09 18.8193C141.09 19.0882 141.19 19.3206 141.391 19.5166C141.591 19.7126 141.846 19.8105 142.156 19.8105C142.503 19.8105 142.833 19.6966 143.147 19.4688C143.38 19.2956 143.533 19.0837 143.605 18.833C143.656 18.6689 143.681 18.3568 143.681 17.8965V17.5137ZM150.797 13.7402V15.2715H149.484V18.1973C149.484 18.7897 149.496 19.1361 149.519 19.2363C149.546 19.332 149.603 19.4118 149.689 19.4756C149.781 19.5394 149.89 19.5713 150.018 19.5713C150.195 19.5713 150.453 19.5098 150.79 19.3867L150.954 20.877C150.507 21.0684 150.002 21.1641 149.437 21.1641C149.09 21.1641 148.778 21.1071 148.5 20.9932C148.222 20.8747 148.017 20.7243 147.885 20.542C147.757 20.3551 147.668 20.1045 147.618 19.79C147.577 19.5667 147.557 19.1156 147.557 18.4365V15.2715H146.675V13.7402H147.557V12.2979L149.484 11.1768V13.7402H150.797ZM152.13 12.7559V10.9785H154.051V12.7559H152.13ZM152.13 21V13.7402H154.051V21H152.13ZM155.582 17.2676C155.582 16.6296 155.739 16.012 156.054 15.415C156.368 14.818 156.812 14.3623 157.387 14.0479C157.965 13.7334 158.61 13.5762 159.321 13.5762C160.42 13.5762 161.32 13.9339 162.021 14.6494C162.723 15.3604 163.074 16.2604 163.074 17.3496C163.074 18.4479 162.719 19.3594 162.008 20.084C161.301 20.804 160.41 21.1641 159.335 21.1641C158.67 21.1641 158.034 21.0137 157.428 20.7129C156.826 20.4121 156.368 19.9723 156.054 19.3936C155.739 18.8102 155.582 18.1016 155.582 17.2676ZM157.551 17.3701C157.551 18.0902 157.722 18.6416 158.063 19.0244C158.405 19.4072 158.827 19.5986 159.328 19.5986C159.829 19.5986 160.249 19.4072 160.586 19.0244C160.928 18.6416 161.099 18.0856 161.099 17.3564C161.099 16.6455 160.928 16.0986 160.586 15.7158C160.249 15.333 159.829 15.1416 159.328 15.1416C158.827 15.1416 158.405 15.333 158.063 15.7158C157.722 16.0986 157.551 16.6501 157.551 17.3701ZM171.188 21H169.268V17.2949C169.268 16.5111 169.227 16.0052 169.145 15.7773C169.062 15.5449 168.928 15.3649 168.741 15.2373C168.559 15.1097 168.338 15.0459 168.078 15.0459C167.745 15.0459 167.447 15.137 167.183 15.3193C166.918 15.5016 166.736 15.7432 166.636 16.0439C166.54 16.3447 166.492 16.9007 166.492 17.7119V21H164.571V13.7402H166.355V14.8066C166.989 13.9863 167.786 13.5762 168.748 13.5762C169.172 13.5762 169.559 13.6536 169.91 13.8086C170.261 13.959 170.525 14.1527 170.703 14.3896C170.885 14.6266 171.011 14.8955 171.079 15.1963C171.152 15.4971 171.188 15.9277 171.188 16.4883V21Z" fill="black"/>
<rect x="358" y="36" width="75" height="23" rx="8" fill="#D9D9D9"/>
<rect x="438" y="36" width="75" height="23" rx="8" fill="#D9D9D9"/>
<line x1="206" y1="190.5" x2="361" y2="190.5" stroke="black"/>
<circle cx="180.5" cy="190.5" r="25.5" fill="#D9D9D9"/>
<circle cx="283.5" cy="190.5" r="25.5" fill="#D9D9D9"/>
<circle cx="386.5" cy="190.5" r="25.5" fill="#D9D9D9"/>
<path d="M62.3057 330V319.979H63.6318V330H62.3057ZM65.8193 330V322.74H66.9268V323.772C67.46 322.975 68.2301 322.576 69.2373 322.576C69.6748 322.576 70.0758 322.656 70.4404 322.815C70.8096 322.97 71.0853 323.175 71.2676 323.431C71.4499 323.686 71.5775 323.989 71.6504 324.34C71.696 324.568 71.7188 324.966 71.7188 325.536V330H70.4883V325.584C70.4883 325.083 70.4404 324.709 70.3447 324.463C70.249 324.212 70.0781 324.014 69.832 323.868C69.5905 323.718 69.3057 323.643 68.9775 323.643C68.4535 323.643 68 323.809 67.6172 324.142C67.2389 324.474 67.0498 325.105 67.0498 326.035V330H65.8193ZM76.2988 328.899L76.4766 329.986C76.1302 330.059 75.8203 330.096 75.5469 330.096C75.1003 330.096 74.7539 330.025 74.5078 329.884C74.2617 329.743 74.0885 329.558 73.9883 329.33C73.888 329.098 73.8379 328.612 73.8379 327.874V323.697H72.9355V322.74H73.8379V320.942L75.0615 320.204V322.74H76.2988V323.697H75.0615V327.942C75.0615 328.293 75.082 328.519 75.123 328.619C75.1686 328.719 75.2393 328.799 75.335 328.858C75.4352 328.918 75.5765 328.947 75.7588 328.947C75.8955 328.947 76.0755 328.931 76.2988 328.899ZM82.4785 327.662L83.75 327.819C83.5495 328.562 83.1781 329.139 82.6357 329.549C82.0934 329.959 81.4007 330.164 80.5576 330.164C79.4958 330.164 78.6527 329.838 78.0283 329.187C77.4085 328.53 77.0986 327.612 77.0986 326.432C77.0986 325.21 77.4131 324.262 78.042 323.588C78.6709 322.913 79.4867 322.576 80.4893 322.576C81.46 322.576 82.2529 322.907 82.8682 323.567C83.4834 324.228 83.791 325.158 83.791 326.356C83.791 326.429 83.7887 326.539 83.7842 326.685H78.3701C78.4157 327.482 78.6413 328.093 79.0469 328.517C79.4525 328.94 79.9583 329.152 80.5645 329.152C81.0156 329.152 81.4007 329.034 81.7197 328.797C82.0387 328.56 82.2917 328.182 82.4785 327.662ZM78.4385 325.673H82.4922C82.4375 325.062 82.2826 324.604 82.0273 324.299C81.6354 323.825 81.1273 323.588 80.5029 323.588C79.9378 323.588 79.4616 323.777 79.0742 324.155C78.6914 324.534 78.4795 325.039 78.4385 325.673ZM85.2881 330V322.74H86.3955V323.841C86.6781 323.326 86.9378 322.986 87.1748 322.822C87.4163 322.658 87.6807 322.576 87.9678 322.576C88.3825 322.576 88.804 322.708 89.2324 322.973L88.8086 324.114C88.5078 323.937 88.207 323.848 87.9062 323.848C87.6374 323.848 87.3958 323.93 87.1816 324.094C86.9674 324.253 86.8148 324.477 86.7236 324.764C86.5869 325.201 86.5186 325.68 86.5186 326.199V330H85.2881ZM94.7012 329.104C94.2454 329.492 93.8057 329.765 93.3818 329.925C92.9626 330.084 92.5114 330.164 92.0283 330.164C91.2308 330.164 90.6178 329.97 90.1895 329.583C89.7611 329.191 89.5469 328.692 89.5469 328.086C89.5469 327.73 89.6266 327.407 89.7861 327.115C89.9502 326.819 90.1621 326.582 90.4219 326.404C90.6862 326.227 90.9824 326.092 91.3105 326.001C91.5521 325.937 91.9167 325.876 92.4043 325.816C93.3978 325.698 94.1292 325.557 94.5986 325.393C94.6032 325.224 94.6055 325.117 94.6055 325.071C94.6055 324.57 94.4893 324.217 94.2568 324.012C93.9424 323.734 93.4753 323.595 92.8555 323.595C92.2767 323.595 91.8483 323.697 91.5703 323.902C91.2969 324.103 91.0941 324.461 90.9619 324.976L89.7588 324.812C89.8682 324.297 90.0482 323.882 90.2988 323.567C90.5495 323.248 90.9118 323.005 91.3857 322.836C91.8597 322.663 92.4089 322.576 93.0332 322.576C93.653 322.576 94.1566 322.649 94.5439 322.795C94.9313 322.941 95.2161 323.125 95.3984 323.349C95.5807 323.567 95.7083 323.845 95.7812 324.183C95.8223 324.392 95.8428 324.771 95.8428 325.317V326.958C95.8428 328.102 95.8678 328.826 95.918 329.132C95.9727 329.433 96.0775 329.722 96.2324 330H94.9473C94.8197 329.745 94.7376 329.446 94.7012 329.104ZM94.5986 326.356C94.152 326.539 93.4821 326.694 92.5889 326.821C92.083 326.894 91.7253 326.976 91.5156 327.067C91.306 327.159 91.1442 327.293 91.0303 327.471C90.9163 327.644 90.8594 327.838 90.8594 328.052C90.8594 328.38 90.9824 328.653 91.2285 328.872C91.4792 329.091 91.8438 329.2 92.3223 329.2C92.7962 329.2 93.2178 329.098 93.5869 328.893C93.9561 328.683 94.2272 328.398 94.4004 328.038C94.5326 327.76 94.5986 327.35 94.5986 326.808V326.356ZM102.494 327.341L103.704 327.498C103.572 328.332 103.232 328.986 102.686 329.46C102.143 329.929 101.476 330.164 100.683 330.164C99.6891 330.164 98.8893 329.84 98.2832 329.193C97.6816 328.542 97.3809 327.61 97.3809 326.397C97.3809 325.614 97.5107 324.928 97.7705 324.34C98.0303 323.752 98.4245 323.312 98.9531 323.021C99.4863 322.724 100.065 322.576 100.689 322.576C101.478 322.576 102.123 322.777 102.624 323.178C103.125 323.574 103.447 324.139 103.588 324.873L102.392 325.058C102.278 324.57 102.075 324.203 101.783 323.957C101.496 323.711 101.147 323.588 100.737 323.588C100.118 323.588 99.6139 323.811 99.2266 324.258C98.8392 324.7 98.6455 325.402 98.6455 326.363C98.6455 327.339 98.8324 328.047 99.2061 328.489C99.5798 328.931 100.067 329.152 100.669 329.152C101.152 329.152 101.555 329.004 101.879 328.708C102.202 328.412 102.408 327.956 102.494 327.341ZM107.443 328.899L107.621 329.986C107.275 330.059 106.965 330.096 106.691 330.096C106.245 330.096 105.898 330.025 105.652 329.884C105.406 329.743 105.233 329.558 105.133 329.33C105.033 329.098 104.982 328.612 104.982 327.874V323.697H104.08V322.74H104.982V320.942L106.206 320.204V322.74H107.443V323.697H106.206V327.942C106.206 328.293 106.227 328.519 106.268 328.619C106.313 328.719 106.384 328.799 106.479 328.858C106.58 328.918 106.721 328.947 106.903 328.947C107.04 328.947 107.22 328.931 107.443 328.899ZM108.66 321.394V319.979H109.891V321.394H108.66ZM108.66 330V322.74H109.891V330H108.66ZM113.787 330L111.025 322.74H112.324L113.883 327.088C114.051 327.557 114.206 328.045 114.348 328.551C114.457 328.168 114.61 327.708 114.806 327.17L116.419 322.74H117.684L114.936 330H113.787ZM123.74 327.662L125.012 327.819C124.811 328.562 124.44 329.139 123.897 329.549C123.355 329.959 122.662 330.164 121.819 330.164C120.757 330.164 119.914 329.838 119.29 329.187C118.67 328.53 118.36 327.612 118.36 326.432C118.36 325.21 118.675 324.262 119.304 323.588C119.933 322.913 120.748 322.576 121.751 322.576C122.722 322.576 123.515 322.907 124.13 323.567C124.745 324.228 125.053 325.158 125.053 326.356C125.053 326.429 125.05 326.539 125.046 326.685H119.632C119.677 327.482 119.903 328.093 120.309 328.517C120.714 328.94 121.22 329.152 121.826 329.152C122.277 329.152 122.662 329.034 122.981 328.797C123.3 328.56 123.553 328.182 123.74 327.662ZM119.7 325.673H123.754C123.699 325.062 123.544 324.604 123.289 324.299C122.897 323.825 122.389 323.588 121.765 323.588C121.2 323.588 120.723 323.777 120.336 324.155C119.953 324.534 119.741 325.039 119.7 325.673ZM130.446 330V322.74H131.554V323.841C131.836 323.326 132.096 322.986 132.333 322.822C132.575 322.658 132.839 322.576 133.126 322.576C133.541 322.576 133.962 322.708 134.391 322.973L133.967 324.114C133.666 323.937 133.365 323.848 133.064 323.848C132.796 323.848 132.554 323.93 132.34 324.094C132.126 324.253 131.973 324.477 131.882 324.764C131.745 325.201 131.677 325.68 131.677 326.199V330H130.446ZM140.092 327.662L141.363 327.819C141.163 328.562 140.791 329.139 140.249 329.549C139.707 329.959 139.014 330.164 138.171 330.164C137.109 330.164 136.266 329.838 135.642 329.187C135.022 328.53 134.712 327.612 134.712 326.432C134.712 325.21 135.026 324.262 135.655 323.588C136.284 322.913 137.1 322.576 138.103 322.576C139.073 322.576 139.866 322.907 140.481 323.567C141.097 324.228 141.404 325.158 141.404 326.356C141.404 326.429 141.402 326.539 141.397 326.685H135.983C136.029 327.482 136.255 328.093 136.66 328.517C137.066 328.94 137.572 329.152 138.178 329.152C138.629 329.152 139.014 329.034 139.333 328.797C139.652 328.56 139.905 328.182 140.092 327.662ZM136.052 325.673H140.105C140.051 325.062 139.896 324.604 139.641 324.299C139.249 323.825 138.741 323.588 138.116 323.588C137.551 323.588 137.075 323.777 136.688 324.155C136.305 324.534 136.093 325.039 136.052 325.673ZM142.423 327.833L143.64 327.642C143.708 328.129 143.897 328.503 144.207 328.763C144.521 329.022 144.959 329.152 145.52 329.152C146.085 329.152 146.504 329.038 146.777 328.811C147.051 328.578 147.188 328.307 147.188 327.997C147.188 327.719 147.067 327.5 146.825 327.341C146.657 327.231 146.237 327.092 145.567 326.924C144.665 326.696 144.038 326.5 143.688 326.336C143.341 326.167 143.077 325.937 142.895 325.646C142.717 325.349 142.628 325.023 142.628 324.668C142.628 324.344 142.701 324.046 142.847 323.772C142.997 323.494 143.2 323.264 143.455 323.082C143.646 322.941 143.906 322.822 144.234 322.727C144.567 322.626 144.923 322.576 145.301 322.576C145.87 322.576 146.369 322.658 146.798 322.822C147.231 322.986 147.55 323.21 147.755 323.492C147.96 323.77 148.101 324.144 148.179 324.613L146.976 324.777C146.921 324.404 146.761 324.112 146.497 323.902C146.237 323.693 145.868 323.588 145.39 323.588C144.825 323.588 144.421 323.681 144.18 323.868C143.938 324.055 143.817 324.274 143.817 324.524C143.817 324.684 143.868 324.827 143.968 324.955C144.068 325.087 144.225 325.197 144.439 325.283C144.562 325.329 144.925 325.434 145.526 325.598C146.397 325.83 147.003 326.021 147.345 326.172C147.691 326.318 147.962 326.532 148.158 326.814C148.354 327.097 148.452 327.448 148.452 327.867C148.452 328.277 148.331 328.665 148.09 329.029C147.853 329.389 147.509 329.67 147.058 329.87C146.606 330.066 146.096 330.164 145.526 330.164C144.583 330.164 143.863 329.968 143.366 329.576C142.874 329.184 142.56 328.603 142.423 327.833ZM149.457 326.37C149.457 325.026 149.831 324.03 150.578 323.383C151.202 322.845 151.964 322.576 152.861 322.576C153.859 322.576 154.675 322.904 155.309 323.561C155.942 324.212 156.259 325.115 156.259 326.268C156.259 327.202 156.118 327.938 155.835 328.476C155.557 329.009 155.149 329.424 154.611 329.72C154.078 330.016 153.495 330.164 152.861 330.164C151.845 330.164 151.022 329.838 150.394 329.187C149.769 328.535 149.457 327.596 149.457 326.37ZM150.722 326.37C150.722 327.3 150.924 327.997 151.33 328.462C151.736 328.922 152.246 329.152 152.861 329.152C153.472 329.152 153.98 328.92 154.386 328.455C154.791 327.99 154.994 327.282 154.994 326.329C154.994 325.431 154.789 324.752 154.379 324.292C153.973 323.827 153.467 323.595 152.861 323.595C152.246 323.595 151.736 323.825 151.33 324.285C150.924 324.745 150.722 325.44 150.722 326.37ZM162.466 330V328.934C161.901 329.754 161.133 330.164 160.162 330.164C159.734 330.164 159.333 330.082 158.959 329.918C158.59 329.754 158.314 329.549 158.132 329.303C157.954 329.052 157.829 328.747 157.756 328.387C157.706 328.145 157.681 327.762 157.681 327.238V322.74H158.911V326.767C158.911 327.409 158.936 327.842 158.986 328.065C159.064 328.389 159.228 328.644 159.479 328.831C159.729 329.013 160.039 329.104 160.408 329.104C160.777 329.104 161.124 329.011 161.447 328.824C161.771 328.633 161.999 328.375 162.131 328.052C162.268 327.724 162.336 327.25 162.336 326.63V322.74H163.566V330H162.466ZM165.487 330V322.74H166.595V323.841C166.877 323.326 167.137 322.986 167.374 322.822C167.616 322.658 167.88 322.576 168.167 322.576C168.582 322.576 169.003 322.708 169.432 322.973L169.008 324.114C168.707 323.937 168.406 323.848 168.105 323.848C167.837 323.848 167.595 323.93 167.381 324.094C167.167 324.253 167.014 324.477 166.923 324.764C166.786 325.201 166.718 325.68 166.718 326.199V330H165.487ZM174.9 327.341L176.11 327.498C175.978 328.332 175.639 328.986 175.092 329.46C174.549 329.929 173.882 330.164 173.089 330.164C172.095 330.164 171.296 329.84 170.689 329.193C170.088 328.542 169.787 327.61 169.787 326.397C169.787 325.614 169.917 324.928 170.177 324.34C170.437 323.752 170.831 323.312 171.359 323.021C171.893 322.724 172.471 322.576 173.096 322.576C173.884 322.576 174.529 322.777 175.03 323.178C175.532 323.574 175.853 324.139 175.994 324.873L174.798 325.058C174.684 324.57 174.481 324.203 174.189 323.957C173.902 323.711 173.554 323.588 173.144 323.588C172.524 323.588 172.02 323.811 171.633 324.258C171.245 324.7 171.052 325.402 171.052 326.363C171.052 327.339 171.239 328.047 171.612 328.489C171.986 328.931 172.474 329.152 173.075 329.152C173.558 329.152 173.962 329.004 174.285 328.708C174.609 328.412 174.814 327.956 174.9 327.341ZM182.133 327.662L183.404 327.819C183.204 328.562 182.832 329.139 182.29 329.549C181.748 329.959 181.055 330.164 180.212 330.164C179.15 330.164 178.307 329.838 177.683 329.187C177.063 328.53 176.753 327.612 176.753 326.432C176.753 325.21 177.067 324.262 177.696 323.588C178.325 322.913 179.141 322.576 180.144 322.576C181.114 322.576 181.907 322.907 182.522 323.567C183.138 324.228 183.445 325.158 183.445 326.356C183.445 326.429 183.443 326.539 183.438 326.685H178.024C178.07 327.482 178.296 328.093 178.701 328.517C179.107 328.94 179.613 329.152 180.219 329.152C180.67 329.152 181.055 329.034 181.374 328.797C181.693 328.56 181.946 328.182 182.133 327.662ZM178.093 325.673H182.146C182.092 325.062 181.937 324.604 181.682 324.299C181.29 323.825 180.782 323.588 180.157 323.588C179.592 323.588 179.116 323.777 178.729 324.155C178.346 324.534 178.134 325.039 178.093 325.673ZM190.869 330L188.107 322.74H189.406L190.965 327.088C191.133 327.557 191.288 328.045 191.43 328.551C191.539 328.168 191.692 327.708 191.888 327.17L193.501 322.74H194.766L192.018 330H190.869ZM195.859 321.394V319.979H197.09V321.394H195.859ZM195.859 330V322.74H197.09V330H195.859ZM198.478 327.833L199.694 327.642C199.763 328.129 199.952 328.503 200.262 328.763C200.576 329.022 201.014 329.152 201.574 329.152C202.139 329.152 202.559 329.038 202.832 328.811C203.105 328.578 203.242 328.307 203.242 327.997C203.242 327.719 203.121 327.5 202.88 327.341C202.711 327.231 202.292 327.092 201.622 326.924C200.72 326.696 200.093 326.5 199.742 326.336C199.396 326.167 199.132 325.937 198.949 325.646C198.771 325.349 198.683 325.023 198.683 324.668C198.683 324.344 198.756 324.046 198.901 323.772C199.052 323.494 199.255 323.264 199.51 323.082C199.701 322.941 199.961 322.822 200.289 322.727C200.622 322.626 200.977 322.576 201.355 322.576C201.925 322.576 202.424 322.658 202.853 322.822C203.285 322.986 203.604 323.21 203.81 323.492C204.015 323.77 204.156 324.144 204.233 324.613L203.03 324.777C202.976 324.404 202.816 324.112 202.552 323.902C202.292 323.693 201.923 323.588 201.444 323.588C200.879 323.588 200.476 323.681 200.234 323.868C199.993 324.055 199.872 324.274 199.872 324.524C199.872 324.684 199.922 324.827 200.022 324.955C200.123 325.087 200.28 325.197 200.494 325.283C200.617 325.329 200.979 325.434 201.581 325.598C202.451 325.83 203.058 326.021 203.399 326.172C203.746 326.318 204.017 326.532 204.213 326.814C204.409 327.097 204.507 327.448 204.507 327.867C204.507 328.277 204.386 328.665 204.145 329.029C203.908 329.389 203.563 329.67 203.112 329.87C202.661 330.066 202.151 330.164 201.581 330.164C200.638 330.164 199.918 329.968 199.421 329.576C198.929 329.184 198.614 328.603 198.478 327.833ZM210.728 330V328.934C210.162 329.754 209.395 330.164 208.424 330.164C207.995 330.164 207.594 330.082 207.221 329.918C206.852 329.754 206.576 329.549 206.394 329.303C206.216 329.052 206.09 328.747 206.018 328.387C205.967 328.145 205.942 327.762 205.942 327.238V322.74H207.173V326.767C207.173 327.409 207.198 327.842 207.248 328.065C207.326 328.389 207.49 328.644 207.74 328.831C207.991 329.013 208.301 329.104 208.67 329.104C209.039 329.104 209.385 329.011 209.709 328.824C210.033 328.633 210.26 328.375 210.393 328.052C210.529 327.724 210.598 327.25 210.598 326.63V322.74H211.828V330H210.728ZM218.5 329.104C218.044 329.492 217.604 329.765 217.181 329.925C216.761 330.084 216.31 330.164 215.827 330.164C215.03 330.164 214.417 329.97 213.988 329.583C213.56 329.191 213.346 328.692 213.346 328.086C213.346 327.73 213.425 327.407 213.585 327.115C213.749 326.819 213.961 326.582 214.221 326.404C214.485 326.227 214.781 326.092 215.109 326.001C215.351 325.937 215.715 325.876 216.203 325.816C217.197 325.698 217.928 325.557 218.397 325.393C218.402 325.224 218.404 325.117 218.404 325.071C218.404 324.57 218.288 324.217 218.056 324.012C217.741 323.734 217.274 323.595 216.654 323.595C216.076 323.595 215.647 323.697 215.369 323.902C215.096 324.103 214.893 324.461 214.761 324.976L213.558 324.812C213.667 324.297 213.847 323.882 214.098 323.567C214.348 323.248 214.711 323.005 215.185 322.836C215.659 322.663 216.208 322.576 216.832 322.576C217.452 322.576 217.955 322.649 218.343 322.795C218.73 322.941 219.015 323.125 219.197 323.349C219.38 323.567 219.507 323.845 219.58 324.183C219.621 324.392 219.642 324.771 219.642 325.317V326.958C219.642 328.102 219.667 328.826 219.717 329.132C219.771 329.433 219.876 329.722 220.031 330H218.746C218.618 329.745 218.536 329.446 218.5 329.104ZM218.397 326.356C217.951 326.539 217.281 326.694 216.388 326.821C215.882 326.894 215.524 326.976 215.314 327.067C215.105 327.159 214.943 327.293 214.829 327.471C214.715 327.644 214.658 327.838 214.658 328.052C214.658 328.38 214.781 328.653 215.027 328.872C215.278 329.091 215.643 329.2 216.121 329.2C216.595 329.2 217.017 329.098 217.386 328.893C217.755 328.683 218.026 328.398 218.199 328.038C218.331 327.76 218.397 327.35 218.397 326.808V326.356ZM221.528 330V319.979H222.759V330H221.528ZM224.68 321.394V319.979H225.91V321.394H224.68ZM224.68 330V322.74H225.91V330H224.68ZM227.141 330V329.002L231.762 323.697C231.238 323.725 230.775 323.738 230.374 323.738H227.414V322.74H233.348V323.554L229.417 328.161L228.658 329.002C229.21 328.961 229.727 328.94 230.21 328.94H233.566V330H227.141ZM239.527 329.104C239.072 329.492 238.632 329.765 238.208 329.925C237.789 330.084 237.338 330.164 236.854 330.164C236.057 330.164 235.444 329.97 235.016 329.583C234.587 329.191 234.373 328.692 234.373 328.086C234.373 327.73 234.453 327.407 234.612 327.115C234.776 326.819 234.988 326.582 235.248 326.404C235.512 326.227 235.809 326.092 236.137 326.001C236.378 325.937 236.743 325.876 237.23 325.816C238.224 325.698 238.955 325.557 239.425 325.393C239.429 325.224 239.432 325.117 239.432 325.071C239.432 324.57 239.315 324.217 239.083 324.012C238.769 323.734 238.301 323.595 237.682 323.595C237.103 323.595 236.674 323.697 236.396 323.902C236.123 324.103 235.92 324.461 235.788 324.976L234.585 324.812C234.694 324.297 234.874 323.882 235.125 323.567C235.376 323.248 235.738 323.005 236.212 322.836C236.686 322.663 237.235 322.576 237.859 322.576C238.479 322.576 238.983 322.649 239.37 322.795C239.757 322.941 240.042 323.125 240.225 323.349C240.407 323.567 240.535 323.845 240.607 324.183C240.648 324.392 240.669 324.771 240.669 325.317V326.958C240.669 328.102 240.694 328.826 240.744 329.132C240.799 329.433 240.904 329.722 241.059 330H239.773C239.646 329.745 239.564 329.446 239.527 329.104ZM239.425 326.356C238.978 326.539 238.308 326.694 237.415 326.821C236.909 326.894 236.551 326.976 236.342 327.067C236.132 327.159 235.97 327.293 235.856 327.471C235.743 327.644 235.686 327.838 235.686 328.052C235.686 328.38 235.809 328.653 236.055 328.872C236.305 329.091 236.67 329.2 237.148 329.2C237.622 329.2 238.044 329.098 238.413 328.893C238.782 328.683 239.053 328.398 239.227 328.038C239.359 327.76 239.425 327.35 239.425 326.808V326.356ZM245.27 328.899L245.447 329.986C245.101 330.059 244.791 330.096 244.518 330.096C244.071 330.096 243.725 330.025 243.479 329.884C243.232 329.743 243.059 329.558 242.959 329.33C242.859 329.098 242.809 328.612 242.809 327.874V323.697H241.906V322.74H242.809V320.942L244.032 320.204V322.74H245.27V323.697H244.032V327.942C244.032 328.293 244.053 328.519 244.094 328.619C244.139 328.719 244.21 328.799 244.306 328.858C244.406 328.918 244.547 328.947 244.729 328.947C244.866 328.947 245.046 328.931 245.27 328.899ZM246.486 321.394V319.979H247.717V321.394H246.486ZM246.486 330V322.74H247.717V330H246.486ZM249.139 326.37C249.139 325.026 249.512 324.03 250.26 323.383C250.884 322.845 251.645 322.576 252.543 322.576C253.541 322.576 254.357 322.904 254.99 323.561C255.624 324.212 255.94 325.115 255.94 326.268C255.94 327.202 255.799 327.938 255.517 328.476C255.239 329.009 254.831 329.424 254.293 329.72C253.76 330.016 253.176 330.164 252.543 330.164C251.527 330.164 250.704 329.838 250.075 329.187C249.451 328.535 249.139 327.596 249.139 326.37ZM250.403 326.37C250.403 327.3 250.606 327.997 251.012 328.462C251.417 328.922 251.928 329.152 252.543 329.152C253.154 329.152 253.662 328.92 254.067 328.455C254.473 327.99 254.676 327.282 254.676 326.329C254.676 325.431 254.471 324.752 254.061 324.292C253.655 323.827 253.149 323.595 252.543 323.595C251.928 323.595 251.417 323.825 251.012 324.285C250.606 324.745 250.403 325.44 250.403 326.37ZM257.39 330V322.74H258.497V323.772C259.03 322.975 259.8 322.576 260.808 322.576C261.245 322.576 261.646 322.656 262.011 322.815C262.38 322.97 262.656 323.175 262.838 323.431C263.02 323.686 263.148 323.989 263.221 324.34C263.266 324.568 263.289 324.966 263.289 325.536V330H262.059V325.584C262.059 325.083 262.011 324.709 261.915 324.463C261.819 324.212 261.648 324.014 261.402 323.868C261.161 323.718 260.876 323.643 260.548 323.643C260.024 323.643 259.57 323.809 259.188 324.142C258.809 324.474 258.62 325.105 258.62 326.035V330H257.39Z" fill="black"/>
</g>
<rect x="0.5" y="0.5" width="517" height="349" rx="7.5" stroke="#383838"/>
<defs>
<clipPath id="clip0_53_150">
<rect width="518" height="350" rx="8" fill="white"/>
</clipPath>
</defs>
</svg>
