<svg width="518" height="350" viewBox="0 0 518 350" fill="none" xmlns="http://www.w3.org/2000/svg">
<g clip-path="url(#clip0_53_138)">
<rect width="518" height="32" fill="#CDCDCD"/>
<rect x="58" y="45" width="447" height="180" rx="8" fill="#E0E0E0"/>
<rect x="58" y="236" width="227" height="121" rx="8" fill="#E0E0E0"/>
<rect x="294" y="236" width="211" height="121" rx="8" fill="#E0E0E0"/>
<rect x="45" y="32" width="318" height="45" transform="rotate(90 45 32)" fill="#F5F5F5"/>
<rect x="7" y="61" width="31" height="31" rx="8" fill="#D9D9D9"/>
<rect x="7" y="100" width="31" height="31" rx="8" fill="#D9D9D9"/>
<rect x="7" y="139" width="31" height="31" rx="8" fill="#D9D9D9"/>
<path d="M20.0186 21V10.9785H27.4492V12.6738H22.042V14.8955H27.0732V16.584H22.042V19.3115H27.6406V21H20.0186ZM28.4199 21L31.0381 17.2607L28.5293 13.7402H30.874L32.1592 15.7363L33.5127 13.7402H35.7686L33.3076 17.1787L35.9941 21H33.6357L32.1592 18.751L30.6689 21H28.4199ZM37.0811 13.7402H38.8721V14.8066C39.1045 14.4421 39.4189 14.1458 39.8154 13.918C40.2119 13.6901 40.6517 13.5762 41.1348 13.5762C41.9779 13.5762 42.6934 13.9066 43.2812 14.5674C43.8691 15.2282 44.1631 16.1488 44.1631 17.3291C44.1631 18.5413 43.8669 19.4847 43.2744 20.1592C42.682 20.8291 41.9642 21.1641 41.1211 21.1641C40.7201 21.1641 40.3555 21.0843 40.0273 20.9248C39.7038 20.7653 39.362 20.4919 39.002 20.1045V23.7617H37.0811V13.7402ZM38.9814 17.2471C38.9814 18.0628 39.1432 18.6667 39.4668 19.0586C39.7904 19.446 40.1846 19.6396 40.6494 19.6396C41.096 19.6396 41.4674 19.4619 41.7637 19.1064C42.0599 18.7464 42.208 18.1585 42.208 17.3428C42.208 16.5817 42.0553 16.0166 41.75 15.6475C41.4447 15.2783 41.0664 15.0938 40.6152 15.0938C40.1458 15.0938 39.7562 15.276 39.4463 15.6406C39.1364 16.0007 38.9814 16.5361 38.9814 17.2471ZM45.6943 21V10.9785H47.6152V21H45.6943ZM49.1465 17.2676C49.1465 16.6296 49.3037 16.012 49.6182 15.415C49.9326 14.818 50.377 14.3623 50.9512 14.0479C51.5299 13.7334 52.1748 13.5762 52.8857 13.5762C53.984 13.5762 54.8841 13.9339 55.5859 14.6494C56.2878 15.3604 56.6387 16.2604 56.6387 17.3496C56.6387 18.4479 56.2832 19.3594 55.5723 20.084C54.8659 20.804 53.9749 21.1641 52.8994 21.1641C52.234 21.1641 51.5983 21.0137 50.9922 20.7129C50.3906 20.4121 49.9326 19.9723 49.6182 19.3936C49.3037 18.8102 49.1465 18.1016 49.1465 17.2676ZM51.1152 17.3701C51.1152 18.0902 51.2861 18.6416 51.6279 19.0244C51.9697 19.4072 52.3913 19.5986 52.8926 19.5986C53.3939 19.5986 53.8132 19.4072 54.1504 19.0244C54.4922 18.6416 54.6631 18.0856 54.6631 17.3564C54.6631 16.6455 54.4922 16.0986 54.1504 15.7158C53.8132 15.333 53.3939 15.1416 52.8926 15.1416C52.3913 15.1416 51.9697 15.333 51.6279 15.7158C51.2861 16.0986 51.1152 16.6501 51.1152 17.3701ZM59.9883 21H58.0674V13.7402H59.8516V14.7725C60.1569 14.2848 60.4303 13.9635 60.6719 13.8086C60.918 13.6536 61.196 13.5762 61.5059 13.5762C61.9434 13.5762 62.3649 13.6969 62.7705 13.9385L62.1758 15.6133C61.8522 15.4036 61.5514 15.2988 61.2734 15.2988C61.0046 15.2988 60.7767 15.374 60.5898 15.5244C60.403 15.6702 60.2549 15.9368 60.1455 16.3242C60.0407 16.7116 59.9883 17.5228 59.9883 18.7578V21ZM67.8086 18.6895L69.7227 19.0107C69.4766 19.7126 69.0869 20.248 68.5537 20.6172C68.0251 20.9818 67.362 21.1641 66.5645 21.1641C65.3021 21.1641 64.3678 20.7516 63.7617 19.9268C63.2832 19.266 63.0439 18.432 63.0439 17.4248C63.0439 16.2217 63.3584 15.2806 63.9873 14.6016C64.6162 13.918 65.4115 13.5762 66.373 13.5762C67.4531 13.5762 68.3053 13.9339 68.9297 14.6494C69.554 15.3604 69.8525 16.4518 69.8252 17.9238H65.0127C65.0264 18.4935 65.1813 18.9378 65.4775 19.2568C65.7738 19.5713 66.1429 19.7285 66.585 19.7285C66.8857 19.7285 67.1387 19.6465 67.3438 19.4824C67.5488 19.3184 67.7038 19.054 67.8086 18.6895ZM67.918 16.748C67.9043 16.1921 67.7607 15.7705 67.4873 15.4834C67.2139 15.1917 66.8812 15.0459 66.4893 15.0459C66.07 15.0459 65.7236 15.1986 65.4502 15.5039C65.1768 15.8092 65.0423 16.224 65.0469 16.748H67.918ZM73.2363 21H71.3154V13.7402H73.0996V14.7725C73.4049 14.2848 73.6784 13.9635 73.9199 13.8086C74.166 13.6536 74.444 13.5762 74.7539 13.5762C75.1914 13.5762 75.613 13.6969 76.0186 13.9385L75.4238 15.6133C75.1003 15.4036 74.7995 15.2988 74.5215 15.2988C74.2526 15.2988 74.0247 15.374 73.8379 15.5244C73.651 15.6702 73.5029 15.9368 73.3936 16.3242C73.2887 16.7116 73.2363 17.5228 73.2363 18.7578V21ZM83.3193 21L79.7373 10.9785H81.9316L84.4678 18.3955L86.9219 10.9785H89.0684L85.4795 21H83.3193ZM89.8271 12.7559V10.9785H91.748V12.7559H89.8271ZM89.8271 21V13.7402H91.748V21H89.8271ZM97.9277 18.6895L99.8418 19.0107C99.5957 19.7126 99.2061 20.248 98.6729 20.6172C98.1442 20.9818 97.4811 21.1641 96.6836 21.1641C95.4212 21.1641 94.487 20.7516 93.8809 19.9268C93.4023 19.266 93.1631 18.432 93.1631 17.4248C93.1631 16.2217 93.4775 15.2806 94.1064 14.6016C94.7354 13.918 95.5306 13.5762 96.4922 13.5762C97.5723 13.5762 98.4245 13.9339 99.0488 14.6494C99.6732 15.3604 99.9717 16.4518 99.9443 17.9238H95.1318C95.1455 18.4935 95.3005 18.9378 95.5967 19.2568C95.8929 19.5713 96.262 19.7285 96.7041 19.7285C97.0049 19.7285 97.2578 19.6465 97.4629 19.4824C97.668 19.3184 97.8229 19.054 97.9277 18.6895ZM98.0371 16.748C98.0234 16.1921 97.8799 15.7705 97.6064 15.4834C97.333 15.1917 97.0003 15.0459 96.6084 15.0459C96.1891 15.0459 95.8428 15.1986 95.5693 15.5039C95.2959 15.8092 95.1615 16.224 95.166 16.748H98.0371ZM102.87 21L100.573 13.7402H102.439L103.8 18.498L105.051 13.7402H106.903L108.113 18.498L109.501 13.7402H111.395L109.063 21H107.218L105.967 16.3311L104.736 21H102.87Z" fill="black"/>
<path d="M210.306 139V128.979H211.632V139H210.306ZM213.819 139V131.74H214.927V132.772C215.46 131.975 216.23 131.576 217.237 131.576C217.675 131.576 218.076 131.656 218.44 131.815C218.81 131.97 219.085 132.175 219.268 132.431C219.45 132.686 219.577 132.989 219.65 133.34C219.696 133.568 219.719 133.966 219.719 134.536V139H218.488V134.584C218.488 134.083 218.44 133.709 218.345 133.463C218.249 133.212 218.078 133.014 217.832 132.868C217.59 132.718 217.306 132.643 216.978 132.643C216.453 132.643 216 132.809 215.617 133.142C215.239 133.474 215.05 134.105 215.05 135.035V139H213.819ZM221.906 139V132.697H220.819V131.74H221.906V130.968C221.906 130.48 221.95 130.118 222.036 129.881C222.155 129.562 222.362 129.304 222.658 129.108C222.959 128.908 223.378 128.808 223.916 128.808C224.262 128.808 224.645 128.849 225.064 128.931L224.88 130.004C224.625 129.958 224.383 129.936 224.155 129.936C223.782 129.936 223.517 130.015 223.362 130.175C223.207 130.334 223.13 130.633 223.13 131.07V131.74H224.545V132.697H223.13V139H221.906ZM225.495 139V131.74H226.603V132.841C226.885 132.326 227.145 131.986 227.382 131.822C227.623 131.658 227.888 131.576 228.175 131.576C228.59 131.576 229.011 131.708 229.439 131.973L229.016 133.114C228.715 132.937 228.414 132.848 228.113 132.848C227.844 132.848 227.603 132.93 227.389 133.094C227.174 133.253 227.022 133.477 226.931 133.764C226.794 134.201 226.726 134.68 226.726 135.199V139H225.495ZM234.908 138.104C234.452 138.492 234.013 138.765 233.589 138.925C233.17 139.084 232.718 139.164 232.235 139.164C231.438 139.164 230.825 138.97 230.396 138.583C229.968 138.191 229.754 137.692 229.754 137.086C229.754 136.73 229.834 136.407 229.993 136.115C230.157 135.819 230.369 135.582 230.629 135.404C230.893 135.227 231.189 135.092 231.518 135.001C231.759 134.937 232.124 134.876 232.611 134.816C233.605 134.698 234.336 134.557 234.806 134.393C234.81 134.224 234.812 134.117 234.812 134.071C234.812 133.57 234.696 133.217 234.464 133.012C234.149 132.734 233.682 132.595 233.062 132.595C232.484 132.595 232.055 132.697 231.777 132.902C231.504 133.103 231.301 133.461 231.169 133.976L229.966 133.812C230.075 133.297 230.255 132.882 230.506 132.567C230.757 132.248 231.119 132.005 231.593 131.836C232.067 131.663 232.616 131.576 233.24 131.576C233.86 131.576 234.364 131.649 234.751 131.795C235.138 131.941 235.423 132.125 235.605 132.349C235.788 132.567 235.915 132.845 235.988 133.183C236.029 133.392 236.05 133.771 236.05 134.317V135.958C236.05 137.102 236.075 137.826 236.125 138.132C236.18 138.433 236.285 138.722 236.439 139H235.154C235.027 138.745 234.945 138.446 234.908 138.104ZM234.806 135.356C234.359 135.539 233.689 135.694 232.796 135.821C232.29 135.894 231.932 135.976 231.723 136.067C231.513 136.159 231.351 136.293 231.237 136.471C231.123 136.644 231.066 136.838 231.066 137.052C231.066 137.38 231.189 137.653 231.436 137.872C231.686 138.091 232.051 138.2 232.529 138.2C233.003 138.2 233.425 138.098 233.794 137.893C234.163 137.683 234.434 137.398 234.607 137.038C234.74 136.76 234.806 136.35 234.806 135.808V135.356ZM237.472 136.833L238.688 136.642C238.757 137.129 238.946 137.503 239.256 137.763C239.57 138.022 240.008 138.152 240.568 138.152C241.133 138.152 241.553 138.038 241.826 137.811C242.1 137.578 242.236 137.307 242.236 136.997C242.236 136.719 242.116 136.5 241.874 136.341C241.705 136.231 241.286 136.092 240.616 135.924C239.714 135.696 239.087 135.5 238.736 135.336C238.39 135.167 238.126 134.937 237.943 134.646C237.766 134.349 237.677 134.023 237.677 133.668C237.677 133.344 237.75 133.046 237.896 132.772C238.046 132.494 238.249 132.264 238.504 132.082C238.695 131.941 238.955 131.822 239.283 131.727C239.616 131.626 239.971 131.576 240.35 131.576C240.919 131.576 241.418 131.658 241.847 131.822C242.28 131.986 242.599 132.21 242.804 132.492C243.009 132.77 243.15 133.144 243.228 133.613L242.024 133.777C241.97 133.404 241.81 133.112 241.546 132.902C241.286 132.693 240.917 132.588 240.438 132.588C239.873 132.588 239.47 132.681 239.229 132.868C238.987 133.055 238.866 133.274 238.866 133.524C238.866 133.684 238.916 133.827 239.017 133.955C239.117 134.087 239.274 134.197 239.488 134.283C239.611 134.329 239.974 134.434 240.575 134.598C241.446 134.83 242.052 135.021 242.394 135.172C242.74 135.318 243.011 135.532 243.207 135.814C243.403 136.097 243.501 136.448 243.501 136.867C243.501 137.277 243.38 137.665 243.139 138.029C242.902 138.389 242.558 138.67 242.106 138.87C241.655 139.066 241.145 139.164 240.575 139.164C239.632 139.164 238.912 138.968 238.415 138.576C237.923 138.184 237.608 137.603 237.472 136.833ZM247.65 137.899L247.828 138.986C247.482 139.059 247.172 139.096 246.898 139.096C246.452 139.096 246.105 139.025 245.859 138.884C245.613 138.743 245.44 138.558 245.34 138.33C245.24 138.098 245.189 137.612 245.189 136.874V132.697H244.287V131.74H245.189V129.942L246.413 129.204V131.74H247.65V132.697H246.413V136.942C246.413 137.293 246.434 137.519 246.475 137.619C246.52 137.719 246.591 137.799 246.687 137.858C246.787 137.918 246.928 137.947 247.11 137.947C247.247 137.947 247.427 137.931 247.65 137.899ZM248.847 139V131.74H249.954V132.841C250.237 132.326 250.496 131.986 250.733 131.822C250.975 131.658 251.239 131.576 251.526 131.576C251.941 131.576 252.363 131.708 252.791 131.973L252.367 133.114C252.066 132.937 251.766 132.848 251.465 132.848C251.196 132.848 250.954 132.93 250.74 133.094C250.526 133.253 250.373 133.477 250.282 133.764C250.146 134.201 250.077 134.68 250.077 135.199V139H248.847ZM258.28 139V137.934C257.715 138.754 256.947 139.164 255.977 139.164C255.548 139.164 255.147 139.082 254.773 138.918C254.404 138.754 254.129 138.549 253.946 138.303C253.769 138.052 253.643 137.747 253.57 137.387C253.52 137.145 253.495 136.762 253.495 136.238V131.74H254.726V135.767C254.726 136.409 254.751 136.842 254.801 137.065C254.878 137.389 255.042 137.644 255.293 137.831C255.544 138.013 255.854 138.104 256.223 138.104C256.592 138.104 256.938 138.011 257.262 137.824C257.585 137.633 257.813 137.375 257.945 137.052C258.082 136.724 258.15 136.25 258.15 135.63V131.74H259.381V139H258.28ZM266.053 136.341L267.263 136.498C267.131 137.332 266.791 137.986 266.244 138.46C265.702 138.929 265.034 139.164 264.241 139.164C263.248 139.164 262.448 138.84 261.842 138.193C261.24 137.542 260.939 136.61 260.939 135.397C260.939 134.614 261.069 133.928 261.329 133.34C261.589 132.752 261.983 132.312 262.512 132.021C263.045 131.724 263.624 131.576 264.248 131.576C265.036 131.576 265.681 131.777 266.183 132.178C266.684 132.574 267.005 133.139 267.146 133.873L265.95 134.058C265.836 133.57 265.633 133.203 265.342 132.957C265.055 132.711 264.706 132.588 264.296 132.588C263.676 132.588 263.173 132.811 262.785 133.258C262.398 133.7 262.204 134.402 262.204 135.363C262.204 136.339 262.391 137.047 262.765 137.489C263.138 137.931 263.626 138.152 264.228 138.152C264.711 138.152 265.114 138.004 265.438 137.708C265.761 137.412 265.966 136.956 266.053 136.341ZM271.002 137.899L271.18 138.986C270.833 139.059 270.523 139.096 270.25 139.096C269.803 139.096 269.457 139.025 269.211 138.884C268.965 138.743 268.792 138.558 268.691 138.33C268.591 138.098 268.541 137.612 268.541 136.874V132.697H267.639V131.74H268.541V129.942L269.765 129.204V131.74H271.002V132.697H269.765V136.942C269.765 137.293 269.785 137.519 269.826 137.619C269.872 137.719 269.942 137.799 270.038 137.858C270.138 137.918 270.28 137.947 270.462 137.947C270.599 137.947 270.779 137.931 271.002 137.899ZM276.97 139V137.934C276.405 138.754 275.637 139.164 274.666 139.164C274.238 139.164 273.837 139.082 273.463 138.918C273.094 138.754 272.818 138.549 272.636 138.303C272.458 138.052 272.333 137.747 272.26 137.387C272.21 137.145 272.185 136.762 272.185 136.238V131.74H273.415V135.767C273.415 136.409 273.44 136.842 273.49 137.065C273.568 137.389 273.732 137.644 273.982 137.831C274.233 138.013 274.543 138.104 274.912 138.104C275.281 138.104 275.628 138.011 275.951 137.824C276.275 137.633 276.503 137.375 276.635 137.052C276.771 136.724 276.84 136.25 276.84 135.63V131.74H278.07V139H276.97ZM279.991 139V131.74H281.099V132.841C281.381 132.326 281.641 131.986 281.878 131.822C282.119 131.658 282.384 131.576 282.671 131.576C283.086 131.576 283.507 131.708 283.936 131.973L283.512 133.114C283.211 132.937 282.91 132.848 282.609 132.848C282.34 132.848 282.099 132.93 281.885 133.094C281.671 133.253 281.518 133.477 281.427 133.764C281.29 134.201 281.222 134.68 281.222 135.199V139H279.991ZM289.637 136.662L290.908 136.819C290.708 137.562 290.336 138.139 289.794 138.549C289.252 138.959 288.559 139.164 287.716 139.164C286.654 139.164 285.811 138.838 285.187 138.187C284.567 137.53 284.257 136.612 284.257 135.432C284.257 134.21 284.571 133.262 285.2 132.588C285.829 131.913 286.645 131.576 287.647 131.576C288.618 131.576 289.411 131.907 290.026 132.567C290.642 133.228 290.949 134.158 290.949 135.356C290.949 135.429 290.947 135.539 290.942 135.685H285.528C285.574 136.482 285.799 137.093 286.205 137.517C286.611 137.94 287.117 138.152 287.723 138.152C288.174 138.152 288.559 138.034 288.878 137.797C289.197 137.56 289.45 137.182 289.637 136.662ZM285.597 134.673H289.65C289.596 134.062 289.441 133.604 289.186 133.299C288.794 132.825 288.285 132.588 287.661 132.588C287.096 132.588 286.62 132.777 286.232 133.155C285.85 133.534 285.638 134.039 285.597 134.673ZM295.898 135.37C295.898 134.026 296.272 133.03 297.02 132.383C297.644 131.845 298.405 131.576 299.303 131.576C300.301 131.576 301.117 131.904 301.75 132.561C302.383 133.212 302.7 134.115 302.7 135.268C302.7 136.202 302.559 136.938 302.276 137.476C301.998 138.009 301.59 138.424 301.053 138.72C300.52 139.016 299.936 139.164 299.303 139.164C298.286 139.164 297.464 138.838 296.835 138.187C296.211 137.535 295.898 136.596 295.898 135.37ZM297.163 135.37C297.163 136.3 297.366 136.997 297.771 137.462C298.177 137.922 298.688 138.152 299.303 138.152C299.913 138.152 300.422 137.92 300.827 137.455C301.233 136.99 301.436 136.282 301.436 135.329C301.436 134.431 301.23 133.752 300.82 133.292C300.415 132.827 299.909 132.595 299.303 132.595C298.688 132.595 298.177 132.825 297.771 133.285C297.366 133.745 297.163 134.44 297.163 135.37ZM306.166 139L303.404 131.74H304.703L306.262 136.088C306.43 136.557 306.585 137.045 306.727 137.551C306.836 137.168 306.989 136.708 307.185 136.17L308.798 131.74H310.062L307.314 139H306.166ZM316.119 136.662L317.391 136.819C317.19 137.562 316.819 138.139 316.276 138.549C315.734 138.959 315.041 139.164 314.198 139.164C313.136 139.164 312.293 138.838 311.669 138.187C311.049 137.53 310.739 136.612 310.739 135.432C310.739 134.21 311.054 133.262 311.683 132.588C312.312 131.913 313.127 131.576 314.13 131.576C315.101 131.576 315.894 131.907 316.509 132.567C317.124 133.228 317.432 134.158 317.432 135.356C317.432 135.429 317.429 135.539 317.425 135.685H312.011C312.056 136.482 312.282 137.093 312.688 137.517C313.093 137.94 313.599 138.152 314.205 138.152C314.656 138.152 315.041 138.034 315.36 137.797C315.679 137.56 315.932 137.182 316.119 136.662ZM312.079 134.673H316.133C316.078 134.062 315.923 133.604 315.668 133.299C315.276 132.825 314.768 132.588 314.144 132.588C313.578 132.588 313.102 132.777 312.715 133.155C312.332 133.534 312.12 134.039 312.079 134.673ZM318.929 139V131.74H320.036V132.841C320.319 132.326 320.578 131.986 320.815 131.822C321.057 131.658 321.321 131.576 321.608 131.576C322.023 131.576 322.445 131.708 322.873 131.973L322.449 133.114C322.148 132.937 321.848 132.848 321.547 132.848C321.278 132.848 321.036 132.93 320.822 133.094C320.608 133.253 320.455 133.477 320.364 133.764C320.228 134.201 320.159 134.68 320.159 135.199V139H318.929ZM325.621 139L322.859 131.74H324.158L325.717 136.088C325.885 136.557 326.04 137.045 326.182 137.551C326.291 137.168 326.444 136.708 326.64 136.17L328.253 131.74H329.518L326.77 139H325.621ZM330.611 130.394V128.979H331.842V130.394H330.611ZM330.611 139V131.74H331.842V139H330.611ZM338.691 136.662L339.963 136.819C339.762 137.562 339.391 138.139 338.849 138.549C338.306 138.959 337.614 139.164 336.771 139.164C335.709 139.164 334.866 138.838 334.241 138.187C333.621 137.53 333.312 136.612 333.312 135.432C333.312 134.21 333.626 133.262 334.255 132.588C334.884 131.913 335.7 131.576 336.702 131.576C337.673 131.576 338.466 131.907 339.081 132.567C339.696 133.228 340.004 134.158 340.004 135.356C340.004 135.429 340.002 135.539 339.997 135.685H334.583C334.629 136.482 334.854 137.093 335.26 137.517C335.665 137.94 336.171 138.152 336.777 138.152C337.229 138.152 337.614 138.034 337.933 137.797C338.252 137.56 338.505 137.182 338.691 136.662ZM334.651 134.673H338.705C338.65 134.062 338.495 133.604 338.24 133.299C337.848 132.825 337.34 132.588 336.716 132.588C336.151 132.588 335.674 132.777 335.287 133.155C334.904 133.534 334.692 134.039 334.651 134.673ZM342.854 139L340.633 131.74H341.904L343.06 135.931L343.49 137.489C343.508 137.412 343.634 136.913 343.866 135.992L345.021 131.74H346.286L347.373 135.951L347.735 137.339L348.152 135.938L349.396 131.74H350.593L348.323 139H347.045L345.89 134.652L345.609 133.415L344.14 139H342.854Z" fill="black"/>
</g>
<rect x="0.5" y="0.5" width="517" height="349" rx="7.5" stroke="#383838"/>
<defs>
<clipPath id="clip0_53_138">
<rect width="518" height="350" rx="8" fill="white"/>
</clipPath>
</defs>
</svg>
