<svg width="518" height="350" viewBox="0 0 518 350" fill="none" xmlns="http://www.w3.org/2000/svg">
<g clip-path="url(#clip0_53_172)">
<rect width="518" height="32" fill="#CDCDCD"/>
<rect x="58" y="45" width="447" height="289" rx="8" fill="#E0E0E0"/>
<rect x="174" y="160" width="100" height="30" rx="8" fill="#B3B3B3"/>
<rect x="283" y="160" width="100" height="30" rx="8" fill="#B3B3B3"/>
<rect x="392" y="160" width="100" height="30" rx="8" fill="#B3B3B3"/>
<rect x="73" y="61" width="419" height="90" rx="8" fill="#B3B3B3"/>
<rect x="73" y="199" width="419" height="90" rx="8" fill="#B3B3B3"/>
<rect x="45" y="32" width="318" height="45" transform="rotate(90 45 32)" fill="#F5F5F5"/>
<rect x="7" y="61" width="31" height="31" rx="8" fill="#D9D9D9"/>
<rect x="7" y="100" width="31" height="31" rx="8" fill="#D9D9D9"/>
<rect x="7" y="139" width="31" height="31" rx="8" fill="#D9D9D9"/>
<path d="M20.0254 21V10.9785H24.2842C25.3551 10.9785 26.1322 11.0697 26.6152 11.252C27.1029 11.4297 27.4925 11.7487 27.7842 12.209C28.0758 12.6693 28.2217 13.1956 28.2217 13.7881C28.2217 14.54 28.0007 15.1621 27.5586 15.6543C27.1165 16.1419 26.4557 16.4495 25.5762 16.5771C26.0137 16.8324 26.3737 17.1126 26.6562 17.418C26.9434 17.7233 27.3285 18.2656 27.8115 19.0449L29.0352 21H26.6152L25.1523 18.8193C24.6328 18.04 24.2773 17.5501 24.0859 17.3496C23.8945 17.1445 23.6917 17.0055 23.4775 16.9326C23.2633 16.8551 22.9238 16.8164 22.459 16.8164H22.0488V21H20.0254ZM22.0488 15.2168H23.5459C24.5166 15.2168 25.1227 15.1758 25.3643 15.0938C25.6058 15.0117 25.7949 14.8704 25.9316 14.6699C26.0684 14.4694 26.1367 14.2188 26.1367 13.918C26.1367 13.5807 26.0456 13.3096 25.8633 13.1045C25.6855 12.8949 25.4326 12.7627 25.1045 12.708C24.9404 12.6852 24.4482 12.6738 23.6279 12.6738H22.0488V15.2168ZM34.3262 18.6895L36.2402 19.0107C35.9941 19.7126 35.6045 20.248 35.0713 20.6172C34.5426 20.9818 33.8796 21.1641 33.082 21.1641C31.8197 21.1641 30.8854 20.7516 30.2793 19.9268C29.8008 19.266 29.5615 18.432 29.5615 17.4248C29.5615 16.2217 29.876 15.2806 30.5049 14.6016C31.1338 13.918 31.929 13.5762 32.8906 13.5762C33.9707 13.5762 34.8229 13.9339 35.4473 14.6494C36.0716 15.3604 36.3701 16.4518 36.3428 17.9238H31.5303C31.5439 18.4935 31.6989 18.9378 31.9951 19.2568C32.2913 19.5713 32.6605 19.7285 33.1025 19.7285C33.4033 19.7285 33.6562 19.6465 33.8613 19.4824C34.0664 19.3184 34.2214 19.054 34.3262 18.6895ZM34.4355 16.748C34.4219 16.1921 34.2783 15.7705 34.0049 15.4834C33.7314 15.1917 33.3988 15.0459 33.0068 15.0459C32.5876 15.0459 32.2412 15.1986 31.9678 15.5039C31.6943 15.8092 31.5599 16.224 31.5645 16.748H34.4355ZM37.2383 18.9287L39.166 18.6348C39.248 19.0085 39.4144 19.2933 39.665 19.4893C39.9157 19.6807 40.2666 19.7764 40.7178 19.7764C41.2145 19.7764 41.5882 19.6852 41.8389 19.5029C42.0075 19.3753 42.0918 19.2044 42.0918 18.9902C42.0918 18.8444 42.0462 18.7236 41.9551 18.6279C41.8594 18.5368 41.6452 18.4525 41.3125 18.375C39.763 18.0332 38.7809 17.721 38.3662 17.4385C37.792 17.0465 37.5049 16.502 37.5049 15.8047C37.5049 15.1758 37.7533 14.6471 38.25 14.2188C38.7467 13.7904 39.5169 13.5762 40.5605 13.5762C41.554 13.5762 42.2923 13.738 42.7754 14.0615C43.2585 14.3851 43.5911 14.8636 43.7734 15.4971L41.9619 15.832C41.8844 15.5495 41.7363 15.333 41.5176 15.1826C41.3034 15.0322 40.9958 14.957 40.5947 14.957C40.0889 14.957 39.7266 15.0277 39.5078 15.1689C39.362 15.2692 39.2891 15.3991 39.2891 15.5586C39.2891 15.6953 39.3529 15.8115 39.4805 15.9072C39.6536 16.0348 40.2507 16.2148 41.2715 16.4473C42.2969 16.6797 43.0124 16.9645 43.418 17.3018C43.819 17.6436 44.0195 18.1198 44.0195 18.7305C44.0195 19.3958 43.7415 19.9678 43.1855 20.4463C42.6296 20.9248 41.807 21.1641 40.7178 21.1641C39.7288 21.1641 38.945 20.9635 38.3662 20.5625C37.792 20.1615 37.416 19.6169 37.2383 18.9287ZM45.2637 17.2676C45.2637 16.6296 45.4209 16.012 45.7354 15.415C46.0498 14.818 46.4941 14.3623 47.0684 14.0479C47.6471 13.7334 48.292 13.5762 49.0029 13.5762C50.1012 13.5762 51.0013 13.9339 51.7031 14.6494C52.4049 15.3604 52.7559 16.2604 52.7559 17.3496C52.7559 18.4479 52.4004 19.3594 51.6895 20.084C50.9831 20.804 50.0921 21.1641 49.0166 21.1641C48.3512 21.1641 47.7155 21.0137 47.1094 20.7129C46.5078 20.4121 46.0498 19.9723 45.7354 19.3936C45.4209 18.8102 45.2637 18.1016 45.2637 17.2676ZM47.2324 17.3701C47.2324 18.0902 47.4033 18.6416 47.7451 19.0244C48.0869 19.4072 48.5085 19.5986 49.0098 19.5986C49.5111 19.5986 49.9303 19.4072 50.2676 19.0244C50.6094 18.6416 50.7803 18.0856 50.7803 17.3564C50.7803 16.6455 50.6094 16.0986 50.2676 15.7158C49.9303 15.333 49.5111 15.1416 49.0098 15.1416C48.5085 15.1416 48.0869 15.333 47.7451 15.7158C47.4033 16.0986 47.2324 16.6501 47.2324 17.3701ZM59.0449 21V19.9131C58.7806 20.3005 58.432 20.6058 57.999 20.8291C57.5706 21.0524 57.1172 21.1641 56.6387 21.1641C56.151 21.1641 55.7135 21.057 55.3262 20.8428C54.9388 20.6286 54.6585 20.3278 54.4854 19.9404C54.3122 19.5531 54.2256 19.0176 54.2256 18.334V13.7402H56.1465V17.0762C56.1465 18.097 56.1807 18.7236 56.249 18.9561C56.3219 19.1839 56.4518 19.3662 56.6387 19.5029C56.8255 19.6351 57.0625 19.7012 57.3496 19.7012C57.6777 19.7012 57.9717 19.6123 58.2314 19.4346C58.4912 19.2523 58.6689 19.029 58.7646 18.7646C58.8604 18.4958 58.9082 17.8418 58.9082 16.8027V13.7402H60.8291V21H59.0449ZM64.6641 21H62.7432V13.7402H64.5273V14.7725C64.8327 14.2848 65.1061 13.9635 65.3477 13.8086C65.5938 13.6536 65.8717 13.5762 66.1816 13.5762C66.6191 13.5762 67.0407 13.6969 67.4463 13.9385L66.8516 15.6133C66.528 15.4036 66.2272 15.2988 65.9492 15.2988C65.6803 15.2988 65.4525 15.374 65.2656 15.5244C65.0788 15.6702 64.9307 15.9368 64.8213 16.3242C64.7165 16.7116 64.6641 17.5228 64.6641 18.7578V21ZM74.6104 15.8867L72.7168 16.2285C72.653 15.8503 72.5072 15.5654 72.2793 15.374C72.056 15.1826 71.7643 15.0869 71.4043 15.0869C70.9258 15.0869 70.543 15.2533 70.2559 15.5859C69.9733 15.9141 69.832 16.4655 69.832 17.2402C69.832 18.1016 69.9756 18.71 70.2627 19.0654C70.5544 19.4209 70.944 19.5986 71.4316 19.5986C71.7962 19.5986 72.0947 19.4961 72.3271 19.291C72.5596 19.0814 72.7236 18.7236 72.8193 18.2178L74.7061 18.5391C74.5101 19.4049 74.1341 20.0589 73.5781 20.501C73.0221 20.943 72.277 21.1641 71.3428 21.1641C70.2809 21.1641 69.4333 20.8291 68.7998 20.1592C68.1709 19.4893 67.8564 18.5618 67.8564 17.377C67.8564 16.1784 68.1732 15.2464 68.8066 14.5811C69.4401 13.9111 70.2969 13.5762 71.377 13.5762C72.2611 13.5762 72.9629 13.7676 73.4824 14.1504C74.0065 14.5286 74.3825 15.1074 74.6104 15.8867ZM80.2773 18.6895L82.1914 19.0107C81.9453 19.7126 81.5557 20.248 81.0225 20.6172C80.4938 20.9818 79.8307 21.1641 79.0332 21.1641C77.7708 21.1641 76.8366 20.7516 76.2305 19.9268C75.752 19.266 75.5127 18.432 75.5127 17.4248C75.5127 16.2217 75.8271 15.2806 76.4561 14.6016C77.085 13.918 77.8802 13.5762 78.8418 13.5762C79.9219 13.5762 80.7741 13.9339 81.3984 14.6494C82.0228 15.3604 82.3213 16.4518 82.2939 17.9238H77.4814C77.4951 18.4935 77.6501 18.9378 77.9463 19.2568C78.2425 19.5713 78.6117 19.7285 79.0537 19.7285C79.3545 19.7285 79.6074 19.6465 79.8125 19.4824C80.0176 19.3184 80.1725 19.054 80.2773 18.6895ZM80.3867 16.748C80.373 16.1921 80.2295 15.7705 79.9561 15.4834C79.6826 15.1917 79.3499 15.0459 78.958 15.0459C78.5387 15.0459 78.1924 15.1986 77.9189 15.5039C77.6455 15.8092 77.5111 16.224 77.5156 16.748H80.3867ZM87.7695 10.9785H91.4678C92.3018 10.9785 92.9375 11.0423 93.375 11.1699C93.9629 11.3431 94.4665 11.6507 94.8857 12.0928C95.305 12.5348 95.624 13.0771 95.8428 13.7197C96.0615 14.3577 96.1709 15.1462 96.1709 16.085C96.1709 16.9098 96.0684 17.6208 95.8633 18.2178C95.6126 18.9469 95.2549 19.5371 94.79 19.9883C94.4391 20.3301 93.9652 20.5967 93.3682 20.7881C92.9215 20.9294 92.3245 21 91.5771 21H87.7695V10.9785ZM89.793 12.6738V19.3115H91.3037C91.8688 19.3115 92.2767 19.2796 92.5273 19.2158C92.8555 19.1338 93.1266 18.9948 93.3408 18.7988C93.5596 18.6029 93.7373 18.2816 93.874 17.835C94.0107 17.3838 94.0791 16.7708 94.0791 15.9961C94.0791 15.2214 94.0107 14.6266 93.874 14.2119C93.7373 13.7972 93.5459 13.4736 93.2998 13.2412C93.0537 13.0088 92.7415 12.8516 92.3633 12.7695C92.0807 12.7057 91.527 12.6738 90.7021 12.6738H89.793ZM102.084 18.6895L103.998 19.0107C103.752 19.7126 103.362 20.248 102.829 20.6172C102.3 20.9818 101.637 21.1641 100.84 21.1641C99.5775 21.1641 98.6432 20.7516 98.0371 19.9268C97.5586 19.266 97.3193 18.432 97.3193 17.4248C97.3193 16.2217 97.6338 15.2806 98.2627 14.6016C98.8916 13.918 99.6868 13.5762 100.648 13.5762C101.729 13.5762 102.581 13.9339 103.205 14.6494C103.829 15.3604 104.128 16.4518 104.101 17.9238H99.2881C99.3018 18.4935 99.4567 18.9378 99.7529 19.2568C100.049 19.5713 100.418 19.7285 100.86 19.7285C101.161 19.7285 101.414 19.6465 101.619 19.4824C101.824 19.3184 101.979 19.054 102.084 18.6895ZM102.193 16.748C102.18 16.1921 102.036 15.7705 101.763 15.4834C101.489 15.1917 101.157 15.0459 100.765 15.0459C100.345 15.0459 99.999 15.1986 99.7256 15.5039C99.4521 15.8092 99.3177 16.224 99.3223 16.748H102.193ZM109.002 13.7402V15.2715H107.689V18.1973C107.689 18.7897 107.701 19.1361 107.724 19.2363C107.751 19.332 107.808 19.4118 107.895 19.4756C107.986 19.5394 108.095 19.5713 108.223 19.5713C108.4 19.5713 108.658 19.5098 108.995 19.3867L109.159 20.877C108.713 21.0684 108.207 21.1641 107.642 21.1641C107.295 21.1641 106.983 21.1071 106.705 20.9932C106.427 20.8747 106.222 20.7243 106.09 20.542C105.962 20.3551 105.873 20.1045 105.823 19.79C105.782 19.5667 105.762 19.1156 105.762 18.4365V15.2715H104.88V13.7402H105.762V12.2979L107.689 11.1768V13.7402H109.002ZM111.771 15.9551L110.027 15.6406C110.223 14.9388 110.561 14.4193 111.039 14.082C111.518 13.7448 112.229 13.5762 113.172 13.5762C114.029 13.5762 114.667 13.6787 115.086 13.8838C115.505 14.0843 115.799 14.3418 115.968 14.6562C116.141 14.9661 116.228 15.5381 116.228 16.3721L116.207 18.6143C116.207 19.2523 116.237 19.724 116.296 20.0293C116.36 20.3301 116.476 20.6536 116.645 21H114.744C114.694 20.8724 114.632 20.6833 114.56 20.4326C114.528 20.3187 114.505 20.2435 114.491 20.207C114.163 20.526 113.812 20.7653 113.438 20.9248C113.065 21.0843 112.666 21.1641 112.242 21.1641C111.495 21.1641 110.905 20.9613 110.472 20.5557C110.043 20.1501 109.829 19.6374 109.829 19.0176C109.829 18.6074 109.927 18.2428 110.123 17.9238C110.319 17.6003 110.592 17.3542 110.943 17.1855C111.299 17.0124 111.809 16.862 112.475 16.7344C113.372 16.5658 113.994 16.4085 114.341 16.2627V16.0713C114.341 15.7021 114.25 15.4401 114.067 15.2852C113.885 15.1257 113.541 15.0459 113.035 15.0459C112.693 15.0459 112.427 15.1143 112.235 15.251C112.044 15.3831 111.889 15.6178 111.771 15.9551ZM114.341 17.5137C114.095 17.5957 113.705 17.6937 113.172 17.8076C112.639 17.9215 112.29 18.0332 112.126 18.1426C111.875 18.3203 111.75 18.5459 111.75 18.8193C111.75 19.0882 111.85 19.3206 112.051 19.5166C112.251 19.7126 112.507 19.8105 112.816 19.8105C113.163 19.8105 113.493 19.6966 113.808 19.4688C114.04 19.2956 114.193 19.0837 114.266 18.833C114.316 18.6689 114.341 18.3568 114.341 17.8965V17.5137ZM118.128 12.7559V10.9785H120.049V12.7559H118.128ZM118.128 21V13.7402H120.049V21H118.128ZM122.024 21V10.9785H123.945V21H122.024ZM125.244 18.9287L127.172 18.6348C127.254 19.0085 127.42 19.2933 127.671 19.4893C127.922 19.6807 128.272 19.7764 128.724 19.7764C129.22 19.7764 129.594 19.6852 129.845 19.5029C130.013 19.3753 130.098 19.2044 130.098 18.9902C130.098 18.8444 130.052 18.7236 129.961 18.6279C129.865 18.5368 129.651 18.4525 129.318 18.375C127.769 18.0332 126.787 17.721 126.372 17.4385C125.798 17.0465 125.511 16.502 125.511 15.8047C125.511 15.1758 125.759 14.6471 126.256 14.2188C126.753 13.7904 127.523 13.5762 128.566 13.5762C129.56 13.5762 130.298 13.738 130.781 14.0615C131.264 14.3851 131.597 14.8636 131.779 15.4971L129.968 15.832C129.89 15.5495 129.742 15.333 129.523 15.1826C129.309 15.0322 129.002 14.957 128.601 14.957C128.095 14.957 127.732 15.0277 127.514 15.1689C127.368 15.2692 127.295 15.3991 127.295 15.5586C127.295 15.6953 127.359 15.8115 127.486 15.9072C127.66 16.0348 128.257 16.2148 129.277 16.4473C130.303 16.6797 131.018 16.9645 131.424 17.3018C131.825 17.6436 132.025 18.1198 132.025 18.7305C132.025 19.3958 131.747 19.9678 131.191 20.4463C130.635 20.9248 129.813 21.1641 128.724 21.1641C127.735 21.1641 126.951 20.9635 126.372 20.5625C125.798 20.1615 125.422 19.6169 125.244 18.9287Z" fill="black"/>
<path d="M384.039 321V310.979H386.035L388.407 318.074C388.626 318.735 388.785 319.229 388.886 319.558C389 319.193 389.177 318.658 389.419 317.951L391.818 310.979H393.603V321H392.324V312.612L389.412 321H388.216L385.317 312.469V321H384.039ZM400.555 318.662L401.826 318.819C401.626 319.562 401.254 320.139 400.712 320.549C400.17 320.959 399.477 321.164 398.634 321.164C397.572 321.164 396.729 320.838 396.104 320.187C395.485 319.53 395.175 318.612 395.175 317.432C395.175 316.21 395.489 315.262 396.118 314.588C396.747 313.913 397.563 313.576 398.565 313.576C399.536 313.576 400.329 313.907 400.944 314.567C401.56 315.228 401.867 316.158 401.867 317.356C401.867 317.429 401.865 317.539 401.86 317.685H396.446C396.492 318.482 396.717 319.093 397.123 319.517C397.529 319.94 398.035 320.152 398.641 320.152C399.092 320.152 399.477 320.034 399.796 319.797C400.115 319.56 400.368 319.182 400.555 318.662ZM396.515 316.673H400.568C400.514 316.062 400.359 315.604 400.104 315.299C399.712 314.825 399.203 314.588 398.579 314.588C398.014 314.588 397.538 314.777 397.15 315.155C396.768 315.534 396.556 316.039 396.515 316.673ZM406.064 319.899L406.242 320.986C405.896 321.059 405.586 321.096 405.312 321.096C404.866 321.096 404.52 321.025 404.273 320.884C404.027 320.743 403.854 320.558 403.754 320.33C403.654 320.098 403.604 319.612 403.604 318.874V314.697H402.701V313.74H403.604V311.942L404.827 311.204V313.74H406.064V314.697H404.827V318.942C404.827 319.293 404.848 319.519 404.889 319.619C404.934 319.719 405.005 319.799 405.101 319.858C405.201 319.918 405.342 319.947 405.524 319.947C405.661 319.947 405.841 319.931 406.064 319.899ZM407.261 321V313.74H408.368V314.841C408.651 314.326 408.91 313.986 409.147 313.822C409.389 313.658 409.653 313.576 409.94 313.576C410.355 313.576 410.777 313.708 411.205 313.973L410.781 315.114C410.48 314.937 410.18 314.848 409.879 314.848C409.61 314.848 409.368 314.93 409.154 315.094C408.94 315.253 408.787 315.477 408.696 315.764C408.56 316.201 408.491 316.68 408.491 317.199V321H407.261ZM411.943 312.394V310.979H413.174V312.394H411.943ZM411.943 321V313.74H413.174V321H411.943ZM419.791 318.341L421.001 318.498C420.869 319.332 420.529 319.986 419.982 320.46C419.44 320.929 418.772 321.164 417.979 321.164C416.986 321.164 416.186 320.84 415.58 320.193C414.979 319.542 414.678 318.61 414.678 317.397C414.678 316.614 414.808 315.928 415.067 315.34C415.327 314.752 415.721 314.312 416.25 314.021C416.783 313.724 417.362 313.576 417.986 313.576C418.775 313.576 419.42 313.777 419.921 314.178C420.422 314.574 420.743 315.139 420.885 315.873L419.688 316.058C419.575 315.57 419.372 315.203 419.08 314.957C418.793 314.711 418.444 314.588 418.034 314.588C417.414 314.588 416.911 314.811 416.523 315.258C416.136 315.7 415.942 316.402 415.942 317.363C415.942 318.339 416.129 319.047 416.503 319.489C416.877 319.931 417.364 320.152 417.966 320.152C418.449 320.152 418.852 320.004 419.176 319.708C419.499 319.412 419.704 318.956 419.791 318.341ZM421.562 318.833L422.778 318.642C422.847 319.129 423.036 319.503 423.346 319.763C423.66 320.022 424.098 320.152 424.658 320.152C425.223 320.152 425.643 320.038 425.916 319.811C426.189 319.578 426.326 319.307 426.326 318.997C426.326 318.719 426.205 318.5 425.964 318.341C425.795 318.231 425.376 318.092 424.706 317.924C423.804 317.696 423.177 317.5 422.826 317.336C422.48 317.167 422.215 316.937 422.033 316.646C421.855 316.349 421.767 316.023 421.767 315.668C421.767 315.344 421.84 315.046 421.985 314.772C422.136 314.494 422.339 314.264 422.594 314.082C422.785 313.941 423.045 313.822 423.373 313.727C423.706 313.626 424.061 313.576 424.439 313.576C425.009 313.576 425.508 313.658 425.937 313.822C426.369 313.986 426.688 314.21 426.894 314.492C427.099 314.77 427.24 315.144 427.317 315.613L426.114 315.777C426.06 315.404 425.9 315.112 425.636 314.902C425.376 314.693 425.007 314.588 424.528 314.588C423.963 314.588 423.56 314.681 423.318 314.868C423.077 315.055 422.956 315.274 422.956 315.524C422.956 315.684 423.006 315.827 423.106 315.955C423.207 316.087 423.364 316.197 423.578 316.283C423.701 316.329 424.063 316.434 424.665 316.598C425.535 316.83 426.142 317.021 426.483 317.172C426.83 317.318 427.101 317.532 427.297 317.814C427.493 318.097 427.591 318.448 427.591 318.867C427.591 319.277 427.47 319.665 427.229 320.029C426.992 320.389 426.647 320.67 426.196 320.87C425.745 321.066 425.235 321.164 424.665 321.164C423.722 321.164 423.002 320.968 422.505 320.576C422.013 320.184 421.698 319.603 421.562 318.833ZM432.492 317.37C432.492 316.026 432.866 315.03 433.613 314.383C434.238 313.845 434.999 313.576 435.896 313.576C436.895 313.576 437.71 313.904 438.344 314.561C438.977 315.212 439.294 316.115 439.294 317.268C439.294 318.202 439.153 318.938 438.87 319.476C438.592 320.009 438.184 320.424 437.646 320.72C437.113 321.016 436.53 321.164 435.896 321.164C434.88 321.164 434.058 320.838 433.429 320.187C432.804 319.535 432.492 318.596 432.492 317.37ZM433.757 317.37C433.757 318.3 433.96 318.997 434.365 319.462C434.771 319.922 435.281 320.152 435.896 320.152C436.507 320.152 437.015 319.92 437.421 319.455C437.826 318.99 438.029 318.282 438.029 317.329C438.029 316.431 437.824 315.752 437.414 315.292C437.008 314.827 436.503 314.595 435.896 314.595C435.281 314.595 434.771 314.825 434.365 315.285C433.96 315.745 433.757 316.44 433.757 317.37ZM442.76 321L439.998 313.74H441.297L442.855 318.088C443.024 318.557 443.179 319.045 443.32 319.551C443.43 319.168 443.582 318.708 443.778 318.17L445.392 313.74H446.656L443.908 321H442.76ZM452.713 318.662L453.984 318.819C453.784 319.562 453.412 320.139 452.87 320.549C452.328 320.959 451.635 321.164 450.792 321.164C449.73 321.164 448.887 320.838 448.263 320.187C447.643 319.53 447.333 318.612 447.333 317.432C447.333 316.21 447.647 315.262 448.276 314.588C448.905 313.913 449.721 313.576 450.724 313.576C451.694 313.576 452.487 313.907 453.103 314.567C453.718 315.228 454.025 316.158 454.025 317.356C454.025 317.429 454.023 317.539 454.019 317.685H448.604C448.65 318.482 448.876 319.093 449.281 319.517C449.687 319.94 450.193 320.152 450.799 320.152C451.25 320.152 451.635 320.034 451.954 319.797C452.273 319.56 452.526 319.182 452.713 318.662ZM448.673 316.673H452.727C452.672 316.062 452.517 315.604 452.262 315.299C451.87 314.825 451.362 314.588 450.737 314.588C450.172 314.588 449.696 314.777 449.309 315.155C448.926 315.534 448.714 316.039 448.673 316.673ZM455.522 321V313.74H456.63V314.841C456.912 314.326 457.172 313.986 457.409 313.822C457.651 313.658 457.915 313.576 458.202 313.576C458.617 313.576 459.038 313.708 459.467 313.973L459.043 315.114C458.742 314.937 458.441 314.848 458.141 314.848C457.872 314.848 457.63 314.93 457.416 315.094C457.202 315.253 457.049 315.477 456.958 315.764C456.821 316.201 456.753 316.68 456.753 317.199V321H455.522ZM462.215 321L459.453 313.74H460.752L462.311 318.088C462.479 318.557 462.634 319.045 462.775 319.551C462.885 319.168 463.037 318.708 463.233 318.17L464.847 313.74H466.111L463.363 321H462.215ZM467.205 312.394V310.979H468.436V312.394H467.205ZM467.205 321V313.74H468.436V321H467.205ZM475.285 318.662L476.557 318.819C476.356 319.562 475.985 320.139 475.442 320.549C474.9 320.959 474.207 321.164 473.364 321.164C472.302 321.164 471.459 320.838 470.835 320.187C470.215 319.53 469.905 318.612 469.905 317.432C469.905 316.21 470.22 315.262 470.849 314.588C471.478 313.913 472.293 313.576 473.296 313.576C474.267 313.576 475.06 313.907 475.675 314.567C476.29 315.228 476.598 316.158 476.598 317.356C476.598 317.429 476.595 317.539 476.591 317.685H471.177C471.222 318.482 471.448 319.093 471.854 319.517C472.259 319.94 472.765 320.152 473.371 320.152C473.822 320.152 474.207 320.034 474.526 319.797C474.845 319.56 475.098 319.182 475.285 318.662ZM471.245 316.673H475.299C475.244 316.062 475.089 315.604 474.834 315.299C474.442 314.825 473.934 314.588 473.31 314.588C472.744 314.588 472.268 314.777 471.881 315.155C471.498 315.534 471.286 316.039 471.245 316.673ZM479.448 321L477.227 313.74H478.498L479.653 317.931L480.084 319.489C480.102 319.412 480.228 318.913 480.46 317.992L481.615 313.74H482.88L483.967 317.951L484.329 319.339L484.746 317.938L485.99 313.74H487.187L484.917 321H483.639L482.483 316.652L482.203 315.415L480.733 321H479.448Z" fill="black"/>
</g>
<rect x="0.5" y="0.5" width="517" height="349" rx="7.5" stroke="#383838"/>
<defs>
<clipPath id="clip0_53_172">
<rect width="518" height="350" rx="8" fill="white"/>
</clipPath>
</defs>
</svg>
