<svg width="518" height="350" viewBox="0 0 518 350" fill="none" xmlns="http://www.w3.org/2000/svg">
<g clip-path="url(#clip0_53_193)">
<rect width="518" height="32" fill="#CDCDCD"/>
<rect x="73" y="154" width="132" height="75" rx="8" fill="#E0E0E0"/>
<rect x="217" y="154" width="131" height="75" rx="8" fill="#E0E0E0"/>
<rect x="360" y="154" width="132" height="75" rx="8" fill="#E0E0E0"/>
<rect x="73" y="47" width="419" height="90" rx="8" fill="#FFEBEE"/>
<rect x="73" y="243" width="419" height="90" rx="8" fill="#E0E0E0"/>
<rect x="45" y="32" width="318" height="45" transform="rotate(90 45 32)" fill="#F5F5F5"/>
<rect x="7" y="61" width="31" height="31" rx="8" fill="#D9D9D9"/>
<rect x="7" y="100" width="31" height="31" rx="8" fill="#D9D9D9"/>
<rect x="7" y="139" width="31" height="31" rx="8" fill="#D9D9D9"/>
<path d="M19.5059 17.7393L21.4746 17.5479C21.5931 18.2087 21.8324 18.694 22.1924 19.0039C22.557 19.3138 23.0469 19.4688 23.6621 19.4688C24.3138 19.4688 24.8037 19.332 25.1318 19.0586C25.4645 18.7806 25.6309 18.457 25.6309 18.0879C25.6309 17.8509 25.5602 17.6504 25.4189 17.4863C25.2822 17.3177 25.0407 17.1719 24.6943 17.0488C24.4574 16.9668 23.9173 16.821 23.0742 16.6113C21.9896 16.3424 21.2285 16.012 20.791 15.6201C20.1758 15.0687 19.8682 14.3965 19.8682 13.6035C19.8682 13.0931 20.0117 12.6169 20.2988 12.1748C20.5905 11.7282 21.0075 11.3887 21.5498 11.1562C22.0967 10.9238 22.7552 10.8076 23.5254 10.8076C24.7832 10.8076 25.7288 11.0833 26.3623 11.6348C27.0003 12.1862 27.3353 12.9222 27.3672 13.8428L25.3438 13.9316C25.2572 13.4167 25.0703 13.0475 24.7832 12.8242C24.5007 12.5964 24.0745 12.4824 23.5049 12.4824C22.917 12.4824 22.4567 12.6032 22.124 12.8447C21.9098 12.9997 21.8027 13.207 21.8027 13.4668C21.8027 13.7038 21.903 13.9066 22.1035 14.0752C22.3587 14.2894 22.9785 14.5127 23.9629 14.7451C24.9473 14.9775 25.6742 15.2191 26.1436 15.4697C26.6175 15.7158 26.9867 16.0553 27.251 16.4883C27.5199 16.9167 27.6543 17.4476 27.6543 18.0811C27.6543 18.6553 27.4948 19.193 27.1758 19.6943C26.8568 20.1956 26.4056 20.5693 25.8223 20.8154C25.2389 21.057 24.512 21.1777 23.6416 21.1777C22.3747 21.1777 21.4017 20.8861 20.7227 20.3027C20.0436 19.7148 19.638 18.8604 19.5059 17.7393ZM33.5469 18.6895L35.4609 19.0107C35.2148 19.7126 34.8252 20.248 34.292 20.6172C33.7633 20.9818 33.1003 21.1641 32.3027 21.1641C31.0404 21.1641 30.1061 20.7516 29.5 19.9268C29.0215 19.266 28.7822 18.432 28.7822 17.4248C28.7822 16.2217 29.0967 15.2806 29.7256 14.6016C30.3545 13.918 31.1497 13.5762 32.1113 13.5762C33.1914 13.5762 34.0436 13.9339 34.668 14.6494C35.2923 15.3604 35.5908 16.4518 35.5635 17.9238H30.751C30.7646 18.4935 30.9196 18.9378 31.2158 19.2568C31.512 19.5713 31.8812 19.7285 32.3232 19.7285C32.624 19.7285 32.877 19.6465 33.082 19.4824C33.2871 19.3184 33.4421 19.054 33.5469 18.6895ZM33.6562 16.748C33.6426 16.1921 33.499 15.7705 33.2256 15.4834C32.9521 15.1917 32.6195 15.0459 32.2275 15.0459C31.8083 15.0459 31.4619 15.1986 31.1885 15.5039C30.915 15.8092 30.7806 16.224 30.7852 16.748H33.6562ZM43.4658 15.8867L41.5723 16.2285C41.5085 15.8503 41.3626 15.5654 41.1348 15.374C40.9115 15.1826 40.6198 15.0869 40.2598 15.0869C39.7812 15.0869 39.3984 15.2533 39.1113 15.5859C38.8288 15.9141 38.6875 16.4655 38.6875 17.2402C38.6875 18.1016 38.8311 18.71 39.1182 19.0654C39.4098 19.4209 39.7995 19.5986 40.2871 19.5986C40.6517 19.5986 40.9502 19.4961 41.1826 19.291C41.415 19.0814 41.5791 18.7236 41.6748 18.2178L43.5615 18.5391C43.3656 19.4049 42.9896 20.0589 42.4336 20.501C41.8776 20.943 41.1325 21.1641 40.1982 21.1641C39.1364 21.1641 38.2887 20.8291 37.6553 20.1592C37.0264 19.4893 36.7119 18.5618 36.7119 17.377C36.7119 16.1784 37.0286 15.2464 37.6621 14.5811C38.2956 13.9111 39.1523 13.5762 40.2324 13.5762C41.1165 13.5762 41.8184 13.7676 42.3379 14.1504C42.862 14.5286 43.238 15.1074 43.4658 15.8867ZM49.707 21V19.9131C49.4427 20.3005 49.0941 20.6058 48.6611 20.8291C48.2327 21.0524 47.7793 21.1641 47.3008 21.1641C46.8132 21.1641 46.3757 21.057 45.9883 20.8428C45.6009 20.6286 45.3206 20.3278 45.1475 19.9404C44.9743 19.5531 44.8877 19.0176 44.8877 18.334V13.7402H46.8086V17.0762C46.8086 18.097 46.8428 18.7236 46.9111 18.9561C46.984 19.1839 47.1139 19.3662 47.3008 19.5029C47.4876 19.6351 47.7246 19.7012 48.0117 19.7012C48.3398 19.7012 48.6338 19.6123 48.8936 19.4346C49.1533 19.2523 49.3311 19.029 49.4268 18.7646C49.5225 18.4958 49.5703 17.8418 49.5703 16.8027V13.7402H51.4912V21H49.707ZM55.3262 21H53.4053V13.7402H55.1895V14.7725C55.4948 14.2848 55.7682 13.9635 56.0098 13.8086C56.2559 13.6536 56.5339 13.5762 56.8438 13.5762C57.2812 13.5762 57.7028 13.6969 58.1084 13.9385L57.5137 15.6133C57.1901 15.4036 56.8893 15.2988 56.6113 15.2988C56.3424 15.2988 56.1146 15.374 55.9277 15.5244C55.7409 15.6702 55.5928 15.9368 55.4834 16.3242C55.3786 16.7116 55.3262 17.5228 55.3262 18.7578V21ZM58.9424 12.7559V10.9785H60.8633V12.7559H58.9424ZM58.9424 21V13.7402H60.8633V21H58.9424ZM66.168 13.7402V15.2715H64.8555V18.1973C64.8555 18.7897 64.8669 19.1361 64.8896 19.2363C64.917 19.332 64.974 19.4118 65.0605 19.4756C65.1517 19.5394 65.2611 19.5713 65.3887 19.5713C65.5664 19.5713 65.8239 19.5098 66.1611 19.3867L66.3252 20.877C65.8786 21.0684 65.3727 21.1641 64.8076 21.1641C64.4613 21.1641 64.1491 21.1071 63.8711 20.9932C63.5931 20.8747 63.388 20.7243 63.2559 20.542C63.1283 20.3551 63.0394 20.1045 62.9893 19.79C62.9482 19.5667 62.9277 19.1156 62.9277 18.4365V15.2715H62.0459V13.7402H62.9277V12.2979L64.8555 11.1768V13.7402H66.168ZM66.5918 13.7402H68.6357L70.3721 18.8945L72.0674 13.7402H74.0566L71.4932 20.7266L71.0352 21.9912C70.8665 22.415 70.7048 22.7386 70.5498 22.9619C70.3994 23.1852 70.224 23.3652 70.0234 23.502C69.8275 23.6432 69.5837 23.7526 69.292 23.8301C69.0049 23.9076 68.679 23.9463 68.3145 23.9463C67.9453 23.9463 67.583 23.9076 67.2275 23.8301L67.0566 22.3262C67.3574 22.3854 67.6286 22.415 67.8701 22.415C68.3167 22.415 68.6471 22.2829 68.8613 22.0186C69.0755 21.7588 69.2396 21.4261 69.3535 21.0205L66.5918 13.7402ZM78.7939 16.0508C78.7939 15.0299 78.9466 14.1732 79.252 13.4805C79.4798 12.9701 79.7897 12.512 80.1816 12.1064C80.5781 11.7008 81.0111 11.4001 81.4805 11.2041C82.1048 10.9398 82.8249 10.8076 83.6406 10.8076C85.1172 10.8076 86.2975 11.2656 87.1816 12.1816C88.0703 13.0977 88.5146 14.3714 88.5146 16.0029C88.5146 17.6208 88.0749 18.8877 87.1953 19.8037C86.3158 20.7152 85.14 21.1709 83.668 21.1709C82.1777 21.1709 80.9928 20.7174 80.1133 19.8105C79.2337 18.8991 78.7939 17.6458 78.7939 16.0508ZM80.8789 15.9824C80.8789 17.1172 81.141 17.9785 81.665 18.5664C82.1891 19.1497 82.8545 19.4414 83.6611 19.4414C84.4678 19.4414 85.1286 19.152 85.6436 18.5732C86.1631 17.9899 86.4229 17.1172 86.4229 15.9551C86.4229 14.8066 86.1699 13.9499 85.6641 13.3848C85.1628 12.8197 84.4951 12.5371 83.6611 12.5371C82.8271 12.5371 82.1549 12.8242 81.6445 13.3984C81.1341 13.9681 80.8789 14.8294 80.8789 15.9824ZM92.083 21L89.1572 13.7402H91.1738L92.541 17.4453L92.9375 18.6826C93.0423 18.3682 93.1084 18.1608 93.1357 18.0605C93.1995 17.8555 93.2679 17.6504 93.3408 17.4453L94.7217 13.7402H96.6973L93.8125 21H92.083ZM102.084 18.6895L103.998 19.0107C103.752 19.7126 103.362 20.248 102.829 20.6172C102.3 20.9818 101.637 21.1641 100.84 21.1641C99.5775 21.1641 98.6432 20.7516 98.0371 19.9268C97.5586 19.266 97.3193 18.432 97.3193 17.4248C97.3193 16.2217 97.6338 15.2806 98.2627 14.6016C98.8916 13.918 99.6868 13.5762 100.648 13.5762C101.729 13.5762 102.581 13.9339 103.205 14.6494C103.829 15.3604 104.128 16.4518 104.101 17.9238H99.2881C99.3018 18.4935 99.4567 18.9378 99.7529 19.2568C100.049 19.5713 100.418 19.7285 100.86 19.7285C101.161 19.7285 101.414 19.6465 101.619 19.4824C101.824 19.3184 101.979 19.054 102.084 18.6895ZM102.193 16.748C102.18 16.1921 102.036 15.7705 101.763 15.4834C101.489 15.1917 101.157 15.0459 100.765 15.0459C100.345 15.0459 99.999 15.1986 99.7256 15.5039C99.4521 15.8092 99.3177 16.224 99.3223 16.748H102.193ZM107.512 21H105.591V13.7402H107.375V14.7725C107.68 14.2848 107.954 13.9635 108.195 13.8086C108.441 13.6536 108.719 13.5762 109.029 13.5762C109.467 13.5762 109.888 13.6969 110.294 13.9385L109.699 15.6133C109.376 15.4036 109.075 15.2988 108.797 15.2988C108.528 15.2988 108.3 15.374 108.113 15.5244C107.926 15.6702 107.778 15.9368 107.669 16.3242C107.564 16.7116 107.512 17.5228 107.512 18.7578V21ZM113.124 21L110.198 13.7402H112.215L113.582 17.4453L113.979 18.6826C114.083 18.3682 114.149 18.1608 114.177 18.0605C114.241 17.8555 114.309 17.6504 114.382 17.4453L115.763 13.7402H117.738L114.854 21H113.124ZM118.921 12.7559V10.9785H120.842V12.7559H118.921ZM118.921 21V13.7402H120.842V21H118.921ZM127.021 18.6895L128.936 19.0107C128.689 19.7126 128.3 20.248 127.767 20.6172C127.238 20.9818 126.575 21.1641 125.777 21.1641C124.515 21.1641 123.581 20.7516 122.975 19.9268C122.496 19.266 122.257 18.432 122.257 17.4248C122.257 16.2217 122.571 15.2806 123.2 14.6016C123.829 13.918 124.624 13.5762 125.586 13.5762C126.666 13.5762 127.518 13.9339 128.143 14.6494C128.767 15.3604 129.065 16.4518 129.038 17.9238H124.226C124.239 18.4935 124.394 18.9378 124.69 19.2568C124.987 19.5713 125.356 19.7285 125.798 19.7285C126.099 19.7285 126.352 19.6465 126.557 19.4824C126.762 19.3184 126.917 19.054 127.021 18.6895ZM127.131 16.748C127.117 16.1921 126.974 15.7705 126.7 15.4834C126.427 15.1917 126.094 15.0459 125.702 15.0459C125.283 15.0459 124.937 15.1986 124.663 15.5039C124.39 15.8092 124.255 16.224 124.26 16.748H127.131ZM131.964 21L129.667 13.7402H131.533L132.894 18.498L134.145 13.7402H135.997L137.207 18.498L138.595 13.7402H140.488L138.157 21H136.312L135.061 16.3311L133.83 21H131.964Z" fill="black"/>
<path d="M89.6289 93.7803L90.8799 93.6709C90.9391 94.1722 91.0758 94.5846 91.29 94.9082C91.5088 95.2272 91.846 95.487 92.3018 95.6875C92.7575 95.8835 93.2702 95.9814 93.8398 95.9814C94.3457 95.9814 94.7923 95.9062 95.1797 95.7559C95.5671 95.6055 95.8542 95.4004 96.041 95.1406C96.2324 94.8763 96.3281 94.5892 96.3281 94.2793C96.3281 93.9648 96.237 93.6914 96.0547 93.459C95.8724 93.222 95.5716 93.0238 95.1523 92.8643C94.8835 92.7594 94.2887 92.5977 93.3682 92.3789C92.4476 92.1556 91.8027 91.946 91.4336 91.75C90.9551 91.4993 90.5973 91.1895 90.3604 90.8203C90.1279 90.4466 90.0117 90.0296 90.0117 89.5693C90.0117 89.0635 90.1553 88.5918 90.4424 88.1543C90.7295 87.7122 91.1488 87.3773 91.7002 87.1494C92.2516 86.9215 92.8646 86.8076 93.5391 86.8076C94.2819 86.8076 94.9359 86.9284 95.501 87.1699C96.0706 87.4069 96.5081 87.7578 96.8135 88.2227C97.1188 88.6875 97.2829 89.2139 97.3057 89.8018L96.0342 89.8975C95.9658 89.264 95.7334 88.7855 95.3369 88.4619C94.945 88.1383 94.3639 87.9766 93.5938 87.9766C92.7917 87.9766 92.2061 88.1247 91.8369 88.4209C91.4723 88.7126 91.29 89.0658 91.29 89.4805C91.29 89.8405 91.4199 90.1367 91.6797 90.3691C91.9349 90.6016 92.6003 90.8408 93.6758 91.0869C94.7559 91.3285 95.4964 91.5404 95.8975 91.7227C96.4808 91.9915 96.9115 92.3333 97.1895 92.748C97.4674 93.1582 97.6064 93.6322 97.6064 94.1699C97.6064 94.7031 97.4538 95.2067 97.1484 95.6807C96.8431 96.1501 96.4033 96.5169 95.8291 96.7812C95.2594 97.041 94.6169 97.1709 93.9014 97.1709C92.9945 97.1709 92.2334 97.0387 91.6182 96.7744C91.0075 96.5101 90.5267 96.1136 90.1758 95.585C89.8294 95.0518 89.6471 94.4502 89.6289 93.7803ZM104.23 94.6621L105.502 94.8193C105.301 95.5622 104.93 96.1387 104.388 96.5488C103.845 96.959 103.153 97.1641 102.31 97.1641C101.248 97.1641 100.405 96.8382 99.7803 96.1865C99.1605 95.5303 98.8506 94.612 98.8506 93.4316C98.8506 92.2103 99.165 91.2624 99.7939 90.5879C100.423 89.9134 101.239 89.5762 102.241 89.5762C103.212 89.5762 104.005 89.9066 104.62 90.5674C105.235 91.2282 105.543 92.1579 105.543 93.3564C105.543 93.4294 105.541 93.5387 105.536 93.6846H100.122C100.168 94.4821 100.393 95.0928 100.799 95.5166C101.204 95.9404 101.71 96.1523 102.316 96.1523C102.768 96.1523 103.153 96.0339 103.472 95.7969C103.791 95.5599 104.044 95.1816 104.23 94.6621ZM100.19 92.6729H104.244C104.189 92.0622 104.035 91.6042 103.779 91.2988C103.387 90.8249 102.879 90.5879 102.255 90.5879C101.69 90.5879 101.214 90.777 100.826 91.1553C100.443 91.5335 100.231 92.0394 100.19 92.6729ZM111.791 94.3408L113.001 94.498C112.869 95.332 112.529 95.986 111.982 96.46C111.44 96.9294 110.772 97.1641 109.979 97.1641C108.986 97.1641 108.186 96.8405 107.58 96.1934C106.979 95.5417 106.678 94.6097 106.678 93.3975C106.678 92.6136 106.808 91.9277 107.067 91.3398C107.327 90.752 107.721 90.3122 108.25 90.0205C108.783 89.7243 109.362 89.5762 109.986 89.5762C110.775 89.5762 111.42 89.7767 111.921 90.1777C112.422 90.5742 112.743 91.1393 112.885 91.873L111.688 92.0576C111.575 91.57 111.372 91.2031 111.08 90.957C110.793 90.7109 110.444 90.5879 110.034 90.5879C109.414 90.5879 108.911 90.8112 108.523 91.2578C108.136 91.6999 107.942 92.4017 107.942 93.3633C107.942 94.3385 108.129 95.0472 108.503 95.4893C108.877 95.9313 109.364 96.1523 109.966 96.1523C110.449 96.1523 110.852 96.0042 111.176 95.708C111.499 95.4118 111.704 94.9561 111.791 94.3408ZM118.812 97V95.9336C118.246 96.7539 117.479 97.1641 116.508 97.1641C116.079 97.1641 115.678 97.082 115.305 96.918C114.936 96.7539 114.66 96.5488 114.478 96.3027C114.3 96.0521 114.174 95.7467 114.102 95.3867C114.051 95.1452 114.026 94.7624 114.026 94.2383V89.7402H115.257V93.7666C115.257 94.4092 115.282 94.8421 115.332 95.0654C115.41 95.389 115.574 95.6442 115.824 95.8311C116.075 96.0133 116.385 96.1045 116.754 96.1045C117.123 96.1045 117.469 96.0111 117.793 95.8242C118.117 95.6328 118.344 95.3753 118.477 95.0518C118.613 94.7236 118.682 94.2497 118.682 93.6299V89.7402H119.912V97H118.812ZM121.833 97V89.7402H122.94V90.8408C123.223 90.3258 123.483 89.9863 123.72 89.8223C123.961 89.6582 124.226 89.5762 124.513 89.5762C124.927 89.5762 125.349 89.7083 125.777 89.9727L125.354 91.1143C125.053 90.9365 124.752 90.8477 124.451 90.8477C124.182 90.8477 123.941 90.9297 123.727 91.0938C123.512 91.2533 123.36 91.4766 123.269 91.7637C123.132 92.2012 123.063 92.6797 123.063 93.1992V97H121.833ZM126.516 88.3936V86.9785H127.746V88.3936H126.516ZM126.516 97V89.7402H127.746V97H126.516ZM132.312 95.8994L132.49 96.9863C132.144 97.0592 131.834 97.0957 131.561 97.0957C131.114 97.0957 130.768 97.0251 130.521 96.8838C130.275 96.7425 130.102 96.5579 130.002 96.3301C129.902 96.0977 129.852 95.6123 129.852 94.874V90.6973H128.949V89.7402H129.852V87.9424L131.075 87.2041V89.7402H132.312V90.6973H131.075V94.9424C131.075 95.2933 131.096 95.5189 131.137 95.6191C131.182 95.7194 131.253 95.7992 131.349 95.8584C131.449 95.9176 131.59 95.9473 131.772 95.9473C131.909 95.9473 132.089 95.9313 132.312 95.8994ZM133.468 99.7959L133.331 98.6406C133.6 98.7135 133.835 98.75 134.035 98.75C134.309 98.75 134.527 98.7044 134.691 98.6133C134.855 98.5221 134.99 98.3945 135.095 98.2305C135.172 98.1074 135.298 97.8021 135.471 97.3145C135.493 97.2461 135.53 97.1458 135.58 97.0137L132.825 89.7402H134.151L135.662 93.9443C135.858 94.4775 136.034 95.0381 136.188 95.626C136.33 95.0609 136.498 94.5094 136.694 93.9717L138.246 89.7402H139.477L136.715 97.123C136.419 97.9206 136.188 98.4697 136.024 98.7705C135.806 99.1761 135.555 99.4723 135.272 99.6592C134.99 99.8506 134.653 99.9463 134.261 99.9463C134.024 99.9463 133.759 99.8962 133.468 99.7959ZM144.419 97V89.7402H145.52V90.7588C145.747 90.4033 146.05 90.1185 146.429 89.9043C146.807 89.6855 147.238 89.5762 147.721 89.5762C148.258 89.5762 148.698 89.6878 149.04 89.9111C149.386 90.1344 149.63 90.4466 149.771 90.8477C150.346 90 151.093 89.5762 152.014 89.5762C152.734 89.5762 153.287 89.7767 153.675 90.1777C154.062 90.5742 154.256 91.1872 154.256 92.0166V97H153.032V92.4268C153.032 91.9346 152.991 91.5814 152.909 91.3672C152.832 91.1484 152.688 90.973 152.479 90.8408C152.269 90.7087 152.023 90.6426 151.74 90.6426C151.23 90.6426 150.806 90.8135 150.469 91.1553C150.132 91.4925 149.963 92.0348 149.963 92.7822V97H148.732V92.2832C148.732 91.7363 148.632 91.3262 148.432 91.0527C148.231 90.7793 147.903 90.6426 147.447 90.6426C147.101 90.6426 146.78 90.7337 146.483 90.916C146.192 91.0983 145.98 91.3649 145.848 91.7158C145.715 92.0667 145.649 92.5726 145.649 93.2334V97H144.419ZM155.623 93.3701C155.623 92.0257 155.997 91.0299 156.744 90.3828C157.368 89.8451 158.13 89.5762 159.027 89.5762C160.025 89.5762 160.841 89.9043 161.475 90.5605C162.108 91.2122 162.425 92.1146 162.425 93.2676C162.425 94.2018 162.284 94.9378 162.001 95.4756C161.723 96.0088 161.315 96.4235 160.777 96.7197C160.244 97.016 159.661 97.1641 159.027 97.1641C158.011 97.1641 157.188 96.8382 156.56 96.1865C155.935 95.5348 155.623 94.596 155.623 93.3701ZM156.888 93.3701C156.888 94.2998 157.09 94.9971 157.496 95.4619C157.902 95.9222 158.412 96.1523 159.027 96.1523C159.638 96.1523 160.146 95.9199 160.552 95.4551C160.957 94.9902 161.16 94.2816 161.16 93.3291C161.16 92.4313 160.955 91.7523 160.545 91.292C160.139 90.8271 159.633 90.5947 159.027 90.5947C158.412 90.5947 157.902 90.8249 157.496 91.2852C157.09 91.7454 156.888 92.4404 156.888 93.3701ZM163.874 97V89.7402H164.981V90.7725C165.515 89.9749 166.285 89.5762 167.292 89.5762C167.729 89.5762 168.131 89.6559 168.495 89.8154C168.864 89.9704 169.14 90.1755 169.322 90.4307C169.505 90.6859 169.632 90.9889 169.705 91.3398C169.751 91.5677 169.773 91.9665 169.773 92.5361V97H168.543V92.584C168.543 92.0827 168.495 91.709 168.399 91.4629C168.304 91.2122 168.133 91.014 167.887 90.8682C167.645 90.7178 167.36 90.6426 167.032 90.6426C166.508 90.6426 166.055 90.8089 165.672 91.1416C165.294 91.4743 165.104 92.1055 165.104 93.0352V97H163.874ZM171.674 88.3936V86.9785H172.904V88.3936H171.674ZM171.674 97V89.7402H172.904V97H171.674ZM177.471 95.8994L177.648 96.9863C177.302 97.0592 176.992 97.0957 176.719 97.0957C176.272 97.0957 175.926 97.0251 175.68 96.8838C175.434 96.7425 175.26 96.5579 175.16 96.3301C175.06 96.0977 175.01 95.6123 175.01 94.874V90.6973H174.107V89.7402H175.01V87.9424L176.233 87.2041V89.7402H177.471V90.6973H176.233V94.9424C176.233 95.2933 176.254 95.5189 176.295 95.6191C176.34 95.7194 176.411 95.7992 176.507 95.8584C176.607 95.9176 176.748 95.9473 176.931 95.9473C177.067 95.9473 177.247 95.9313 177.471 95.8994ZM178.223 93.3701C178.223 92.0257 178.596 91.0299 179.344 90.3828C179.968 89.8451 180.729 89.5762 181.627 89.5762C182.625 89.5762 183.441 89.9043 184.074 90.5605C184.708 91.2122 185.024 92.1146 185.024 93.2676C185.024 94.2018 184.883 94.9378 184.601 95.4756C184.323 96.0088 183.915 96.4235 183.377 96.7197C182.844 97.016 182.26 97.1641 181.627 97.1641C180.611 97.1641 179.788 96.8382 179.159 96.1865C178.535 95.5348 178.223 94.596 178.223 93.3701ZM179.487 93.3701C179.487 94.2998 179.69 94.9971 180.096 95.4619C180.501 95.9222 181.012 96.1523 181.627 96.1523C182.238 96.1523 182.746 95.9199 183.151 95.4551C183.557 94.9902 183.76 94.2816 183.76 93.3291C183.76 92.4313 183.555 91.7523 183.145 91.292C182.739 90.8271 182.233 90.5947 181.627 90.5947C181.012 90.5947 180.501 90.8249 180.096 91.2852C179.69 91.7454 179.487 92.4404 179.487 93.3701ZM186.46 97V89.7402H187.567V90.8408C187.85 90.3258 188.11 89.9863 188.347 89.8223C188.588 89.6582 188.853 89.5762 189.14 89.5762C189.554 89.5762 189.976 89.7083 190.404 89.9727L189.98 91.1143C189.68 90.9365 189.379 90.8477 189.078 90.8477C188.809 90.8477 188.568 90.9297 188.354 91.0938C188.139 91.2533 187.987 91.4766 187.896 91.7637C187.759 92.2012 187.69 92.6797 187.69 93.1992V97H186.46ZM191.143 88.3936V86.9785H192.373V88.3936H191.143ZM191.143 97V89.7402H192.373V97H191.143ZM194.253 97V89.7402H195.36V90.7725C195.894 89.9749 196.664 89.5762 197.671 89.5762C198.108 89.5762 198.509 89.6559 198.874 89.8154C199.243 89.9704 199.519 90.1755 199.701 90.4307C199.883 90.6859 200.011 90.9889 200.084 91.3398C200.13 91.5677 200.152 91.9665 200.152 92.5361V97H198.922V92.584C198.922 92.0827 198.874 91.709 198.778 91.4629C198.683 91.2122 198.512 91.014 198.266 90.8682C198.024 90.7178 197.739 90.6426 197.411 90.6426C196.887 90.6426 196.434 90.8089 196.051 91.1416C195.673 91.4743 195.483 92.1055 195.483 93.0352V97H194.253ZM201.82 97.6016L203.017 97.7793C203.067 98.1484 203.206 98.4173 203.434 98.5859C203.739 98.8138 204.156 98.9277 204.685 98.9277C205.254 98.9277 205.694 98.8138 206.004 98.5859C206.314 98.3581 206.523 98.0391 206.633 97.6289C206.697 97.3783 206.726 96.8519 206.722 96.0498C206.184 96.6833 205.514 97 204.712 97C203.714 97 202.941 96.64 202.395 95.9199C201.848 95.1999 201.574 94.3363 201.574 93.3291C201.574 92.6364 201.7 91.9984 201.95 91.415C202.201 90.8271 202.563 90.3737 203.037 90.0547C203.516 89.7357 204.076 89.5762 204.719 89.5762C205.576 89.5762 206.282 89.9225 206.838 90.6152V89.7402H207.973V96.0156C207.973 97.1458 207.856 97.9456 207.624 98.415C207.396 98.889 207.032 99.2627 206.53 99.5361C206.034 99.8096 205.421 99.9463 204.691 99.9463C203.826 99.9463 203.126 99.7503 202.593 99.3584C202.06 98.971 201.802 98.3854 201.82 97.6016ZM202.839 93.2402C202.839 94.1927 203.028 94.8877 203.406 95.3252C203.785 95.7627 204.258 95.9814 204.828 95.9814C205.393 95.9814 205.867 95.765 206.25 95.332C206.633 94.8945 206.824 94.2109 206.824 93.2812C206.824 92.3926 206.626 91.7227 206.229 91.2715C205.838 90.8203 205.364 90.5947 204.808 90.5947C204.261 90.5947 203.796 90.818 203.413 91.2646C203.03 91.7067 202.839 92.3652 202.839 93.2402ZM218.473 96.1045C218.017 96.4919 217.577 96.7653 217.153 96.9248C216.734 97.0843 216.283 97.1641 215.8 97.1641C215.002 97.1641 214.389 96.9704 213.961 96.583C213.533 96.1911 213.318 95.6921 213.318 95.0859C213.318 94.7305 213.398 94.4069 213.558 94.1152C213.722 93.819 213.934 93.582 214.193 93.4043C214.458 93.2266 214.754 93.0921 215.082 93.001C215.324 92.9372 215.688 92.8757 216.176 92.8164C217.169 92.6979 217.901 92.5566 218.37 92.3926C218.375 92.224 218.377 92.1169 218.377 92.0713C218.377 91.57 218.261 91.2168 218.028 91.0117C217.714 90.7337 217.247 90.5947 216.627 90.5947C216.048 90.5947 215.62 90.6973 215.342 90.9023C215.068 91.1029 214.866 91.4606 214.733 91.9756L213.53 91.8115C213.64 91.2965 213.82 90.8818 214.07 90.5674C214.321 90.2484 214.683 90.0046 215.157 89.8359C215.631 89.6628 216.18 89.5762 216.805 89.5762C217.424 89.5762 217.928 89.6491 218.315 89.7949C218.703 89.9408 218.988 90.1253 219.17 90.3486C219.352 90.5674 219.48 90.8454 219.553 91.1826C219.594 91.3923 219.614 91.7705 219.614 92.3174V93.958C219.614 95.1019 219.639 95.8265 219.689 96.1318C219.744 96.4326 219.849 96.722 220.004 97H218.719C218.591 96.7448 218.509 96.4463 218.473 96.1045ZM218.37 93.3564C217.924 93.5387 217.254 93.6937 216.36 93.8213C215.854 93.8942 215.497 93.9762 215.287 94.0674C215.077 94.1585 214.916 94.293 214.802 94.4707C214.688 94.6439 214.631 94.8376 214.631 95.0518C214.631 95.3799 214.754 95.6533 215 95.8721C215.251 96.0908 215.615 96.2002 216.094 96.2002C216.568 96.2002 216.989 96.0977 217.358 95.8926C217.728 95.6829 217.999 95.3981 218.172 95.0381C218.304 94.7601 218.37 94.3499 218.37 93.8076V93.3564ZM221.528 97V89.7402H222.636V90.7725C223.169 89.9749 223.939 89.5762 224.946 89.5762C225.384 89.5762 225.785 89.6559 226.149 89.8154C226.519 89.9704 226.794 90.1755 226.977 90.4307C227.159 90.6859 227.286 90.9889 227.359 91.3398C227.405 91.5677 227.428 91.9665 227.428 92.5361V97H226.197V92.584C226.197 92.0827 226.149 91.709 226.054 91.4629C225.958 91.2122 225.787 91.014 225.541 90.8682C225.299 90.7178 225.015 90.6426 224.687 90.6426C224.162 90.6426 223.709 90.8089 223.326 91.1416C222.948 91.4743 222.759 92.1055 222.759 93.0352V97H221.528ZM234.031 97V96.084C233.571 96.804 232.894 97.1641 232.001 97.1641C231.422 97.1641 230.889 97.0046 230.401 96.6855C229.918 96.3665 229.542 95.9222 229.273 95.3525C229.009 94.7783 228.877 94.1198 228.877 93.377C228.877 92.6523 228.998 91.9961 229.239 91.4082C229.481 90.8158 229.843 90.3623 230.326 90.0479C230.809 89.7334 231.349 89.5762 231.946 89.5762C232.384 89.5762 232.773 89.6696 233.115 89.8564C233.457 90.0387 233.735 90.278 233.949 90.5742V86.9785H235.173V97H234.031ZM230.142 93.377C230.142 94.3066 230.338 95.0016 230.729 95.4619C231.121 95.9222 231.584 96.1523 232.117 96.1523C232.655 96.1523 233.111 95.9336 233.484 95.4961C233.863 95.054 234.052 94.3818 234.052 93.4795C234.052 92.486 233.86 91.7568 233.478 91.292C233.095 90.8271 232.623 90.5947 232.062 90.5947C231.516 90.5947 231.058 90.818 230.688 91.2646C230.324 91.7113 230.142 92.4154 230.142 93.377ZM245.748 96.1045C245.292 96.4919 244.853 96.7653 244.429 96.9248C244.009 97.0843 243.558 97.1641 243.075 97.1641C242.278 97.1641 241.665 96.9704 241.236 96.583C240.808 96.1911 240.594 95.6921 240.594 95.0859C240.594 94.7305 240.674 94.4069 240.833 94.1152C240.997 93.819 241.209 93.582 241.469 93.4043C241.733 93.2266 242.029 93.0921 242.357 93.001C242.599 92.9372 242.964 92.8757 243.451 92.8164C244.445 92.6979 245.176 92.5566 245.646 92.3926C245.65 92.224 245.652 92.1169 245.652 92.0713C245.652 91.57 245.536 91.2168 245.304 91.0117C244.989 90.7337 244.522 90.5947 243.902 90.5947C243.324 90.5947 242.895 90.6973 242.617 90.9023C242.344 91.1029 242.141 91.4606 242.009 91.9756L240.806 91.8115C240.915 91.2965 241.095 90.8818 241.346 90.5674C241.596 90.2484 241.959 90.0046 242.433 89.8359C242.907 89.6628 243.456 89.5762 244.08 89.5762C244.7 89.5762 245.203 89.6491 245.591 89.7949C245.978 89.9408 246.263 90.1253 246.445 90.3486C246.628 90.5674 246.755 90.8454 246.828 91.1826C246.869 91.3923 246.89 91.7705 246.89 92.3174V93.958C246.89 95.1019 246.915 95.8265 246.965 96.1318C247.02 96.4326 247.124 96.722 247.279 97H245.994C245.867 96.7448 245.785 96.4463 245.748 96.1045ZM245.646 93.3564C245.199 93.5387 244.529 93.6937 243.636 93.8213C243.13 93.8942 242.772 93.9762 242.562 94.0674C242.353 94.1585 242.191 94.293 242.077 94.4707C241.963 94.6439 241.906 94.8376 241.906 95.0518C241.906 95.3799 242.029 95.6533 242.275 95.8721C242.526 96.0908 242.891 96.2002 243.369 96.2002C243.843 96.2002 244.265 96.0977 244.634 95.8926C245.003 95.6829 245.274 95.3981 245.447 95.0381C245.579 94.7601 245.646 94.3499 245.646 93.8076V93.3564ZM248.776 97V86.9785H250.007V97H248.776ZM256.891 94.6621L258.162 94.8193C257.962 95.5622 257.59 96.1387 257.048 96.5488C256.506 96.959 255.813 97.1641 254.97 97.1641C253.908 97.1641 253.065 96.8382 252.44 96.1865C251.821 95.5303 251.511 94.612 251.511 93.4316C251.511 92.2103 251.825 91.2624 252.454 90.5879C253.083 89.9134 253.899 89.5762 254.901 89.5762C255.872 89.5762 256.665 89.9066 257.28 90.5674C257.896 91.2282 258.203 92.1579 258.203 93.3564C258.203 93.4294 258.201 93.5387 258.196 93.6846H252.782C252.828 94.4821 253.053 95.0928 253.459 95.5166C253.865 95.9404 254.37 96.1523 254.977 96.1523C255.428 96.1523 255.813 96.0339 256.132 95.7969C256.451 95.5599 256.704 95.1816 256.891 94.6621ZM252.851 92.6729H256.904C256.85 92.0622 256.695 91.6042 256.439 91.2988C256.048 90.8249 255.539 90.5879 254.915 90.5879C254.35 90.5879 253.874 90.777 253.486 91.1553C253.104 91.5335 252.892 92.0394 252.851 92.6729ZM259.7 97V89.7402H260.808V90.8408C261.09 90.3258 261.35 89.9863 261.587 89.8223C261.828 89.6582 262.093 89.5762 262.38 89.5762C262.795 89.5762 263.216 89.7083 263.645 89.9727L263.221 91.1143C262.92 90.9365 262.619 90.8477 262.318 90.8477C262.049 90.8477 261.808 90.9297 261.594 91.0938C261.38 91.2533 261.227 91.4766 261.136 91.7637C260.999 92.2012 260.931 92.6797 260.931 93.1992V97H259.7ZM267.062 95.8994L267.24 96.9863C266.894 97.0592 266.584 97.0957 266.311 97.0957C265.864 97.0957 265.518 97.0251 265.271 96.8838C265.025 96.7425 264.852 96.5579 264.752 96.3301C264.652 96.0977 264.602 95.6123 264.602 94.874V90.6973H263.699V89.7402H264.602V87.9424L265.825 87.2041V89.7402H267.062V90.6973H265.825V94.9424C265.825 95.2933 265.846 95.5189 265.887 95.6191C265.932 95.7194 266.003 95.7992 266.099 95.8584C266.199 95.9176 266.34 95.9473 266.522 95.9473C266.659 95.9473 266.839 95.9313 267.062 95.8994ZM267.78 94.833L268.997 94.6416C269.065 95.1292 269.255 95.5029 269.564 95.7627C269.879 96.0225 270.316 96.1523 270.877 96.1523C271.442 96.1523 271.861 96.0384 272.135 95.8105C272.408 95.5781 272.545 95.307 272.545 94.9971C272.545 94.7191 272.424 94.5003 272.183 94.3408C272.014 94.2314 271.595 94.0924 270.925 93.9238C270.022 93.696 269.396 93.5 269.045 93.3359C268.699 93.1673 268.434 92.9372 268.252 92.6455C268.074 92.3493 267.985 92.0234 267.985 91.668C267.985 91.3444 268.058 91.0459 268.204 90.7725C268.354 90.4945 268.557 90.2643 268.812 90.082C269.004 89.9408 269.264 89.8223 269.592 89.7266C269.924 89.6263 270.28 89.5762 270.658 89.5762C271.228 89.5762 271.727 89.6582 272.155 89.8223C272.588 89.9863 272.907 90.2096 273.112 90.4922C273.317 90.7702 273.459 91.1439 273.536 91.6133L272.333 91.7773C272.278 91.4036 272.119 91.112 271.854 90.9023C271.595 90.6927 271.226 90.5879 270.747 90.5879C270.182 90.5879 269.779 90.6813 269.537 90.8682C269.296 91.055 269.175 91.2738 269.175 91.5244C269.175 91.6839 269.225 91.8275 269.325 91.9551C269.425 92.0872 269.583 92.1966 269.797 92.2832C269.92 92.3288 270.282 92.4336 270.884 92.5977C271.754 92.8301 272.36 93.0215 272.702 93.1719C273.049 93.3177 273.32 93.5319 273.516 93.8145C273.712 94.097 273.81 94.4479 273.81 94.8672C273.81 95.2773 273.689 95.6647 273.447 96.0293C273.21 96.3893 272.866 96.6696 272.415 96.8701C271.964 97.0661 271.453 97.1641 270.884 97.1641C269.94 97.1641 269.22 96.9681 268.724 96.5762C268.231 96.1842 267.917 95.6032 267.78 94.833Z" fill="black"/>
</g>
<rect x="0.5" y="0.5" width="517" height="349" rx="7.5" stroke="#383838"/>
<defs>
<clipPath id="clip0_53_193">
<rect width="518" height="350" rx="8" fill="white"/>
</clipPath>
</defs>
</svg>
